<?xml version="1.0" encoding="UTF-8" standalone="no"?>
<!-- Created with Inkscape (http://www.inkscape.org/) -->

<svg
   xmlns:dc="http://purl.org/dc/elements/1.1/"
   xmlns:cc="http://creativecommons.org/ns#"
   xmlns:rdf="http://www.w3.org/1999/02/22-rdf-syntax-ns#"
   xmlns:svg="http://www.w3.org/2000/svg"
   xmlns="http://www.w3.org/2000/svg"
   xmlns:sodipodi="http://sodipodi.sourceforge.net/DTD/sodipodi-0.dtd"
   xmlns:inkscape="http://www.inkscape.org/namespaces/inkscape"
   width="29.700001cm"
   height="21cm"
   viewBox="0 0 1052.3622 744.09447"
   id="svg2"
   version="1.1"
   inkscape:version="0.91pre4 r13712"
   sodipodi:docname="doors.svg">
  <defs
     id="defs4" />
  <sodipodi:namedview
     id="base"
     pagecolor="#ffffff"
     bordercolor="#666666"
     borderopacity="1.0"
     inkscape:pageopacity="0.0"
     inkscape:pageshadow="2"
     inkscape:zoom="1.4"
     inkscape:cx="265.73071"
     inkscape:cy="229.22045"
     inkscape:document-units="cm"
     inkscape:current-layer="layer1"
     showgrid="false"
     units="cm"
     inkscape:window-width="1920"
     inkscape:window-height="1017"
     inkscape:window-x="1912"
     inkscape:window-y="-8"
     inkscape:window-maximized="1" />
  <metadata
     id="metadata7">
    <rdf:RDF>
      <cc:Work
         rdf:about="">
        <dc:format>image/svg+xml</dc:format>
        <dc:type
           rdf:resource="http://purl.org/dc/dcmitype/StillImage" />
        <dc:title></dc:title>
      </cc:Work>
    </rdf:RDF>
  </metadata>
  <g
     inkscape:label="Layer 1"
     inkscape:groupmode="layer"
     id="layer1"
     transform="translate(0,-308.26777)"
     style="display:inline">
    <path
       style="fill:#0000ff;fill-rule:evenodd;stroke:#000000;stroke-width:0.09172892;stroke-linecap:butt;stroke-linejoin:miter;stroke-opacity:1"
       d="M 109.21992,698.07746 A 109.17343,56.644596 0 0 0 0.04586448,754.72157 109.17343,56.644596 0 0 0 0.0966664,755.466 l 0,296.8504 218.2426436,0 0,-297.0476 a 109.17343,56.644596 0 0 0 0.0527,-0.54723 109.17343,56.644596 0 0 0 -109.17211,-56.64411 z"
       id="rect3336"
       inkscape:connector-curvature="0" />
    <circle
       style="fill:#ff0000;fill-rule:evenodd;stroke:#000000;stroke-width:2.36004019px;stroke-linecap:butt;stroke-linejoin:miter;stroke-opacity:1"
       id="path3338"
       cx="109.48819"
       cy="709.08838"
       r="0" />
    <path
       style="display:inline;stroke-width:0.1"
       d="m 416.66692,526.5213 0,0.11133 a 44.29134,44.29134 0 0 0 -0.30859,0.0312 44.29134,44.29134 0 0 0 -2.58594,0.26172 44.29134,44.29134 0 0 0 -1.76367,0.20312 44.29134,44.29134 0 0 0 -2.9375,0.59961 44.29134,44.29134 0 0 0 -1.33594,0.29297 44.29134,44.29134 0 0 0 -3.25391,1.00976 44.29134,44.29134 0 0 0 -0.91211,0.29883 44.29134,44.29134 0 0 0 -3.41406,1.44531 44.29134,44.29134 0 0 0 -0.62305,0.2754 44.29134,44.29134 0 0 0 -3.47265,1.90039 44.29134,44.29134 0 0 0 -0.37696,0.21484 44.29134,44.29134 0 0 0 -3.46679,2.375 44.29134,44.29134 0 0 0 -0.15235,0.10742 44.29134,44.29134 0 0 0 -2.87304,2.34766 l -0.0566,-0.0547 -1.55274,1.55274 -1.57812,1.57812 0.0781,0.0801 a 44.29134,44.29134 0 0 0 -0.18555,0.22851 44.29134,44.29134 0 0 0 -1.70312,2.08594 44.29134,44.29134 0 0 0 -1.04883,1.32422 44.29134,44.29134 0 0 0 -1.65039,2.49414 44.29134,44.29134 0 0 0 -0.75,1.16797 44.29134,44.29134 0 0 0 -1.53125,2.91211 44.29134,44.29134 0 0 0 -0.49609,0.97656 44.29134,44.29134 0 0 0 -1.36328,3.36719 44.29134,44.29134 0 0 0 -0.26563,0.6875 44.29134,44.29134 0 0 0 -1.12305,3.8418 44.29134,44.29134 0 0 0 -0.0996,0.36132 44.29134,44.29134 0 0 0 -0.79883,4.2793 44.29134,44.29134 0 0 0 -0.004,0.0195 44.29134,44.29134 0 0 0 -0.375,3.7168 l -0.0781,0 0,2.19726 0,2.23243 0.11132,0 a 44.29134,44.29134 0 0 0 0.0312,0.30859 44.29134,44.29134 0 0 0 0.26172,2.59375 44.29134,44.29134 0 0 0 0.20313,1.75586 44.29134,44.29134 0 0 0 0.60351,2.95312 44.29134,44.29134 0 0 0 0.28711,1.31641 44.29134,44.29134 0 0 0 1.01563,3.26953 44.29134,44.29134 0 0 0 0.29492,0.90039 44.29134,44.29134 0 0 0 1.44531,3.41407 44.29134,44.29134 0 0 0 0.27539,0.62304 44.29134,44.29134 0 0 0 1.92578,3.51758 44.29134,44.29134 0 0 0 0.1836,0.32422 44.29134,44.29134 0 0 0 2.43945,3.56055 44.29134,44.29134 0 0 0 0.0371,0.0527 44.29134,44.29134 0 0 0 2.33594,2.86133 l -0.0566,0.0566 1.57812,1.57812 1.55274,1.55469 0.0781,-0.0781 a 44.29134,44.29134 0 0 0 0.25195,0.20507 44.29134,44.29134 0 0 0 1.98829,1.62696 44.29134,44.29134 0 0 0 1.42578,1.1289 44.29134,44.29134 0 0 0 2.43359,1.61133 44.29134,44.29134 0 0 0 1.21289,0.77735 44.29134,44.29134 0 0 0 2.83984,1.49804 44.29134,44.29134 0 0 0 1.05665,0.53711 44.29134,44.29134 0 0 0 3.20507,1.30078 44.29134,44.29134 0 0 0 0.85938,0.33203 44.29134,44.29134 0 0 0 3.5918,1.05469 44.29134,44.29134 0 0 0 0.61718,0.16992 44.29134,44.29134 0 0 0 3.98047,0.7461 44.29134,44.29134 0 0 0 0.32422,0.0547 44.29134,44.29134 0 0 0 3.66797,0.37305 l 0,0.0801 2.23242,0 2.19727,0 0,-0.10937 a 44.29134,44.29134 0 0 0 0.29101,-0.0293 44.29134,44.29134 0 0 0 2.78516,-0.28125 44.29134,44.29134 0 0 0 1.54492,-0.17774 44.29134,44.29134 0 0 0 3.0918,-0.625 44.29134,44.29134 0 0 0 1.20703,-0.26367 44.29134,44.29134 0 0 0 3.26953,-1.01172 44.29134,44.29134 0 0 0 0.91406,-0.29687 44.29134,44.29134 0 0 0 3.4668,-1.4668 44.29134,44.29134 0 0 0 0.55664,-0.24609 44.29134,44.29134 0 0 0 3.59961,-1.9668 44.29134,44.29134 0 0 0 0.24219,-0.13672 44.29134,44.29134 0 0 0 3.55859,-2.43359 44.29134,44.29134 0 0 0 0.0625,-0.043 44.29134,44.29134 0 0 0 0.01,-0.008 44.29134,44.29134 0 0 0 2.88671,-2.35352 l 0.0567,0.0566 1.57812,-1.57812 1.55469,-1.55469 -0.0781,-0.0762 a 44.29134,44.29134 0 0 0 0.20117,-0.2461 44.29134,44.29134 0 0 0 1.60938,-1.96875 44.29134,44.29134 0 0 0 1.14258,-1.43945 44.29134,44.29134 0 0 0 1.58594,-2.39258 44.29134,44.29134 0 0 0 0.8125,-1.26562 44.29134,44.29134 0 0 0 1.50195,-2.84961 44.29134,44.29134 0 0 0 0.52148,-1.02735 44.29134,44.29134 0 0 0 1.35157,-3.33203 44.29134,44.29134 0 0 0 0.28125,-0.72265 44.29134,44.29134 0 0 0 1.09765,-3.73828 44.29134,44.29134 0 0 0 0.13086,-0.47461 44.29134,44.29134 0 0 0 0.76367,-4.07032 44.29134,44.29134 0 0 0 0.043,-0.24609 44.29134,44.29134 0 0 0 0.37305,-3.68359 l 0.0801,0 0,-2.23243 0,-2.19726 -0.10938,0 a 44.29134,44.29134 0 0 0 -0.0312,-0.3125 44.29134,44.29134 0 0 0 -0.26367,-2.61328 44.29134,44.29134 0 0 0 -0.19727,-1.72071 44.29134,44.29134 0 0 0 -0.58984,-2.91406 44.29134,44.29134 0 0 0 -0.30273,-1.38476 44.29134,44.29134 0 0 0 -0.95508,-3.08594 44.29134,44.29134 0 0 0 -0.35742,-1.09961 44.29134,44.29134 0 0 0 -1.38672,-3.27539 44.29134,44.29134 0 0 0 -0.32813,-0.74805 44.29134,44.29134 0 0 0 -1.86523,-3.41211 44.29134,44.29134 0 0 0 -0.24219,-0.42773 44.29134,44.29134 0 0 0 -2.36133,-3.45313 44.29134,44.29134 0 0 0 -0.11719,-0.16601 44.29134,44.29134 0 0 0 -2.36718,-2.89649 l 0.0566,-0.0547 -1.55469,-1.55469 -1.57812,-1.57813 -0.0781,0.0762 a 44.29134,44.29134 0 0 0 -0.22266,-0.18165 44.29134,44.29134 0 0 0 -2.11914,-1.72851 44.29134,44.29134 0 0 0 -1.27343,-1.01172 44.29134,44.29134 0 0 0 -2.57618,-1.70312 44.29134,44.29134 0 0 0 -1.09375,-0.70118 44.29134,44.29134 0 0 0 -3.06445,-1.61328 44.29134,44.29134 0 0 0 -0.80664,-0.41015 44.29134,44.29134 0 0 0 -3.47461,-1.40821 44.29134,44.29134 0 0 0 -0.59961,-0.23242 44.29134,44.29134 0 0 0 -3.89844,-1.13867 44.29134,44.29134 0 0 0 -0.30859,-0.0859 44.29134,44.29134 0 0 0 -4.28125,-0.79883 44.29134,44.29134 0 0 0 -0.0273,-0.006 44.29134,44.29134 0 0 0 -0.004,0 44.29134,44.29134 0 0 0 -3.71484,-0.375 l 0,-0.0781 -2.19727,0 -2.23242,0 z m 4.42969,7.6914 a 36.737587,36.737587 0 0 1 0.24218,0.006 36.737587,36.737587 0 0 1 2.28125,0.25196 36.737587,36.737587 0 0 1 1.31641,0.16601 36.737587,36.737587 0 0 1 2.46094,0.52344 36.737587,36.737587 0 0 1 1.10547,0.25391 36.737587,36.737587 0 0 1 2.63281,0.84375 36.737587,36.737587 0 0 1 0.8125,0.27343 36.737587,36.737587 0 0 1 2.84375,1.23829 36.737587,36.737587 0 0 1 0.47656,0.21484 36.737587,36.737587 0 0 1 2.92969,1.63867 36.737587,36.737587 0 0 1 0.24219,0.14063 36.737587,36.737587 0 0 1 2.97656,2.08203 36.737587,36.737587 0 0 1 1.76953,1.52344 l -22.08984,22.08984 0,-31.2461 z m -4.42969,0.0215 0,31.24023 -22.0957,-22.0957 a 36.737587,36.737587 0 0 1 0.1582,-0.15039 36.737587,36.737587 0 0 1 1.89844,-1.51953 36.737587,36.737587 0 0 1 0.94531,-0.73633 36.737587,36.737587 0 0 1 2.28516,-1.48047 36.737587,36.737587 0 0 1 0.76562,-0.48047 36.737587,36.737587 0 0 1 2.68359,-1.38086 36.737587,36.737587 0 0 1 0.54883,-0.27148 36.737587,36.737587 0 0 1 3.02735,-1.19336 36.737587,36.737587 0 0 1 0.35937,-0.13477 36.737587,36.737587 0 0 1 3.46484,-0.97656 36.737587,36.737587 0 0 1 0.0156,-0.004 36.737587,36.737587 0 0 1 0.002,0 36.737587,36.737587 0 0 1 5.94141,-0.81641 z m 29.66992,12.25 a 36.737587,36.737587 0 0 1 0.14063,0.14844 36.737587,36.737587 0 0 1 1.56445,1.95312 36.737587,36.737587 0 0 1 0.69141,0.89063 36.737587,36.737587 0 0 1 1.51171,2.33203 36.737587,36.737587 0 0 1 0.45508,0.72265 36.737587,36.737587 0 0 1 1.42188,2.76563 36.737587,36.737587 0 0 1 0.22656,0.45703 36.737587,36.737587 0 0 1 1.21875,3.0957 36.737587,36.737587 0 0 1 0.11328,0.29688 36.737587,36.737587 0 0 1 0.98438,3.49023 36.737587,36.737587 0 0 1 0.8164,5.97852 l -31.27734,0 22.13281,-22.13086 z m -54.88086,0.043 22.08789,22.08789 -31.24023,0 a 36.737587,36.737587 0 0 1 0.008,-0.29492 36.737587,36.737587 0 0 1 0.22266,-2.02344 36.737587,36.737587 0 0 1 0.19922,-1.57227 36.737587,36.737587 0 0 1 0.50781,-2.37109 36.737587,36.737587 0 0 1 0.26367,-1.15039 36.737587,36.737587 0 0 1 0.8418,-2.625 36.737587,36.737587 0 0 1 0.27929,-0.82813 36.737587,36.737587 0 0 1 1.20508,-2.76757 36.737587,36.737587 0 0 1 0.25195,-0.55664 36.737587,36.737587 0 0 1 1.57032,-2.80664 36.737587,36.737587 0 0 1 0.21484,-0.3711 36.737587,36.737587 0 0 1 2.06641,-2.95117 36.737587,36.737587 0 0 1 1.52148,-1.76953 z m -9.13086,26.51758 31.1875,0 -22.06836,22.0664 a 36.737587,36.737587 0 0 1 -0.16406,-0.17578 36.737587,36.737587 0 0 1 -1.4668,-1.83594 36.737587,36.737587 0 0 1 -0.77343,-0.99609 36.737587,36.737587 0 0 1 -1.50977,-2.33594 36.737587,36.737587 0 0 1 -0.43945,-0.70117 36.737587,36.737587 0 0 1 -1.42383,-2.77539 36.737587,36.737587 0 0 1 -0.22656,-0.45703 36.737587,36.737587 0 0 1 -1.27735,-3.25 36.737587,36.737587 0 0 1 -0.041,-0.11524 36.737587,36.737587 0 0 1 -1.79688,-9.42382 z m 41.91406,0 31.26368,0 a 36.737587,36.737587 0 0 1 -0.004,0.11718 36.737587,36.737587 0 0 1 -0.34961,3.14063 36.737587,36.737587 0 0 1 -0.0586,0.45312 36.737587,36.737587 0 0 1 -0.71094,3.31836 36.737587,36.737587 0 0 1 -0.0566,0.24414 36.737587,36.737587 0 0 1 -1.0918,3.4043 36.737587,36.737587 0 0 1 -0.0195,0.0586 36.737587,36.737587 0 0 1 -0.004,0.01 36.737587,36.737587 0 0 1 -6.89062,11.33203 l -22.07813,-22.07812 z m -7.57226,3.10351 0,31.26172 a 36.737587,36.737587 0 0 1 -0.19141,-0.006 36.737587,36.737587 0 0 1 -2.67383,-0.29883 36.737587,36.737587 0 0 1 -0.91601,-0.11523 36.737587,36.737587 0 0 1 -2.94727,-0.63281 36.737587,36.737587 0 0 1 -0.59765,-0.13672 36.737587,36.737587 0 0 1 -3.19727,-1.0293 36.737587,36.737587 0 0 1 -0.24805,-0.084 36.737587,36.737587 0 0 1 -3.33007,-1.45313 36.737587,36.737587 0 0 1 -7.97852,-5.42578 l 22.08008,-22.08008 z m 4.42969,0.0195 22.10156,22.10157 a 36.737587,36.737587 0 0 1 -0.13086,0.125 36.737587,36.737587 0 0 1 -2.0957,1.67578 36.737587,36.737587 0 0 1 -0.74805,0.58007 36.737587,36.737587 0 0 1 -2.50195,1.61719 36.737587,36.737587 0 0 1 -0.54688,0.34375 36.737587,36.737587 0 0 1 -2.95898,1.51758 36.737587,36.737587 0 0 1 -0.26563,0.13086 36.737587,36.737587 0 0 1 -3.36328,1.32227 36.737587,36.737587 0 0 1 -0.0137,0.006 36.737587,36.737587 0 0 1 -0.002,0 36.737587,36.737587 0 0 1 -9.47461,1.80079 l 0,-31.22071 z"
       id="path3355-9-1"
       inkscape:connector-curvature="0" />
    <path
       inkscape:connector-curvature="0"
       style="display:inline;stroke-width:0.1"
       d="m 421.82231,629.90262 0,0.1113 a 44.29134,44.29134 0 0 0 -41.98047,41.9824 l -0.0781,0 0,2.1973 0,2.2324 0.11133,0 a 44.29134,44.29134 0 0 0 41.94726,41.97854 l 0,0.08 2.23243,0 2.19726,0 0,-0.1094 a 44.29134,44.29134 0 0 0 42.01367,-41.94914 l 0.0801,0 0,-2.2325 0,-2.1972 -0.10937,0 a 44.29134,44.29134 0 0 0 -41.98437,-42.0156 l 0,-0.078 -2.19727,0 -2.23242,0 z m 0,7.6426 0,34.4511 -34.38867,0 a 36.737587,36.737587 0 0 1 34.38867,-34.4511 z m 4.42969,0.027 a 36.737587,36.737587 0 0 1 34.45703,34.4238 l -34.45703,0 0,-34.4238 z m -38.84571,38.8535 34.41602,0 0,34.38084 a 36.737587,36.737587 0 0 1 -34.41602,-34.38084 z m 38.84571,0 34.41601,0 A 36.737587,36.737587 0 0 1 426.252,710.84756 l 0,-34.42184 z"
       id="path3355-9-1-7" />
    <path
       inkscape:connector-curvature="0"
       style="display:inline;stroke-width:0.1"
       d="m 59.8251,751.18189 0,0.1113 a 44.29134,44.29134 0 0 0 -41.98047,41.9824 l -0.0781,0 0,2.1973 0,2.2324 0.11133,0 a 44.29134,44.29134 0 0 0 41.94726,41.97854 l 0,0.08 2.23243,0 2.19726,0 0,-0.1094 a 44.29134,44.29134 0 0 0 42.01368,-41.94914 l 0.0801,0 0,-2.2325 0,-2.1972 -0.10937,0 a 44.29134,44.29134 0 0 0 -41.98438,-42.0156 l 0,-0.078 -2.19727,0 -2.23242,0 z m 0,7.6426 0,34.4511 -34.38867,0 a 36.737587,36.737587 0 0 1 34.38867,-34.4511 z m 4.42969,0.027 a 36.737587,36.737587 0 0 1 34.45703,34.4238 l -34.45703,0 0,-34.4238 z m -38.84571,38.8535 34.41602,0 0,34.38084 A 36.737587,36.737587 0 0 1 25.40908,797.70499 Z m 38.84571,0 34.41601,0 a 36.737587,36.737587 0 0 1 -34.41601,34.42184 l 0,-34.42184 z"
       id="path3355-9-1-7-7" />
    <path
       inkscape:connector-curvature="0"
       style="display:inline;stroke-width:0.1"
       d="m 154.25424,751.18189 0,0.1113 a 44.29134,44.29134 0 0 0 -41.98047,41.9824 l -0.0781,0 0,2.1973 0,2.2324 0.11133,0 a 44.29134,44.29134 0 0 0 41.94726,41.97854 l 0,0.08 2.23243,0 2.19726,0 0,-0.1094 a 44.29134,44.29134 0 0 0 42.01367,-41.94914 l 0.0801,0 0,-2.2325 0,-2.1972 -0.10937,0 a 44.29134,44.29134 0 0 0 -41.98437,-42.0156 l 0,-0.078 -2.19727,0 -2.23242,0 z m 0,7.6426 0,34.4511 -34.38867,0 a 36.737587,36.737587 0 0 1 34.38867,-34.4511 z m 4.42969,0.027 a 36.737587,36.737587 0 0 1 34.45703,34.4238 l -34.45703,0 0,-34.4238 z m -38.84571,38.8535 34.41602,0 0,34.38084 a 36.737587,36.737587 0 0 1 -34.41602,-34.38084 z m 38.84571,0 34.41601,0 a 36.737587,36.737587 0 0 1 -34.41601,34.42184 l 0,-34.42184 z"
       id="path3355-9-1-7-7-1" />
    <path
       style="display:inline;fill:#00ffff;fill-rule:evenodd;stroke:#000000;stroke-width:0.09172893;stroke-linecap:butt;stroke-linejoin:miter;stroke-opacity:1"
       d="M 109.2207,698.07785 A 109.17343,56.644602 0 0 0 0.04664571,754.72197 109.17343,56.644602 0 0 0 0.09742888,755.4664 l 0,296.8504 8.85189782,0 0,-288.89666 a 100.32101,55.127112 0 0 1 -0.046877,-0.72307 100.32101,55.127112 0 0 1 100.3202103,-55.12732 100.32101,55.127112 0 0 1 100.3202,55.12732 100.32101,55.127112 0 0 1 -0.0488,0.53245 l 0,289.08728 8.84604,0 0,-297.0476 a 109.17343,56.644602 0 0 0 0.0527,-0.54723 109.17343,56.644602 0 0 0 -109.17211,-56.64412 z"
       id="rect3336-0"
       inkscape:connector-curvature="0" />
  </g>
</svg>
