<?xml version="1.0" encoding="UTF-8" standalone="no"?>
<!-- Created with Inkscape (http://www.inkscape.org/) -->

<svg
   xmlns:dc="http://purl.org/dc/elements/1.1/"
   xmlns:cc="http://creativecommons.org/ns#"
   xmlns:rdf="http://www.w3.org/1999/02/22-rdf-syntax-ns#"
   xmlns:svg="http://www.w3.org/2000/svg"
   xmlns="http://www.w3.org/2000/svg"
   xmlns:sodipodi="http://sodipodi.sourceforge.net/DTD/sodipodi-0.dtd"
   xmlns:inkscape="http://www.inkscape.org/namespaces/inkscape"
   width="29.700001cm"
   height="21cm"
   viewBox="0 0 1052.3622 744.09447"
   id="svg2"
   version="1.1"
   inkscape:version="0.91pre4 r13712"
   sodipodi:docname="doors.svg">
  <defs
     id="defs4" />
  <sodipodi:namedview
     id="base"
     pagecolor="#ffffff"
     bordercolor="#666666"
     borderopacity="1.0"
     inkscape:pageopacity="0.0"
     inkscape:pageshadow="2"
     inkscape:zoom="0.35355339"
     inkscape:cx="504.90197"
     inkscape:cy="412.23619"
     inkscape:document-units="cm"
     inkscape:current-layer="g3718"
     showgrid="false"
     units="cm"
     inkscape:window-width="1920"
     inkscape:window-height="1017"
     inkscape:window-x="1912"
     inkscape:window-y="-8"
     inkscape:window-maximized="1" />
  <metadata
     id="metadata7">
    <rdf:RDF>
      <cc:Work
         rdf:about="">
        <dc:format>image/svg+xml</dc:format>
        <dc:type
           rdf:resource="http://purl.org/dc/dcmitype/StillImage" />
        <dc:title></dc:title>
      </cc:Work>
    </rdf:RDF>
  </metadata>
  <g
     inkscape:label="Layer 1"
     inkscape:groupmode="layer"
     id="layer1"
     transform="translate(0,-308.26777)"
     style="display:inline">
    <circle
       style="fill:#ff0000;fill-rule:evenodd;stroke:#000000;stroke-width:2.36004019px;stroke-linecap:butt;stroke-linejoin:miter;stroke-opacity:1"
       id="path3338"
       cx="109.48819"
       cy="709.08838"
       r="0" />
    <g
       id="g3618"
       transform="translate(1087.3888,-100.03062)">
      <path
         inkscape:connector-curvature="0"
         id="rect3336"
         d="M 109.21992,698.07746 A 109.17343,56.644596 0 0 0 0.04586448,754.72157 109.17343,56.644596 0 0 0 0.0966664,755.466 l 0,296.8504 218.2426436,0 0,-297.0476 a 109.17343,56.644596 0 0 0 0.0527,-0.54723 109.17343,56.644596 0 0 0 -109.17211,-56.64411 z"
         style="fill:none;fill-rule:evenodd;stroke:#800000;stroke-width:1;stroke-linecap:butt;stroke-linejoin:miter;stroke-opacity:1" />
      <path
         id="path3355-9-1-7-7"
         d="m 59.8251,751.18189 0,0.1113 a 44.29134,44.29134 0 0 0 -41.98047,41.9824 l -0.0781,0 0,2.1973 0,2.2324 0.11133,0 a 44.29134,44.29134 0 0 0 41.94726,41.97854 l 0,0.08 2.23243,0 2.19726,0 0,-0.1094 a 44.29134,44.29134 0 0 0 42.01368,-41.94914 l 0.0801,0 0,-2.2325 0,-2.1972 -0.10937,0 a 44.29134,44.29134 0 0 0 -41.98438,-42.0156 l 0,-0.078 -2.19727,0 -2.23242,0 z m 0,7.6426 0,34.4511 -34.38867,0 a 36.737587,36.737587 0 0 1 34.38867,-34.4511 z m 4.42969,0.027 a 36.737587,36.737587 0 0 1 34.45703,34.4238 l -34.45703,0 0,-34.4238 z m -38.84571,38.8535 34.41602,0 0,34.38084 A 36.737587,36.737587 0 0 1 25.40908,797.70499 Z m 38.84571,0 34.41601,0 a 36.737587,36.737587 0 0 1 -34.41601,34.42184 l 0,-34.42184 z"
         style="display:inline;fill:none;stroke:#00ff00;stroke-width:1"
         inkscape:connector-curvature="0" />
      <path
         id="path3355-9-1-7-7-1"
         d="m 154.25424,751.18189 0,0.1113 a 44.29134,44.29134 0 0 0 -41.98047,41.9824 l -0.0781,0 0,2.1973 0,2.2324 0.11133,0 a 44.29134,44.29134 0 0 0 41.94726,41.97854 l 0,0.08 2.23243,0 2.19726,0 0,-0.1094 a 44.29134,44.29134 0 0 0 42.01367,-41.94914 l 0.0801,0 0,-2.2325 0,-2.1972 -0.10937,0 a 44.29134,44.29134 0 0 0 -41.98437,-42.0156 l 0,-0.078 -2.19727,0 -2.23242,0 z m 0,7.6426 0,34.4511 -34.38867,0 a 36.737587,36.737587 0 0 1 34.38867,-34.4511 z m 4.42969,0.027 a 36.737587,36.737587 0 0 1 34.45703,34.4238 l -34.45703,0 0,-34.4238 z m -38.84571,38.8535 34.41602,0 0,34.38084 a 36.737587,36.737587 0 0 1 -34.41602,-34.38084 z m 38.84571,0 34.41601,0 a 36.737587,36.737587 0 0 1 -34.41601,34.42184 l 0,-34.42184 z"
         style="display:inline;fill:none;stroke:#00ff00;stroke-width:1"
         inkscape:connector-curvature="0" />
    </g>
    <g
       id="g3635"
       transform="translate(230.31496,-4.1811024e-5)">
      <path
         id="path3355-9-1-7"
         d="m 1194.3675,659.62567 0,0.1113 a 44.291651,44.29134 0 0 0 -41.9807,41.9824 l -0.078,0 0,2.1973 0,2.2324 0.1113,0 a 44.291651,44.29134 0 0 0 41.9476,41.97854 l 0,0.08 2.2324,0 2.1973,0 0,-0.1094 a 44.291651,44.29134 0 0 0 42.0139,-41.94914 l 0.08,0 0,-2.2325 0,-2.1972 -0.1093,0 a 44.291651,44.29134 0 0 0 -41.9847,-42.0156 l 0,-0.078 -2.1973,0 -2.2324,0 z m 0,7.6426 0,34.4511 -34.3889,0 a 36.737845,36.737587 0 0 1 34.3889,-34.4511 z m 4.4298,0.027 a 36.737845,36.737587 0 0 1 34.4572,34.4238 l -34.4572,0 0,-34.4238 z m -38.846,38.8535 34.4162,0 0,34.38084 a 36.737845,36.737587 0 0 1 -34.4162,-34.38084 z m 38.846,0 34.4162,0 a 36.737845,36.737587 0 0 1 -34.4162,34.42184 l 0,-34.42184 z"
         style="display:inline;fill:none;stroke:#0000ff;stroke-width:1"
         inkscape:connector-curvature="0" />
      <path
         inkscape:connector-curvature="0"
         id="rect3336-0"
         d="m 1196.6087,598.04678 a 109.17343,56.644602 0 0 0 -109.174,56.64412 109.17343,56.644602 0 0 0 0.051,0.74443 l 0,296.85045 8.8519,0 0,-288.89671 a 100.32101,55.127112 0 0 1 -0.047,-0.72307 100.32101,55.127112 0 0 1 100.3202,-55.12732 100.32101,55.127112 0 0 1 100.3202,55.12732 100.32101,55.127112 0 0 1 -0.049,0.53245 l 0,289.08733 8.846,0 0,-297.04765 a 109.17343,56.644602 0 0 0 0.053,-0.54723 109.17343,56.644602 0 0 0 -109.1721,-56.64412 z"
         style="display:inline;fill:none;fill-rule:evenodd;stroke:#ff0000;stroke-width:1;stroke-linecap:butt;stroke-linejoin:miter;stroke-opacity:1" />
      <g
         id="g3705"
         transform="translate(285.67109,-15.556351)">
        <g
           id="g3718"
           transform="translate(1426.9415,-134.35026)">
          <circle
             style="fill:none;stroke:#ff0000;stroke-width:0.80431783"
             id="path3661"
             cx="-730.63562"
             cy="1298.1245"
             r="141.33012" />
          <path
             inkscape:connector-curvature="0"
             style="display:inline;fill:none;stroke:#0000ff;stroke-width:0.6032384"
             d="m -730.6355,1192.1276 a 105.9976,105.9976 0 0 0 -83.86914,41.3906 l 0,129.3242 a 105.9976,105.9976 0 0 0 83.86914,41.2793 105.9976,105.9976 0 0 0 105.99805,-105.998 105.9976,105.9976 0 0 0 -105.99805,-105.9961 z"
             id="path3661-5" />
          <path
             inkscape:connector-curvature="0"
             style="display:inline;fill:none;stroke:#ff00ff;stroke-width:0.61530316"
             d="m -731.13521,1190.3138 a 108.11755,108.11755 0 0 0 -85.54654,42.2184 l 0,131.9107 a 108.11755,108.11755 0 0 0 85.54654,42.1049 108.11755,108.11755 0 0 0 108.11801,-108.118 108.11755,108.11755 0 0 0 -108.11801,-108.116 z"
             id="path3661-5-9" />
          <circle
             style="display:inline;fill:none;stroke:#ff0000;stroke-width:0.80431783"
             id="path3661-3"
             cx="-429.71902"
             cy="1309.7491"
             r="141.33012" />
        </g>
        <path
           style="display:inline;stroke-width:0.1"
           d="m 366.96755,404.7746 0,0.1114 a 44.29134,44.29134 0 0 0 -0.3086,0.031 44.29134,44.29134 0 0 0 -2.5859,0.2617 44.29134,44.29134 0 0 0 -1.7637,0.2031 44.29134,44.29134 0 0 0 -2.9375,0.5996 44.29134,44.29134 0 0 0 -1.3359,0.293 44.29134,44.29134 0 0 0 -3.2539,1.0097 44.29134,44.29134 0 0 0 -0.9121,0.2989 44.29134,44.29134 0 0 0 -3.4141,1.4453 44.29134,44.29134 0 0 0 -0.623,0.2754 44.29134,44.29134 0 0 0 -3.4727,1.9004 44.29134,44.29134 0 0 0 -0.377,0.2148 44.29134,44.29134 0 0 0 -3.4667,2.375 44.29134,44.29134 0 0 0 -0.1524,0.1074 44.29134,44.29134 0 0 0 -2.873,2.3477 l -0.057,-0.055 -1.5528,1.5527 -1.5781,1.5782 0.078,0.08 a 44.29134,44.29134 0 0 0 -0.1855,0.2285 44.29134,44.29134 0 0 0 -1.7032,2.0859 44.29134,44.29134 0 0 0 -1.0488,1.3242 44.29134,44.29134 0 0 0 -1.6504,2.4942 44.29134,44.29134 0 0 0 -0.75,1.1679 44.29134,44.29134 0 0 0 -1.5312,2.9121 44.29134,44.29134 0 0 0 -0.4961,0.9766 44.29134,44.29134 0 0 0 -1.3633,3.3672 44.29134,44.29134 0 0 0 -0.2656,0.6875 44.29134,44.29134 0 0 0 -1.1231,3.8418 44.29134,44.29134 0 0 0 -0.1,0.3613 44.29134,44.29134 0 0 0 -0.7988,4.2793 44.29134,44.29134 0 0 0 0,0.02 44.29134,44.29134 0 0 0 -0.375,3.7168 l -0.078,0 0,2.1973 0,2.2324 0.1113,0 a 44.29134,44.29134 0 0 0 0.031,0.3086 44.29134,44.29134 0 0 0 0.2617,2.5937 44.29134,44.29134 0 0 0 0.2032,1.7559 44.29134,44.29134 0 0 0 0.6035,2.9531 44.29134,44.29134 0 0 0 0.2871,1.3164 44.29134,44.29134 0 0 0 1.0156,3.2696 44.29134,44.29134 0 0 0 0.2949,0.9003 44.29134,44.29134 0 0 0 1.4453,3.4141 44.29134,44.29134 0 0 0 0.2754,0.6231 44.29134,44.29134 0 0 0 1.9258,3.5175 44.29134,44.29134 0 0 0 0.1836,0.3243 44.29134,44.29134 0 0 0 2.4395,3.5605 44.29134,44.29134 0 0 0 0.037,0.053 44.29134,44.29134 0 0 0 2.3359,2.8613 l -0.057,0.057 1.5781,1.5782 1.5528,1.5546 0.078,-0.078 a 44.29134,44.29134 0 0 0 0.2519,0.2051 44.29134,44.29134 0 0 0 1.9883,1.627 44.29134,44.29134 0 0 0 1.4258,1.1289 44.29134,44.29134 0 0 0 2.4336,1.6113 44.29134,44.29134 0 0 0 1.2129,0.7774 44.29134,44.29134 0 0 0 2.8398,1.498 44.29134,44.29134 0 0 0 1.0566,0.5371 44.29134,44.29134 0 0 0 3.2051,1.3008 44.29134,44.29134 0 0 0 0.8594,0.332 44.29134,44.29134 0 0 0 3.5918,1.0547 44.29134,44.29134 0 0 0 0.6172,0.1699 44.29134,44.29134 0 0 0 3.9804,0.7461 44.29134,44.29134 0 0 0 0.3243,0.055 44.29134,44.29134 0 0 0 3.6679,0.3731 l 0,0.08 2.2325,0 2.1972,0 0,-0.1094 a 44.29134,44.29134 0 0 0 0.291,-0.029 44.29134,44.29134 0 0 0 2.7852,-0.2812 44.29134,44.29134 0 0 0 1.5449,-0.1778 44.29134,44.29134 0 0 0 3.0918,-0.625 44.29134,44.29134 0 0 0 1.207,-0.2637 44.29134,44.29134 0 0 0 3.2696,-1.0117 44.29134,44.29134 0 0 0 0.914,-0.2968 44.29134,44.29134 0 0 0 3.4668,-1.4668 44.29134,44.29134 0 0 0 0.5567,-0.2461 44.29134,44.29134 0 0 0 3.5996,-1.9668 44.29134,44.29134 0 0 0 0.2422,-0.1368 44.29134,44.29134 0 0 0 3.5586,-2.4335 44.29134,44.29134 0 0 0 0.062,-0.043 44.29134,44.29134 0 0 0 0.01,-0.01 44.29134,44.29134 0 0 0 2.8867,-2.3536 l 0.057,0.057 1.5781,-1.5781 1.5547,-1.5547 -0.078,-0.076 a 44.29134,44.29134 0 0 0 0.2012,-0.2461 44.29134,44.29134 0 0 0 1.6093,-1.9687 44.29134,44.29134 0 0 0 1.1426,-1.4395 44.29134,44.29134 0 0 0 1.586,-2.3926 44.29134,44.29134 0 0 0 0.8125,-1.2656 44.29134,44.29134 0 0 0 1.5019,-2.8496 44.29134,44.29134 0 0 0 0.5215,-1.0273 44.29134,44.29134 0 0 0 1.3516,-3.3321 44.29134,44.29134 0 0 0 0.2812,-0.7226 44.29134,44.29134 0 0 0 1.0977,-3.7383 44.29134,44.29134 0 0 0 0.1308,-0.4746 44.29134,44.29134 0 0 0 0.7637,-4.0703 44.29134,44.29134 0 0 0 0.043,-0.2461 44.29134,44.29134 0 0 0 0.373,-3.6836 l 0.08,0 0,-2.2324 0,-2.1973 -0.1093,0 a 44.29134,44.29134 0 0 0 -0.031,-0.3125 44.29134,44.29134 0 0 0 -0.2637,-2.6133 44.29134,44.29134 0 0 0 -0.1973,-1.7207 44.29134,44.29134 0 0 0 -0.5898,-2.914 44.29134,44.29134 0 0 0 -0.3028,-1.3848 44.29134,44.29134 0 0 0 -0.955,-3.0859 44.29134,44.29134 0 0 0 -0.3575,-1.0996 44.29134,44.29134 0 0 0 -1.3867,-3.2754 44.29134,44.29134 0 0 0 -0.3281,-0.7481 44.29134,44.29134 0 0 0 -1.8652,-3.4121 44.29134,44.29134 0 0 0 -0.2422,-0.4277 44.29134,44.29134 0 0 0 -2.3614,-3.4532 44.29134,44.29134 0 0 0 -0.1171,-0.166 44.29134,44.29134 0 0 0 -2.3672,-2.8965 l 0.057,-0.055 -1.5547,-1.5546 -1.5781,-1.5782 -0.078,0.076 a 44.29134,44.29134 0 0 0 -0.2227,-0.1816 44.29134,44.29134 0 0 0 -2.1191,-1.7285 44.29134,44.29134 0 0 0 -1.2735,-1.0118 44.29134,44.29134 0 0 0 -2.5761,-1.7031 44.29134,44.29134 0 0 0 -1.0938,-0.7012 44.29134,44.29134 0 0 0 -3.0644,-1.6132 44.29134,44.29134 0 0 0 -0.8067,-0.4102 44.29134,44.29134 0 0 0 -3.4746,-1.4082 44.29134,44.29134 0 0 0 -0.5996,-0.2324 44.29134,44.29134 0 0 0 -3.8984,-1.1387 44.29134,44.29134 0 0 0 -0.3086,-0.086 44.29134,44.29134 0 0 0 -4.2813,-0.7988 44.29134,44.29134 0 0 0 -0.027,-0.01 44.29134,44.29134 0 0 0 -3.7148,-0.375 l 0,-0.078 -2.1973,0 -2.2324,0 z m 4.4297,7.6914 a 36.737587,36.737587 0 0 1 0.2422,0.01 36.737587,36.737587 0 0 1 2.2812,0.252 36.737587,36.737587 0 0 1 1.3165,0.166 36.737587,36.737587 0 0 1 2.4609,0.5234 36.737587,36.737587 0 0 1 1.1055,0.254 36.737587,36.737587 0 0 1 2.6328,0.8437 36.737587,36.737587 0 0 1 0.8125,0.2734 36.737587,36.737587 0 0 1 2.8437,1.2383 36.737587,36.737587 0 0 1 0.4766,0.2149 36.737587,36.737587 0 0 1 2.9297,1.6386 36.737587,36.737587 0 0 1 0.2422,0.1407 36.737587,36.737587 0 0 1 2.9765,2.082 36.737587,36.737587 0 0 1 1.7696,1.5234 l -22.0899,22.0899 0,-31.2461 z m -4.4297,0.022 0,31.2403 -22.0957,-22.0957 a 36.737587,36.737587 0 0 1 0.1582,-0.1504 36.737587,36.737587 0 0 1 1.8985,-1.5196 36.737587,36.737587 0 0 1 0.9453,-0.7363 36.737587,36.737587 0 0 1 2.2851,-1.4805 36.737587,36.737587 0 0 1 0.7657,-0.4804 36.737587,36.737587 0 0 1 2.6835,-1.3809 36.737587,36.737587 0 0 1 0.5489,-0.2715 36.737587,36.737587 0 0 1 3.0273,-1.1933 36.737587,36.737587 0 0 1 0.3594,-0.1348 36.737587,36.737587 0 0 1 3.4648,-0.9766 36.737587,36.737587 0 0 1 0.016,0 36.737587,36.737587 0 0 1 5.9414,-0.8164 z m 29.6699,12.25 a 36.737587,36.737587 0 0 1 0.1407,0.1485 36.737587,36.737587 0 0 1 1.5644,1.9531 36.737587,36.737587 0 0 1 0.6914,0.8906 36.737587,36.737587 0 0 1 1.5117,2.3321 36.737587,36.737587 0 0 1 0.4551,0.7226 36.737587,36.737587 0 0 1 1.4219,2.7656 36.737587,36.737587 0 0 1 0.2266,0.4571 36.737587,36.737587 0 0 1 1.2187,3.0957 36.737587,36.737587 0 0 1 0.1133,0.2968 36.737587,36.737587 0 0 1 0.9844,3.4903 36.737587,36.737587 0 0 1 0.8164,5.9785 l -31.2774,0 22.1328,-22.1309 z m -54.8808,0.043 22.0879,22.0879 -31.2403,0 a 36.737587,36.737587 0 0 1 0.01,-0.2949 36.737587,36.737587 0 0 1 0.2227,-2.0234 36.737587,36.737587 0 0 1 0.1992,-1.5723 36.737587,36.737587 0 0 1 0.5078,-2.3711 36.737587,36.737587 0 0 1 0.2637,-1.1504 36.737587,36.737587 0 0 1 0.8418,-2.625 36.737587,36.737587 0 0 1 0.2793,-0.8281 36.737587,36.737587 0 0 1 1.2051,-2.7676 36.737587,36.737587 0 0 1 0.2519,-0.5566 36.737587,36.737587 0 0 1 1.5703,-2.8067 36.737587,36.737587 0 0 1 0.2149,-0.3711 36.737587,36.737587 0 0 1 2.0664,-2.9511 36.737587,36.737587 0 0 1 1.5215,-1.7696 z m -9.1309,26.5176 31.1875,0 -22.0683,22.0664 a 36.737587,36.737587 0 0 1 -0.1641,-0.1758 36.737587,36.737587 0 0 1 -1.4668,-1.8359 36.737587,36.737587 0 0 1 -0.7734,-0.9961 36.737587,36.737587 0 0 1 -1.5098,-2.3359 36.737587,36.737587 0 0 1 -0.4394,-0.7012 36.737587,36.737587 0 0 1 -1.4239,-2.7754 36.737587,36.737587 0 0 1 -0.2265,-0.457 36.737587,36.737587 0 0 1 -1.2774,-3.25 36.737587,36.737587 0 0 1 -0.041,-0.1153 36.737587,36.737587 0 0 1 -1.7969,-9.4238 z m 41.9141,0 31.2637,0 a 36.737587,36.737587 0 0 1 0,0.1172 36.737587,36.737587 0 0 1 -0.3496,3.1406 36.737587,36.737587 0 0 1 -0.059,0.4531 36.737587,36.737587 0 0 1 -0.711,3.3184 36.737587,36.737587 0 0 1 -0.057,0.2441 36.737587,36.737587 0 0 1 -1.0918,3.4043 36.737587,36.737587 0 0 1 -0.019,0.059 36.737587,36.737587 0 0 1 0,0.01 36.737587,36.737587 0 0 1 -6.8906,11.3321 l -22.0781,-22.0781 z m -7.5723,3.1035 0,31.2617 a 36.737587,36.737587 0 0 1 -0.1914,-0.01 36.737587,36.737587 0 0 1 -2.6738,-0.2988 36.737587,36.737587 0 0 1 -0.916,-0.1152 36.737587,36.737587 0 0 1 -2.9473,-0.6328 36.737587,36.737587 0 0 1 -0.5976,-0.1368 36.737587,36.737587 0 0 1 -3.1973,-1.0293 36.737587,36.737587 0 0 1 -0.2481,-0.084 36.737587,36.737587 0 0 1 -3.33,-1.4531 36.737587,36.737587 0 0 1 -7.9786,-5.4258 l 22.0801,-22.08 z m 4.4297,0.019 22.1016,22.1016 a 36.737587,36.737587 0 0 1 -0.1309,0.125 36.737587,36.737587 0 0 1 -2.0957,1.6758 36.737587,36.737587 0 0 1 -0.748,0.58 36.737587,36.737587 0 0 1 -2.502,1.6172 36.737587,36.737587 0 0 1 -0.5469,0.3438 36.737587,36.737587 0 0 1 -2.9589,1.5176 36.737587,36.737587 0 0 1 -0.2657,0.1308 36.737587,36.737587 0 0 1 -3.3633,1.3223 36.737587,36.737587 0 0 1 -0.014,0.01 36.737587,36.737587 0 0 1 -9.4746,1.8008 l 0,-31.2207 z"
           id="path3355-9-1"
           inkscape:connector-curvature="0" />
        <path
           id="path3355-9-1-7-75"
           d="m 251.13265,408.0926 0,0.1113 a 44.291651,44.29134 0 0 0 -41.9808,41.9824 l -0.078,0 0,2.1973 0,2.2323 0.1113,0 a 44.291651,44.29134 0 0 0 41.9476,41.9786 l 0,0.08 2.2324,0 2.1973,0 0,-0.1094 a 44.291651,44.29134 0 0 0 42.014,-41.9492 l 0.08,0 0,-2.2324 0,-2.1972 -0.1094,0 a 44.291651,44.29134 0 0 0 -41.9847,-42.0156 l 0,-0.078 -2.1973,0 -2.2324,0 z m 0,7.6426 0,34.4511 -34.389,0 a 36.737845,36.737587 0 0 1 34.389,-34.4511 z m 4.4297,0.027 a 36.737845,36.737587 0 0 1 34.4573,34.4238 l -34.4573,0 0,-34.4238 z m -38.846,38.8534 34.4163,0 0,34.3809 a 36.737845,36.737587 0 0 1 -34.4163,-34.3809 z m 38.846,0 34.4162,0 a 36.737845,36.737587 0 0 1 -34.4162,34.4219 l 0,-34.4219 z"
           style="display:inline;fill:none;stroke:#0000ff;stroke-width:1"
           inkscape:connector-curvature="0" />
        <g
           style="display:inline"
           id="g3806"
           transform="translate(801.47639,-493.98435)">
          <path
             sodipodi:nodetypes="cccc"
             inkscape:connector-curvature="0"
             id="rect3726-1"
             d="m -133.0343,697.18286 c -109.79266,152.77979 -96.76146,172.83834 -96.76146,355.14004 l 192.842338,0 C -14.055493,872.48745 -51.664376,836.90418 -133.0343,697.18286 Z"
             style="display:inline;fill:none;stroke:#ff0000;stroke-width:0.75" />
          <path
             sodipodi:nodetypes="cccc"
             inkscape:connector-curvature="0"
             id="rect3726-1-9"
             d="m -134.33428,749.8076 c -88.93205,123.75163 -78.37678,139.99905 -78.37678,287.6634 l 156.202297,0 C -37.96144,891.80432 -68.424633,862.98187 -134.33428,749.8076 Z"
             style="display:inline;fill:none;stroke:#ff00ff;stroke-width:0.75" />
          <path
             sodipodi:nodetypes="cccc"
             inkscape:connector-curvature="0"
             id="rect3726-1-5"
             d="m 89.957801,696.84723 c -109.79266,152.77979 -96.76146,172.83834 -96.76146,355.14007 l 192.842339,0 C 208.93661,872.15182 171.32772,836.56855 89.957801,696.84723 Z"
             style="display:inline;fill:none;stroke:#ff0000;stroke-width:0.75" />
        </g>
        <text
           xml:space="preserve"
           style="font-style:normal;font-weight:normal;font-size:40px;line-height:125%;font-family:sans-serif;letter-spacing:0px;word-spacing:0px;display:inline;fill:#000000;fill-opacity:1;stroke:none;stroke-width:1px;stroke-linecap:butt;stroke-linejoin:miter;stroke-opacity:1"
           x="-500.63141"
           y="381.90073"
           id="text3585"
           sodipodi:linespacing="125%"><tspan
             sodipodi:role="line"
             id="tspan3587"
             x="-500.63141"
             y="381.90073">Directions:</tspan><tspan
             sodipodi:role="line"
             x="-500.63141"
             y="431.90073"
             id="tspan3597">1) Score Green</tspan><tspan
             sodipodi:role="line"
             x="-500.63141"
             y="481.90073"
             id="tspan3593">2) Cut Blue, 3) Cut Purple </tspan><tspan
             sodipodi:role="line"
             x="-500.63141"
             y="531.9007"
             id="tspan3716">4) Cut red</tspan><tspan
             sodipodi:role="line"
             x="-500.63141"
             y="581.9007"
             id="tspan3591" /></text>
      </g>
    </g>
    <path
       style="fill:none;fill-rule:evenodd;stroke:#ff0000;stroke-width:1.01125109px;stroke-linecap:butt;stroke-linejoin:miter;stroke-opacity:1"
       d="m 1317.2496,952.28018 c 219.0461,0 219.0461,-0.1673 219.0461,-0.1673"
       id="path3639"
       inkscape:connector-curvature="0" />
  </g>
</svg>
