999
DXF created by Inkscape
  0
SECTION
  2
HEADER
  9
$ACADVER
  1
AC1014
  9
$HANDSEED
  5
FFFF
  9
$MEASUREMENT
 70
     1
  0
ENDSEC
  0
SECTION
  2
TABLES
  0
TABLE
  2
VPORT
  5
8
330
0
100
AcDbSymbolTable
 70
     4
  0
VPORT
  5
2E
330
8
100
AcDbSymbolTableRecord
100
AcDbViewportTableRecord
  2
*ACTIVE
 70
     0
 10
0.0
 20
0.0
 11
1.0
 21
1.0
 12
210.0
 22
148.5
 13
0.0
 23
0.0
 14
10.0
 24
10.0
 15
10.0
 25
10.0
 16
0.0
 26
0.0
 36
1.0
 17
0.0
 27
0.0
 37
0.0
 40
341.0
 41
1.24
 42
50.0
 43
0.0
 44
0.0
 50
0.0
 51
0.0
 71
     0
 72
   100
 73
     1
 74
     3
 75
     0
 76
     0
 77
     0
 78
     0
  0
ENDTAB
  0
TABLE
  2
LTYPE
  5
5
330
0
100
AcDbSymbolTable
 70
     1
  0
LTYPE
  5
14
330
5
100
AcDbSymbolTableRecord
100
AcDbLinetypeTableRecord
  2
BYBLOCK
 70
     0
  3

 72
    65
 73
     0
 40
0.0
  0
LTYPE
  5
15
330
5
100
AcDbSymbolTableRecord
100
AcDbLinetypeTableRecord
  2
BYLAYER
 70
     0
  3

 72
    65
 73
     0
 40
0.0
  0
LTYPE
  5
16
330
5
100
AcDbSymbolTableRecord
100
AcDbLinetypeTableRecord
  2
CONTINUOUS
 70
     0
  3
Solid line
 72
    65
 73
     0
 40
0.0
  0
ENDTAB
  0
TABLE
  2
LAYER
  5
2
100
AcDbSymbolTable
 70
2
  0
LAYER
  5
50
100
AcDbSymbolTableRecord
100
AcDbLayerTableRecord
  2
0
 70
0
  6
CONTINUOUS
  0
LAYER
  5
51
100
AcDbSymbolTableRecord
100
AcDbLayerTableRecord
  2
Layer_1
 70
0
  6
CONTINUOUS
  0
ENDTAB
  0
TABLE
  2
STYLE
  5
3
330
0
100
AcDbSymbolTable
 70
     1
  0
STYLE
  5
11
330
3
100
AcDbSymbolTableRecord
100
AcDbTextStyleTableRecord
  2
STANDARD
 70
     0
 40
0.0
 41
1.0
 50
0.0
 71
     0
 42
2.5
  3
txt
  4

  0
ENDTAB
  0
TABLE
  2
VIEW
  5
6
330
0
100
AcDbSymbolTable
 70
     0
  0
ENDTAB
  0
TABLE
  2
UCS
  5
7
330
0
100
AcDbSymbolTable
 70
     0
  0
ENDTAB
  0
TABLE
  2
APPID
  5
9
330
0
100
AcDbSymbolTable
 70
     2
  0
APPID
  5
12
330
9
100
AcDbSymbolTableRecord
100
AcDbRegAppTableRecord
  2
ACAD
 70
     0
  0
ENDTAB
  0
TABLE
  2
DIMSTYLE
  5
A
330
0
100
AcDbSymbolTable
 70
     1
  0
DIMSTYLE
105
27
330
A
100
AcDbSymbolTableRecord
100
AcDbDimStyleTableRecord
  2
ISO-25
 70
     0
  3

  4

  5

  6

  7

 40
1.0
 41
2.5
 42
0.625
 43
3.75
 44
1.25
 45
0.0
 46
0.0
 47
0.0
 48
0.0
140
2.5
141
2.5
142
0.0
143
0.03937007874016
144
1.0
145
0.0
146
1.0
147
0.625
 71
     0
 72
     0
 73
     0
 74
     0
 75
     0
 76
     0
 77
     1
 78
     8
170
     0
171
     3
172
     1
173
     0
174
     0
175
     0
176
     0
177
     0
178
     0
270
     2
271
     2
272
     2
273
     2
274
     3
340
11
275
     0
280
     0
281
     0
282
     0
283
     0
284
     8
285
     0
286
     0
287
     3
288
     0
  0
ENDTAB
  0
TABLE
  2
BLOCK_RECORD
  5
1
330
0
100
AcDbSymbolTable
 70
     1
  0
BLOCK_RECORD
  5
1F
330
1
100
AcDbSymbolTableRecord
100
AcDbBlockTableRecord
  2
*MODEL_SPACE
  0
BLOCK_RECORD
  5
1B
330
1
100
AcDbSymbolTableRecord
100
AcDbBlockTableRecord
  2
*PAPER_SPACE
  0
ENDTAB
  0
ENDSEC
  0
SECTION
  2
BLOCKS
  0
BLOCK
  5
20
330
1F
100
AcDbEntity
  8
0
100
AcDbBlockBegin
  2
*MODEL_SPACE
 70
     0
 10
0.0
 20
0.0
 30
0.0
  3
*MODEL_SPACE
  1

  0
ENDBLK
  5
21
330
1F
100
AcDbEntity
  8
0
100
AcDbBlockEnd
  0
BLOCK
  5
1C
330
1B
100
AcDbEntity
 67
     1
  8
0
100
AcDbBlockBegin
  2
*PAPER_SPACE
  1

  0
ENDBLK
  5
1D
330
1B
100
AcDbEntity
 67
     1
  8
0
100
AcDbBlockEnd
  0
ENDSEC
  0
SECTION
  2
ENTITIES
  0
LWPOLYLINE
  5
100
100
AcDbEntity
  8
Layer_1
 62
1
100
AcDbPolyline
 90
2
 70
0
 10
10.963746
 20
109.148807
 30
0.0
 10
10.963746
 20
100.246418
 30
0.0
  0
LWPOLYLINE
  5
101
100
AcDbEntity
  8
Layer_1
 62
1
100
AcDbPolyline
 90
2
 70
0
 10
22.161071
 20
110.553653
 30
0.0
 10
10.963746
 20
100.246418
 30
0.0
  0
LWPOLYLINE
  5
102
100
AcDbEntity
  8
Layer_1
 62
1
100
AcDbPolyline
 90
2
 70
0
 10
18.137464
 20
115.733153
 30
0.0
 10
10.963746
 20
109.148807
 30
0.0
  0
LWPOLYLINE
  5
103
100
AcDbEntity
  8
Layer_1
 62
1
100
AcDbPolyline
 90
2
 70
0
 10
49.168662
 20
132.539810
 30
0.0
 10
52.913867
 20
132.539810
 30
0.0
  0
LWPOLYLINE
  5
104
100
AcDbEntity
  8
Layer_1
 62
1
100
AcDbPolyline
 90
2
 70
0
 10
79.921490
 20
110.553653
 30
0.0
 10
91.118784
 20
100.246418
 30
0.0
  0
LWPOLYLINE
  5
105
100
AcDbEntity
  8
Layer_1
 62
1
100
AcDbPolyline
 90
2
 70
0
 10
83.945090
 20
115.733153
 30
0.0
 10
91.118784
 20
109.148807
 30
0.0
  0
LWPOLYLINE
  5
106
100
AcDbEntity
  8
Layer_1
 62
1
100
AcDbPolyline
 90
2
 70
0
 10
91.118784
 20
100.246418
 30
0.0
 10
91.118784
 20
109.148807
 30
0.0
  0
SPLINE
  5
107
100
AcDbEntity
  8
Layer_1
 62
7
100
AcDbSpline
 70
8
 71
3
 72
8
 73
4
 74
0
 40
0
 40
0
 40
0
 40
0
 40
1
 40
1
 40
1
 40
1
 10
57.282310
 20
100.610698
 30
0.0
 10
57.282310
 20
104.472433
 30
0.0
 10
54.151758
 20
107.602985
 30
0.0
 10
50.290024
 20
107.602985
 30
0.0
  0
SPLINE
  5
108
100
AcDbEntity
  8
Layer_1
 62
7
100
AcDbSpline
 70
8
 71
3
 72
8
 73
4
 74
0
 40
0
 40
0
 40
0
 40
0
 40
1
 40
1
 40
1
 40
1
 10
50.290024
 20
107.602985
 30
0.0
 10
46.428289
 20
107.602985
 30
0.0
 10
43.297737
 20
104.472433
 30
0.0
 10
43.297737
 20
100.610698
 30
0.0
  0
SPLINE
  5
109
100
AcDbEntity
  8
Layer_1
 62
7
100
AcDbSpline
 70
8
 71
3
 72
8
 73
4
 74
0
 40
0
 40
0
 40
0
 40
0
 40
1
 40
1
 40
1
 40
1
 10
43.297737
 20
100.610698
 30
0.0
 10
43.297737
 20
96.748964
 30
0.0
 10
46.428289
 20
93.618411
 30
0.0
 10
50.290024
 20
93.618411
 30
0.0
  0
SPLINE
  5
10a
100
AcDbEntity
  8
Layer_1
 62
7
100
AcDbSpline
 70
8
 71
3
 72
8
 73
4
 74
0
 40
0
 40
0
 40
0
 40
0
 40
1
 40
1
 40
1
 40
1
 10
50.290024
 20
93.618411
 30
0.0
 10
54.151758
 20
93.618411
 30
0.0
 10
57.282310
 20
96.748964
 30
0.0
 10
57.282310
 20
100.610698
 30
0.0
  0
LWPOLYLINE
  5
10b
100
AcDbEntity
  8
Layer_1
 62
1
100
AcDbPolyline
 90
2
 70
0
 10
22.846453
 20
5.740236
 30
0.0
 10
79.236085
 20
5.740236
 30
0.0
  0
LWPOLYLINE
  5
10c
100
AcDbEntity
  8
Layer_1
 62
7
100
AcDbPolyline
 90
2
 70
0
 10
57.282310
 20
100.610698
 30
0.0
 10
57.282310
 20
100.610698
 30
0.0
  0
LWPOLYLINE
  5
10d
100
AcDbEntity
  8
Layer_1
 62
3
100
AcDbPolyline
 90
10
 70
0
 10
22.161071
 20
110.553653
 30
0.0
 10
22.161071
 20
110.553653
 30
0.0
 10
27.081109
 20
114.375719
 30
0.0
 10
30.949970
 20
117.298509
 30
0.0
 10
34.106123
 20
119.506028
 30
0.0
 10
36.887969
 20
121.182254
 30
0.0
 10
39.633953
 20
122.511193
 30
0.0
 10
42.682579
 20
123.676816
 30
0.0
 10
46.372164
 20
124.863119
 30
0.0
 10
51.041277
 20
126.254106
 30
0.0
  0
SPLINE
  5
10e
100
AcDbEntity
  8
Layer_1
 62
1
100
AcDbSpline
 70
8
 71
3
 72
8
 73
4
 74
0
 40
0
 40
0
 40
0
 40
0
 40
1
 40
1
 40
1
 40
1
 10
23.057477
 20
119.555219
 30
0.0
 10
23.080722
 20
119.573254
 30
0.0
 10
23.104128
 20
119.591209
 30
0.0
 10
23.127613
 20
119.608923
 30
0.0
  0
LWPOLYLINE
  5
10f
100
AcDbEntity
  8
Layer_1
 62
1
100
AcDbPolyline
 90
2
 70
0
 10
18.137464
 20
115.733153
 30
0.0
 10
23.057477
 20
119.555219
 30
0.0
  0
SPLINE
  5
110
100
AcDbEntity
  8
Layer_1
 62
1
100
AcDbSpline
 70
8
 71
3
 72
8
 73
4
 74
0
 40
0
 40
0
 40
0
 40
0
 40
1
 40
1
 40
1
 40
1
 10
26.996498
 20
122.531729
 30
0.0
 10
27.060381
 20
122.579982
 30
0.0
 10
27.125211
 20
122.627130
 30
0.0
 10
27.190866
 20
122.673042
 30
0.0
  0
LWPOLYLINE
  5
111
100
AcDbEntity
  8
Layer_1
 62
1
100
AcDbPolyline
 90
2
 70
0
 10
23.127613
 20
119.608923
 30
0.0
 10
26.996498
 20
122.531729
 30
0.0
  0
SPLINE
  5
112
100
AcDbEntity
  8
Layer_1
 62
1
100
AcDbSpline
 70
8
 71
3
 72
8
 73
4
 74
0
 40
0
 40
0
 40
0
 40
0
 40
1
 40
1
 40
1
 40
1
 10
30.346995
 20
124.880577
 30
0.0
 10
30.468911
 20
124.965846
 30
0.0
 10
30.593713
 20
125.046947
 30
0.0
 10
30.721159
 20
125.123735
 30
0.0
  0
LWPOLYLINE
  5
113
100
AcDbEntity
  8
Layer_1
 62
1
100
AcDbPolyline
 90
2
 70
0
 10
27.190866
 20
122.673042
 30
0.0
 10
30.346995
 20
124.880577
 30
0.0
  0
SPLINE
  5
114
100
AcDbEntity
  8
Layer_1
 62
1
100
AcDbSpline
 70
8
 71
3
 72
8
 73
4
 74
0
 40
0
 40
0
 40
0
 40
0
 40
1
 40
1
 40
1
 40
1
 10
33.502981
 20
126.799962
 30
0.0
 10
33.674480
 20
126.903298
 30
0.0
 10
33.850653
 20
126.998731
 30
0.0
 10
34.030882
 20
127.085963
 30
0.0
  0
LWPOLYLINE
  5
115
100
AcDbEntity
  8
Layer_1
 62
1
100
AcDbPolyline
 90
2
 70
0
 10
30.721159
 20
125.123735
 30
0.0
 10
33.502981
 20
126.799962
 30
0.0
  0
SPLINE
  5
116
100
AcDbEntity
  8
Layer_1
 62
1
100
AcDbSpline
 70
8
 71
3
 72
8
 73
4
 74
0
 40
0
 40
0
 40
0
 40
0
 40
1
 40
1
 40
1
 40
1
 10
36.776866
 20
128.414886
 30
0.0
 10
36.945208
 20
128.496356
 30
0.0
 10
37.116980
 20
128.570587
 30
0.0
 10
37.291654
 20
128.637381
 30
0.0
  0
LWPOLYLINE
  5
117
100
AcDbEntity
  8
Layer_1
 62
1
100
AcDbPolyline
 90
2
 70
0
 10
34.030882
 20
127.085963
 30
0.0
 10
36.776866
 20
128.414886
 30
0.0
  0
SPLINE
  5
118
100
AcDbEntity
  8
Layer_1
 62
1
100
AcDbSpline
 70
8
 71
3
 72
8
 73
4
 74
0
 40
0
 40
0
 40
0
 40
0
 40
1
 40
1
 40
1
 40
1
 10
40.340255
 20
129.803012
 30
0.0
 10
40.450749
 20
129.845253
 30
0.0
 10
40.562389
 20
129.884513
 30
0.0
 10
40.675007
 20
129.920727
 30
0.0
  0
LWPOLYLINE
  5
119
100
AcDbEntity
  8
Layer_1
 62
1
100
AcDbPolyline
 90
2
 70
0
 10
37.291654
 20
128.637381
 30
0.0
 10
40.340255
 20
129.803012
 30
0.0
  0
SPLINE
  5
11a
100
AcDbEntity
  8
Layer_1
 62
1
100
AcDbSpline
 70
8
 71
3
 72
8
 73
4
 74
0
 40
0
 40
0
 40
0
 40
0
 40
1
 40
1
 40
1
 40
1
 10
44.364617
 20
131.107038
 30
0.0
 10
44.409423
 20
131.121466
 30
0.0
 10
44.454463
 20
131.135413
 30
0.0
 10
44.499622
 20
131.148879
 30
0.0
  0
LWPOLYLINE
  5
11b
100
AcDbEntity
  8
Layer_1
 62
1
100
AcDbPolyline
 90
2
 70
0
 10
40.675007
 20
129.920727
 30
0.0
 10
44.364617
 20
131.107038
 30
0.0
  0
LWPOLYLINE
  5
11c
100
AcDbEntity
  8
Layer_1
 62
1
100
AcDbPolyline
 90
2
 70
0
 10
44.499622
 20
131.148879
 30
0.0
 10
49.168686
 20
132.539850
 30
0.0
  0
LWPOLYLINE
  5
11d
100
AcDbEntity
  8
Layer_1
 62
7
100
AcDbPolyline
 90
9
 70
0
 10
29.287113
 20
107.784216
 30
0.0
 10
31.069834
 20
109.169127
 30
0.0
 10
34.807600
 20
111.992845
 30
0.0
 10
37.682330
 20
114.003535
 30
0.0
 10
40.015579
 20
115.409455
 30
0.0
 10
42.238456
 20
116.485232
 30
0.0
 10
44.859125
 20
117.487242
 30
0.0
 10
48.312486
 20
118.597590
 30
0.0
 10
51.041277
 20
119.410531
 30
0.0
  0
LWPOLYLINE
  5
11e
100
AcDbEntity
  8
Layer_1
 62
3
100
AcDbPolyline
 90
10
 70
0
 10
79.921490
 20
110.553653
 30
0.0
 10
79.921490
 20
110.553653
 30
0.0
 10
75.001420
 20
114.375719
 30
0.0
 10
71.132560
 20
117.298509
 30
0.0
 10
67.976406
 20
119.506028
 30
0.0
 10
65.194561
 20
121.182254
 30
0.0
 10
62.448577
 20
122.511193
 30
0.0
 10
59.399951
 20
123.676816
 30
0.0
 10
55.710341
 20
124.863119
 30
0.0
 10
51.041277
 20
126.254106
 30
0.0
  0
SPLINE
  5
11f
100
AcDbEntity
  8
Layer_1
 62
1
100
AcDbSpline
 70
8
 71
3
 72
8
 73
4
 74
0
 40
0
 40
0
 40
0
 40
0
 40
1
 40
1
 40
1
 40
1
 10
79.025028
 20
119.555219
 30
0.0
 10
79.001783
 20
119.573254
 30
0.0
 10
78.978458
 20
119.591209
 30
0.0
 10
78.954973
 20
119.608923
 30
0.0
  0
LWPOLYLINE
  5
120
100
AcDbEntity
  8
Layer_1
 62
1
100
AcDbPolyline
 90
2
 70
0
 10
83.945090
 20
115.733153
 30
0.0
 10
79.025028
 20
119.555219
 30
0.0
  0
SPLINE
  5
121
100
AcDbEntity
  8
Layer_1
 62
1
100
AcDbSpline
 70
8
 71
3
 72
8
 73
4
 74
0
 40
0
 40
0
 40
0
 40
0
 40
1
 40
1
 40
1
 40
1
 10
75.086064
 20
122.531729
 30
0.0
 10
75.022100
 20
122.579982
 30
0.0
 10
74.957343
 20
122.627130
 30
0.0
 10
74.891688
 20
122.673042
 30
0.0
  0
LWPOLYLINE
  5
122
100
AcDbEntity
  8
Layer_1
 62
1
100
AcDbPolyline
 90
2
 70
0
 10
78.954973
 20
119.608923
 30
0.0
 10
75.086064
 20
122.531729
 30
0.0
  0
SPLINE
  5
123
100
AcDbEntity
  8
Layer_1
 62
1
100
AcDbSpline
 70
8
 71
3
 72
8
 73
4
 74
0
 40
0
 40
0
 40
0
 40
0
 40
1
 40
1
 40
1
 40
1
 10
71.735583
 20
124.880577
 30
0.0
 10
71.613667
 20
124.965846
 30
0.0
 10
71.488865
 20
125.046947
 30
0.0
 10
71.361427
 20
125.123735
 30
0.0
  0
LWPOLYLINE
  5
124
100
AcDbEntity
  8
Layer_1
 62
1
100
AcDbPolyline
 90
2
 70
0
 10
74.891688
 20
122.673042
 30
0.0
 10
71.735583
 20
124.880577
 30
0.0
  0
SPLINE
  5
125
100
AcDbEntity
  8
Layer_1
 62
1
100
AcDbSpline
 70
8
 71
3
 72
8
 73
4
 74
0
 40
0
 40
0
 40
0
 40
0
 40
1
 40
1
 40
1
 40
1
 10
68.579573
 20
126.799962
 30
0.0
 10
68.408057
 20
126.903298
 30
0.0
 10
68.231933
 20
126.998731
 30
0.0
 10
68.051704
 20
127.085963
 30
0.0
  0
LWPOLYLINE
  5
126
100
AcDbEntity
  8
Layer_1
 62
1
100
AcDbPolyline
 90
2
 70
0
 10
71.361427
 20
125.123735
 30
0.0
 10
68.579573
 20
126.799962
 30
0.0
  0
SPLINE
  5
127
100
AcDbEntity
  8
Layer_1
 62
1
100
AcDbSpline
 70
8
 71
3
 72
8
 73
4
 74
0
 40
0
 40
0
 40
0
 40
0
 40
1
 40
1
 40
1
 40
1
 10
65.305664
 20
128.414886
 30
0.0
 10
65.137322
 20
128.496356
 30
0.0
 10
64.965606
 20
128.570587
 30
0.0
 10
64.790900
 20
128.637381
 30
0.0
  0
LWPOLYLINE
  5
128
100
AcDbEntity
  8
Layer_1
 62
1
100
AcDbPolyline
 90
2
 70
0
 10
68.051704
 20
127.085963
 30
0.0
 10
65.305664
 20
128.414886
 30
0.0
  0
SPLINE
  5
129
100
AcDbEntity
  8
Layer_1
 62
1
100
AcDbSpline
 70
8
 71
3
 72
8
 73
4
 74
0
 40
0
 40
0
 40
0
 40
0
 40
1
 40
1
 40
1
 40
1
 10
61.742330
 20
129.803012
 30
0.0
 10
61.631813
 20
129.845253
 30
0.0
 10
61.520165
 20
129.884513
 30
0.0
 10
61.407547
 20
129.920727
 30
0.0
  0
LWPOLYLINE
  5
12a
100
AcDbEntity
  8
Layer_1
 62
1
100
AcDbPolyline
 90
2
 70
0
 10
64.790900
 20
128.637381
 30
0.0
 10
61.742330
 20
129.803012
 30
0.0
  0
SPLINE
  5
12b
100
AcDbEntity
  8
Layer_1
 62
1
100
AcDbSpline
 70
8
 71
3
 72
8
 73
4
 74
0
 40
0
 40
0
 40
0
 40
0
 40
1
 40
1
 40
1
 40
1
 10
57.717937
 20
131.107038
 30
0.0
 10
57.673050
 20
131.121466
 30
0.0
 10
57.628115
 20
131.135413
 30
0.0
 10
57.582964
 20
131.148879
 30
0.0
  0
LWPOLYLINE
  5
12c
100
AcDbEntity
  8
Layer_1
 62
1
100
AcDbPolyline
 90
2
 70
0
 10
61.407547
 20
129.920727
 30
0.0
 10
57.717937
 20
131.107038
 30
0.0
  0
LWPOLYLINE
  5
12d
100
AcDbEntity
  8
Layer_1
 62
1
100
AcDbPolyline
 90
2
 70
0
 10
57.582964
 20
131.148879
 30
0.0
 10
52.913867
 20
132.539850
 30
0.0
  0
LWPOLYLINE
  5
12e
100
AcDbEntity
  8
Layer_1
 62
7
100
AcDbPolyline
 90
9
 70
0
 10
72.795449
 20
107.784216
 30
0.0
 10
71.012704
 20
109.169127
 30
0.0
 10
67.274953
 20
111.992845
 30
0.0
 10
64.400200
 20
114.003535
 30
0.0
 10
62.066974
 20
115.409455
 30
0.0
 10
59.844074
 20
116.485232
 30
0.0
 10
57.223428
 20
117.487242
 30
0.0
 10
53.770068
 20
118.597590
 30
0.0
 10
51.041277
 20
119.410531
 30
0.0
  0
LWPOLYLINE
  5
12f
100
AcDbEntity
  8
Layer_1
 62
1
100
AcDbPolyline
 90
17
 70
0
 10
22.846453
 20
5.740236
 30
0.0
 10
23.594677
 20
11.084773
 30
0.0
 10
24.338131
 20
17.289479
 30
0.0
 10
24.984277
 20
23.643483
 30
0.0
 10
25.533195
 20
30.096435
 30
0.0
 10
25.984796
 20
36.597996
 30
0.0
 10
26.339146
 20
43.097820
 30
0.0
 10
26.596235
 20
49.545566
 30
0.0
 10
26.756040
 20
55.890885
 30
0.0
 10
26.813912
 20
62.110066
 30
0.0
 10
26.746742
 20
68.285837
 30
0.0
 10
26.526741
 20
74.527576
 30
0.0
 10
26.126062
 20
80.944654
 30
0.0
 10
25.516947
 20
87.646434
 30
0.0
 10
24.671592
 20
94.742274
 30
0.0
 10
23.562214
 20
102.341559
 30
0.0
 10
22.161047
 20
110.553653
 30
0.0
  0
SPLINE
  5
130
100
AcDbEntity
  8
Layer_1
 62
7
100
AcDbSpline
 70
8
 71
3
 72
8
 73
4
 74
0
 40
0
 40
0
 40
0
 40
0
 40
1
 40
1
 40
1
 40
1
 10
30.090058
 20
10.175415
 30
0.0
 10
30.096471
 20
10.218386
 30
0.0
 10
30.101681
 20
10.261412
 30
0.0
 10
30.106811
 20
10.304491
 30
0.0
  0
LWPOLYLINE
  5
131
100
AcDbEntity
  8
Layer_1
 62
7
100
AcDbPolyline
 90
2
 70
0
 10
29.469129
 20
5.740236
 30
0.0
 10
30.090058
 20
10.175415
 30
0.0
  0
SPLINE
  5
132
100
AcDbEntity
  8
Layer_1
 62
7
100
AcDbSpline
 70
8
 71
3
 72
8
 73
4
 74
0
 40
0
 40
0
 40
0
 40
0
 40
1
 40
1
 40
1
 40
1
 10
30.850241
 20
16.509201
 30
0.0
 10
30.855050
 20
16.548060
 30
0.0
 10
30.859218
 20
16.586967
 30
0.0
 10
30.863146
 20
16.625912
 30
0.0
  0
LWPOLYLINE
  5
133
100
AcDbEntity
  8
Layer_1
 62
7
100
AcDbPolyline
 90
2
 70
0
 10
30.106811
 20
10.304491
 30
0.0
 10
30.850241
 20
16.509201
 30
0.0
  0
SPLINE
  5
134
100
AcDbEntity
  8
Layer_1
 62
7
100
AcDbSpline
 70
8
 71
3
 72
8
 73
4
 74
0
 40
0
 40
0
 40
0
 40
0
 40
1
 40
1
 40
1
 40
1
 10
31.509324
 20
22.979915
 30
0.0
 10
31.513332
 20
23.015777
 30
0.0
 10
31.516538
 20
23.051670
 30
0.0
 10
31.519343
 20
23.087595
 30
0.0
  0
LWPOLYLINE
  5
135
100
AcDbEntity
  8
Layer_1
 62
7
100
AcDbPolyline
 90
2
 70
0
 10
30.863146
 20
16.625912
 30
0.0
 10
31.509324
 20
22.979915
 30
0.0
  0
SPLINE
  5
136
100
AcDbEntity
  8
Layer_1
 62
7
100
AcDbSpline
 70
8
 71
3
 72
8
 73
4
 74
0
 40
0
 40
0
 40
0
 40
0
 40
1
 40
1
 40
1
 40
1
 10
32.068229
 20
29.540550
 30
0.0
 10
32.071435
 20
29.574328
 30
0.0
 10
32.073840
 20
29.608121
 30
0.0
 10
32.076245
 20
29.641940
 30
0.0
  0
LWPOLYLINE
  5
137
100
AcDbEntity
  8
Layer_1
 62
7
100
AcDbPolyline
 90
2
 70
0
 10
31.519343
 20
23.087595
 30
0.0
 10
32.068229
 20
29.540550
 30
0.0
  0
SPLINE
  5
138
100
AcDbEntity
  8
Layer_1
 62
7
100
AcDbSpline
 70
8
 71
3
 72
8
 73
4
 74
0
 40
0
 40
0
 40
0
 40
0
 40
1
 40
1
 40
1
 40
1
 10
32.527870
 20
36.143497
 30
0.0
 10
32.530275
 20
36.175968
 30
0.0
 10
32.531878
 20
36.208463
 30
0.0
 10
32.534283
 20
36.240964
 30
0.0
  0
LWPOLYLINE
  5
139
100
AcDbEntity
  8
Layer_1
 62
7
100
AcDbPolyline
 90
2
 70
0
 10
32.076245
 20
29.641940
 30
0.0
 10
32.527870
 20
36.143497
 30
0.0
  0
SPLINE
  5
13a
100
AcDbEntity
  8
Layer_1
 62
7
100
AcDbSpline
 70
8
 71
3
 72
8
 73
4
 74
0
 40
0
 40
0
 40
0
 40
0
 40
1
 40
1
 40
1
 40
1
 10
32.888632
 20
42.740787
 30
0.0
 10
32.890235
 20
42.772681
 30
0.0
 10
32.891838
 20
42.804599
 30
0.0
 10
32.893441
 20
42.836524
 30
0.0
  0
LWPOLYLINE
  5
13b
100
AcDbEntity
  8
Layer_1
 62
7
100
AcDbPolyline
 90
2
 70
0
 10
32.534283
 20
36.240964
 30
0.0
 10
32.888632
 20
42.740787
 30
0.0
  0
SPLINE
  5
13c
100
AcDbEntity
  8
Layer_1
 62
7
100
AcDbSpline
 70
8
 71
3
 72
8
 73
4
 74
0
 40
0
 40
0
 40
0
 40
0
 40
1
 40
1
 40
1
 40
1
 10
33.150483
 20
49.284275
 30
0.0
 10
33.152086
 20
49.316321
 30
0.0
 10
33.152887
 20
49.348375
 30
0.0
 10
33.153689
 20
49.380439
 30
0.0
  0
LWPOLYLINE
  5
13d
100
AcDbEntity
  8
Layer_1
 62
7
100
AcDbPolyline
 90
2
 70
0
 10
32.893441
 20
42.836524
 30
0.0
 10
33.150483
 20
49.284275
 30
0.0
  0
SPLINE
  5
13e
100
AcDbEntity
  8
Layer_1
 62
7
100
AcDbSpline
 70
8
 71
3
 72
8
 73
4
 74
0
 40
0
 40
0
 40
0
 40
0
 40
1
 40
1
 40
1
 40
1
 10
33.313518
 20
55.725758
 30
0.0
 10
33.314320
 20
55.760441
 30
0.0
 10
33.315121
 20
55.795140
 30
0.0
 10
33.315121
 20
55.829829
 30
0.0
  0
LWPOLYLINE
  5
13f
100
AcDbEntity
  8
Layer_1
 62
7
100
AcDbPolyline
 90
2
 70
0
 10
33.153689
 20
49.380439
 30
0.0
 10
33.313518
 20
55.725758
 30
0.0
  0
SPLINE
  5
140
100
AcDbEntity
  8
Layer_1
 62
7
100
AcDbSpline
 70
8
 71
3
 72
8
 73
4
 74
0
 40
0
 40
0
 40
0
 40
0
 40
1
 40
1
 40
1
 40
1
 10
33.373073
 20
62.049004
 30
0.0
 10
33.373482
 20
62.093089
 30
0.0
 10
33.373458
 20
62.137262
 30
0.0
 10
33.372969
 20
62.181388
 30
0.0
  0
LWPOLYLINE
  5
141
100
AcDbEntity
  8
Layer_1
 62
7
100
AcDbPolyline
 90
2
 70
0
 10
33.315121
 20
55.829829
 30
0.0
 10
33.373073
 20
62.049004
 30
0.0
  0
SPLINE
  5
142
100
AcDbEntity
  8
Layer_1
 62
7
100
AcDbSpline
 70
8
 71
3
 72
8
 73
4
 74
0
 40
0
 40
0
 40
0
 40
0
 40
1
 40
1
 40
1
 40
1
 10
33.305799
 20
68.357159
 30
0.0
 10
33.305238
 20
68.410382
 30
0.0
 10
33.304196
 20
68.463661
 30
0.0
 10
33.301791
 20
68.516884
 30
0.0
  0
LWPOLYLINE
  5
143
100
AcDbEntity
  8
Layer_1
 62
7
100
AcDbPolyline
 90
2
 70
0
 10
33.372969
 20
62.181388
 30
0.0
 10
33.305799
 20
68.357159
 30
0.0
  0
SPLINE
  5
144
100
AcDbEntity
  8
Layer_1
 62
7
100
AcDbSpline
 70
8
 71
3
 72
8
 73
4
 74
0
 40
0
 40
0
 40
0
 40
0
 40
1
 40
1
 40
1
 40
1
 10
33.081758
 20
74.758639
 30
0.0
 10
33.079353
 20
74.817873
 30
0.0
 10
33.076948
 20
74.877124
 30
0.0
 10
33.073021
 20
74.936294
 30
0.0
  0
LWPOLYLINE
  5
145
100
AcDbEntity
  8
Layer_1
 62
7
100
AcDbPolyline
 90
2
 70
0
 10
33.301791
 20
68.516884
 30
0.0
 10
33.081758
 20
74.758639
 30
0.0
  0
SPLINE
  5
146
100
AcDbEntity
  8
Layer_1
 62
7
100
AcDbSpline
 70
8
 71
3
 72
8
 73
4
 74
0
 40
0
 40
0
 40
0
 40
0
 40
1
 40
1
 40
1
 40
1
 10
32.672390
 20
81.353372
 30
0.0
 10
32.668382
 20
81.415092
 30
0.0
 10
32.663813
 20
81.476739
 30
0.0
 10
32.658202
 20
81.538322
 30
0.0
  0
LWPOLYLINE
  5
147
100
AcDbEntity
  8
Layer_1
 62
7
100
AcDbPolyline
 90
2
 70
0
 10
33.073021
 20
74.936294
 30
0.0
 10
32.672390
 20
81.353372
 30
0.0
  0
SPLINE
  5
148
100
AcDbEntity
  8
Layer_1
 62
7
100
AcDbSpline
 70
8
 71
3
 72
8
 73
4
 74
0
 40
0
 40
0
 40
0
 40
0
 40
1
 40
1
 40
1
 40
1
 10
32.049064
 20
88.240095
 30
0.0
 10
32.043453
 20
88.300933
 30
0.0
 10
32.037201
 20
88.361658
 30
0.0
 10
32.029987
 20
88.422303
 30
0.0
  0
LWPOLYLINE
  5
149
100
AcDbEntity
  8
Layer_1
 62
7
100
AcDbPolyline
 90
2
 70
0
 10
32.658202
 20
81.538322
 30
0.0
 10
32.049064
 20
88.240095
 30
0.0
  0
SPLINE
  5
14a
100
AcDbEntity
  8
Layer_1
 62
7
100
AcDbSpline
 70
8
 71
3
 72
8
 73
4
 74
0
 40
0
 40
0
 40
0
 40
0
 40
1
 40
1
 40
1
 40
1
 10
31.184624
 20
95.518159
 30
0.0
 10
31.177410
 20
95.575469
 30
0.0
 10
31.170196
 20
95.632636
 30
0.0
 10
31.161860
 20
95.689714
 30
0.0
  0
LWPOLYLINE
  5
14b
100
AcDbEntity
  8
Layer_1
 62
7
100
AcDbPolyline
 90
2
 70
0
 10
32.029987
 20
88.422303
 30
0.0
 10
31.184624
 20
95.518159
 30
0.0
  0
SPLINE
  5
14c
100
AcDbEntity
  8
Layer_1
 62
7
100
AcDbSpline
 70
8
 71
3
 72
8
 73
4
 74
0
 40
0
 40
0
 40
0
 40
0
 40
1
 40
1
 40
1
 40
1
 10
30.052481
 20
103.288983
 30
0.0
 10
30.045268
 20
103.341004
 30
0.0
 10
30.036691
 20
103.392896
 30
0.0
 10
30.027794
 20
103.444709
 30
0.0
  0
LWPOLYLINE
  5
14d
100
AcDbEntity
  8
Layer_1
 62
7
100
AcDbPolyline
 90
2
 70
0
 10
31.161860
 20
95.689714
 30
0.0
 10
30.052481
 20
103.288983
 30
0.0
  0
LWPOLYLINE
  5
14e
100
AcDbEntity
  8
Layer_1
 62
7
100
AcDbPolyline
 90
2
 70
0
 10
30.027794
 20
103.444709
 30
0.0
 10
29.287377
 20
107.784216
 30
0.0
  0
SPLINE
  5
14f
100
AcDbEntity
  8
Layer_1
 62
7
100
AcDbSpline
 70
8
 71
3
 72
8
 73
4
 74
0
 40
0
 40
0
 40
0
 40
0
 40
1
 40
1
 40
1
 40
1
 10
71.992480
 20
10.175415
 30
0.0
 10
71.986067
 20
10.218386
 30
0.0
 10
71.980857
 20
10.261412
 30
0.0
 10
71.975727
 20
10.304491
 30
0.0
  0
LWPOLYLINE
  5
150
100
AcDbEntity
  8
Layer_1
 62
7
100
AcDbPolyline
 90
2
 70
0
 10
72.613409
 20
5.740236
 30
0.0
 10
71.992480
 20
10.175415
 30
0.0
  0
SPLINE
  5
151
100
AcDbEntity
  8
Layer_1
 62
7
100
AcDbSpline
 70
8
 71
3
 72
8
 73
4
 74
0
 40
0
 40
0
 40
0
 40
0
 40
1
 40
1
 40
1
 40
1
 10
71.232297
 20
16.509201
 30
0.0
 10
71.227488
 20
16.548060
 30
0.0
 10
71.223320
 20
16.586967
 30
0.0
 10
71.219312
 20
16.625912
 30
0.0
  0
LWPOLYLINE
  5
152
100
AcDbEntity
  8
Layer_1
 62
7
100
AcDbPolyline
 90
2
 70
0
 10
71.975727
 20
10.304491
 30
0.0
 10
71.232297
 20
16.509201
 30
0.0
  0
SPLINE
  5
153
100
AcDbEntity
  8
Layer_1
 62
7
100
AcDbSpline
 70
8
 71
3
 72
8
 73
4
 74
0
 40
0
 40
0
 40
0
 40
0
 40
1
 40
1
 40
1
 40
1
 10
70.573190
 20
22.979915
 30
0.0
 10
70.569182
 20
23.015777
 30
0.0
 10
70.565976
 20
23.051670
 30
0.0
 10
70.563090
 20
23.087595
 30
0.0
  0
LWPOLYLINE
  5
154
100
AcDbEntity
  8
Layer_1
 62
7
100
AcDbPolyline
 90
2
 70
0
 10
71.219312
 20
16.625912
 30
0.0
 10
70.573190
 20
22.979915
 30
0.0
  0
SPLINE
  5
155
100
AcDbEntity
  8
Layer_1
 62
7
100
AcDbSpline
 70
8
 71
3
 72
8
 73
4
 74
0
 40
0
 40
0
 40
0
 40
0
 40
1
 40
1
 40
1
 40
1
 10
70.014172
 20
29.540550
 30
0.0
 10
70.010966
 20
29.574328
 30
0.0
 10
70.008562
 20
29.608121
 30
0.0
 10
70.006157
 20
29.641940
 30
0.0
  0
LWPOLYLINE
  5
156
100
AcDbEntity
  8
Layer_1
 62
7
100
AcDbPolyline
 90
2
 70
0
 10
70.563090
 20
23.087595
 30
0.0
 10
70.014172
 20
29.540550
 30
0.0
  0
SPLINE
  5
157
100
AcDbEntity
  8
Layer_1
 62
7
100
AcDbSpline
 70
8
 71
3
 72
8
 73
4
 74
0
 40
0
 40
0
 40
0
 40
0
 40
1
 40
1
 40
1
 40
1
 10
69.554547
 20
36.143497
 30
0.0
 10
69.552143
 20
36.175968
 30
0.0
 10
69.550540
 20
36.208463
 30
0.0
 10
69.548135
 20
36.240964
 30
0.0
  0
LWPOLYLINE
  5
158
100
AcDbEntity
  8
Layer_1
 62
7
100
AcDbPolyline
 90
2
 70
0
 10
70.006157
 20
29.641940
 30
0.0
 10
69.554547
 20
36.143497
 30
0.0
  0
SPLINE
  5
159
100
AcDbEntity
  8
Layer_1
 62
7
100
AcDbSpline
 70
8
 71
3
 72
8
 73
4
 74
0
 40
0
 40
0
 40
0
 40
0
 40
1
 40
1
 40
1
 40
1
 10
69.193785
 20
42.740787
 30
0.0
 10
69.192182
 20
42.772681
 30
0.0
 10
69.190579
 20
42.804599
 30
0.0
 10
69.188976
 20
42.836524
 30
0.0
  0
LWPOLYLINE
  5
15a
100
AcDbEntity
  8
Layer_1
 62
7
100
AcDbPolyline
 90
2
 70
0
 10
69.548135
 20
36.240964
 30
0.0
 10
69.193785
 20
42.740787
 30
0.0
  0
SPLINE
  5
15b
100
AcDbEntity
  8
Layer_1
 62
7
100
AcDbSpline
 70
8
 71
3
 72
8
 73
4
 74
0
 40
0
 40
0
 40
0
 40
0
 40
1
 40
1
 40
1
 40
1
 10
68.931887
 20
49.284275
 30
0.0
 10
68.930284
 20
49.316321
 30
0.0
 10
68.929482
 20
49.348375
 30
0.0
 10
68.928681
 20
49.380439
 30
0.0
  0
LWPOLYLINE
  5
15c
100
AcDbEntity
  8
Layer_1
 62
7
100
AcDbPolyline
 90
2
 70
0
 10
69.188976
 20
42.836524
 30
0.0
 10
68.931887
 20
49.284275
 30
0.0
  0
SPLINE
  5
15d
100
AcDbEntity
  8
Layer_1
 62
7
100
AcDbSpline
 70
8
 71
3
 72
8
 73
4
 74
0
 40
0
 40
0
 40
0
 40
0
 40
1
 40
1
 40
1
 40
1
 10
68.768851
 20
55.725758
 30
0.0
 10
68.768050
 20
55.760441
 30
0.0
 10
68.767248
 20
55.795140
 30
0.0
 10
68.767248
 20
55.829829
 30
0.0
  0
LWPOLYLINE
  5
15e
100
AcDbEntity
  8
Layer_1
 62
7
100
AcDbPolyline
 90
2
 70
0
 10
68.928681
 20
49.380439
 30
0.0
 10
68.768851
 20
55.725758
 30
0.0
  0
SPLINE
  5
15f
100
AcDbEntity
  8
Layer_1
 62
7
100
AcDbSpline
 70
8
 71
3
 72
8
 73
4
 74
0
 40
0
 40
0
 40
0
 40
0
 40
1
 40
1
 40
1
 40
1
 10
68.709296
 20
62.049004
 30
0.0
 10
68.708903
 20
62.093089
 30
0.0
 10
68.708903
 20
62.137262
 30
0.0
 10
68.709392
 20
62.181388
 30
0.0
  0
LWPOLYLINE
  5
160
100
AcDbEntity
  8
Layer_1
 62
7
100
AcDbPolyline
 90
2
 70
0
 10
68.767248
 20
55.829829
 30
0.0
 10
68.709296
 20
62.049004
 30
0.0
  0
SPLINE
  5
161
100
AcDbEntity
  8
Layer_1
 62
7
100
AcDbSpline
 70
8
 71
3
 72
8
 73
4
 74
0
 40
0
 40
0
 40
0
 40
0
 40
1
 40
1
 40
1
 40
1
 10
68.776642
 20
68.357159
 30
0.0
 10
68.777228
 20
68.410382
 30
0.0
 10
68.778246
 20
68.463661
 30
0.0
 10
68.780650
 20
68.516884
 30
0.0
  0
LWPOLYLINE
  5
162
100
AcDbEntity
  8
Layer_1
 62
7
100
AcDbPolyline
 90
2
 70
0
 10
68.709392
 20
62.181388
 30
0.0
 10
68.776642
 20
68.357159
 30
0.0
  0
SPLINE
  5
163
100
AcDbEntity
  8
Layer_1
 62
7
100
AcDbSpline
 70
8
 71
3
 72
8
 73
4
 74
0
 40
0
 40
0
 40
0
 40
0
 40
1
 40
1
 40
1
 40
1
 10
69.000652
 20
74.758639
 30
0.0
 10
69.003056
 20
74.817873
 30
0.0
 10
69.005461
 20
74.877124
 30
0.0
 10
69.009309
 20
74.936294
 30
0.0
  0
LWPOLYLINE
  5
164
100
AcDbEntity
  8
Layer_1
 62
7
100
AcDbPolyline
 90
2
 70
0
 10
68.780650
 20
68.516884
 30
0.0
 10
69.000652
 20
74.758639
 30
0.0
  0
SPLINE
  5
165
100
AcDbEntity
  8
Layer_1
 62
7
100
AcDbSpline
 70
8
 71
3
 72
8
 73
4
 74
0
 40
0
 40
0
 40
0
 40
0
 40
1
 40
1
 40
1
 40
1
 10
69.409988
 20
81.353372
 30
0.0
 10
69.413995
 20
81.415092
 30
0.0
 10
69.418564
 20
81.476739
 30
0.0
 10
69.424175
 20
81.538322
 30
0.0
  0
LWPOLYLINE
  5
166
100
AcDbEntity
  8
Layer_1
 62
7
100
AcDbPolyline
 90
2
 70
0
 10
69.009309
 20
74.936294
 30
0.0
 10
69.409988
 20
81.353372
 30
0.0
  0
SPLINE
  5
167
100
AcDbEntity
  8
Layer_1
 62
7
100
AcDbSpline
 70
8
 71
3
 72
8
 73
4
 74
0
 40
0
 40
0
 40
0
 40
0
 40
1
 40
1
 40
1
 40
1
 10
70.033257
 20
88.240095
 30
0.0
 10
70.038868
 20
88.300933
 30
0.0
 10
70.045120
 20
88.361658
 30
0.0
 10
70.052414
 20
88.422303
 30
0.0
  0
LWPOLYLINE
  5
168
100
AcDbEntity
  8
Layer_1
 62
7
100
AcDbPolyline
 90
2
 70
0
 10
69.424175
 20
81.538322
 30
0.0
 10
70.033257
 20
88.240095
 30
0.0
  0
SPLINE
  5
169
100
AcDbEntity
  8
Layer_1
 62
7
100
AcDbSpline
 70
8
 71
3
 72
8
 73
4
 74
0
 40
0
 40
0
 40
0
 40
0
 40
1
 40
1
 40
1
 40
1
 10
70.897802
 20
95.518159
 30
0.0
 10
70.904214
 20
95.575469
 30
0.0
 10
70.912150
 20
95.632636
 30
0.0
 10
70.920486
 20
95.689714
 30
0.0
  0
LWPOLYLINE
  5
16a
100
AcDbEntity
  8
Layer_1
 62
7
100
AcDbPolyline
 90
2
 70
0
 10
70.052414
 20
88.422303
 30
0.0
 10
70.897802
 20
95.518159
 30
0.0
  0
SPLINE
  5
16b
100
AcDbEntity
  8
Layer_1
 62
7
100
AcDbSpline
 70
8
 71
3
 72
8
 73
4
 74
0
 40
0
 40
0
 40
0
 40
0
 40
1
 40
1
 40
1
 40
1
 10
72.029856
 20
103.288983
 30
0.0
 10
72.037070
 20
103.341004
 30
0.0
 10
72.045646
 20
103.392896
 30
0.0
 10
72.054544
 20
103.444709
 30
0.0
  0
LWPOLYLINE
  5
16c
100
AcDbEntity
  8
Layer_1
 62
7
100
AcDbPolyline
 90
2
 70
0
 10
70.920486
 20
95.689714
 30
0.0
 10
72.029856
 20
103.288983
 30
0.0
  0
LWPOLYLINE
  5
16d
100
AcDbEntity
  8
Layer_1
 62
7
100
AcDbPolyline
 90
2
 70
0
 10
72.054544
 20
103.444709
 30
0.0
 10
72.794992
 20
107.784216
 30
0.0
  0
LWPOLYLINE
  5
16e
100
AcDbEntity
  8
Layer_1
 62
1
100
AcDbPolyline
 90
17
 70
0
 10
79.236085
 20
5.740236
 30
0.0
 10
78.487901
 20
11.084773
 30
0.0
 10
77.744423
 20
17.289479
 30
0.0
 10
77.098253
 20
23.643483
 30
0.0
 10
76.549343
 20
30.096435
 30
0.0
 10
76.097733
 20
36.597996
 30
0.0
 10
75.743384
 20
43.097820
 30
0.0
 10
75.486294
 20
49.545566
 30
0.0
 10
75.326513
 20
55.890885
 30
0.0
 10
75.268561
 20
62.110066
 30
0.0
 10
75.335731
 20
68.285837
 30
0.0
 10
75.555733
 20
74.527576
 30
0.0
 10
75.956412
 20
80.944654
 30
0.0
 10
76.565502
 20
87.646434
 30
0.0
 10
77.410890
 20
94.742274
 30
0.0
 10
78.520260
 20
102.341559
 30
0.0
 10
79.921458
 20
110.553653
 30
0.0
  0
ENDSEC
  0
SECTION
  2
OBJECTS
  0
DICTIONARY
  5
C
330
0
100
AcDbDictionary
  3
ACAD_GROUP
350
D
  3
ACAD_MLINESTYLE
350
17
  0
DICTIONARY
  5
D
330
C
100
AcDbDictionary
  0
DICTIONARY
  5
1A
330
C
100
AcDbDictionary
  0
DICTIONARY
  5
17
330
C
100
AcDbDictionary
  3
STANDARD
350
18
  0
DICTIONARY
  5
19
330
C
100
AcDbDictionary
  0
ENDSEC
  0
EOF
