<?xml version="1.0" encoding="UTF-8" standalone="no"?>
<!-- Created with Inkscape (http://www.inkscape.org/) -->

<svg
   xmlns:dc="http://purl.org/dc/elements/1.1/"
   xmlns:cc="http://creativecommons.org/ns#"
   xmlns:rdf="http://www.w3.org/1999/02/22-rdf-syntax-ns#"
   xmlns:svg="http://www.w3.org/2000/svg"
   xmlns="http://www.w3.org/2000/svg"
   xmlns:sodipodi="http://sodipodi.sourceforge.net/DTD/sodipodi-0.dtd"
   xmlns:inkscape="http://www.inkscape.org/namespaces/inkscape"
   width="744.09448819"
   height="1052.3622047"
   id="svg2"
   version="1.1"
   inkscape:version="0.48.2 r9819"
   sodipodi:docname="arch.svg">
  <defs
     id="defs4" />
  <sodipodi:namedview
     id="base"
     pagecolor="#ffffff"
     bordercolor="#666666"
     borderopacity="1.0"
     inkscape:pageopacity="0.0"
     inkscape:pageshadow="2"
     inkscape:zoom="0.35"
     inkscape:cx="375"
     inkscape:cy="520"
     inkscape:document-units="px"
     inkscape:current-layer="layer1"
     showgrid="false"
     inkscape:window-width="1680"
     inkscape:window-height="998"
     inkscape:window-x="-8"
     inkscape:window-y="-8"
     inkscape:window-maximized="1" />
  <metadata
     id="metadata7">
    <rdf:RDF>
      <cc:Work
         rdf:about="">
        <dc:format>image/svg+xml</dc:format>
        <dc:type
           rdf:resource="http://purl.org/dc/dcmitype/StillImage" />
        <dc:title />
      </cc:Work>
    </rdf:RDF>
  </metadata>
  <g
     inkscape:label="Layer 1"
     inkscape:groupmode="layer"
     id="layer1">
    <g
       transform="matrix(2.84014,0,0,-2.84014,-1260.2184,1121.9228)"
       id="g8359">
      <path
         id="path8361"
         style="fill:none;stroke:#ff0000;stroke-width:0.25;stroke-linecap:butt;stroke-linejoin:miter;stroke-miterlimit:4;stroke-opacity:1;stroke-dasharray:none"
         d="m 457.39517,160.66403 0,-11.10646"
         inkscape:connector-curvature="0" />
    </g>
    <g
       transform="matrix(2.84014,0,0,-2.84014,-1260.2184,1121.9228)"
       id="g8663">
      <path
         id="path8665"
         style="fill:none;stroke:#ff0000;stroke-width:0.25;stroke-linecap:butt;stroke-linejoin:miter;stroke-miterlimit:4;stroke-opacity:1;stroke-dasharray:none"
         d="M 471.36475,162.41669 457.39517,149.55757"
         inkscape:connector-curvature="0" />
    </g>
    <g
       transform="matrix(2.84014,0,0,-2.84014,-1260.2184,1121.9228)"
       id="g8667">
      <path
         id="path8669"
         style="fill:none;stroke:#ff0000;stroke-width:0.25;stroke-linecap:butt;stroke-linejoin:miter;stroke-miterlimit:4;stroke-opacity:1;stroke-dasharray:none"
         d="m 466.34497,168.87854 -8.9498,-8.21451"
         inkscape:connector-curvature="0" />
    </g>
    <g
       transform="matrix(2.84014,0,0,-2.84014,-1260.2184,1121.9228)"
       id="g8671">
      <path
         id="path8673"
         style="fill:none;stroke:#ff0000;stroke-width:0.25;stroke-linecap:butt;stroke-linejoin:miter;stroke-miterlimit:4;stroke-opacity:1;stroke-dasharray:none"
         d="m 505.05893,189.84622 4.67245,0"
         inkscape:connector-curvature="0" />
    </g>
    <g
       transform="matrix(2.84014,0,0,-2.84014,-1260.2184,1121.9228)"
       id="g8675">
      <path
         id="path8677"
         style="fill:none;stroke:#ff0000;stroke-width:0.25;stroke-linecap:butt;stroke-linejoin:miter;stroke-miterlimit:4;stroke-opacity:1;stroke-dasharray:none"
         d="m 543.4256,162.41669 13.96954,-12.85912"
         inkscape:connector-curvature="0" />
    </g>
    <g
       transform="matrix(2.84014,0,0,-2.84014,-1260.2184,1121.9228)"
       id="g8679">
      <path
         id="path8681"
         style="fill:none;stroke:#ff0000;stroke-width:0.25;stroke-linecap:butt;stroke-linejoin:miter;stroke-miterlimit:4;stroke-opacity:1;stroke-dasharray:none"
         d="m 548.44537,168.87854 8.94977,-8.21451"
         inkscape:connector-curvature="0" />
    </g>
    <g
       transform="matrix(2.84014,0,0,-2.84014,-1260.2184,1121.9228)"
       id="g8683">
      <path
         id="path8685"
         style="fill:none;stroke:#ff0000;stroke-width:0.25;stroke-linecap:butt;stroke-linejoin:miter;stroke-miterlimit:4;stroke-opacity:1;stroke-dasharray:none"
         d="m 557.39514,149.55757 0,11.10646"
         inkscape:connector-curvature="0" />
    </g>
    <g
       transform="matrix(2.84014,0,0,-2.84014,-1260.2184,1121.9228)"
       id="g8687">
      <path
         id="path8689"
         style="fill:none;stroke:#ff0000;stroke-width:0.25;stroke-linecap:butt;stroke-linejoin:miter;stroke-miterlimit:4;stroke-opacity:1;stroke-dasharray:none"
         d="m 472.21982,31.653374 70.35068,0"
         inkscape:connector-curvature="0" />
    </g>
    <g
       transform="matrix(2.84014,0,0,-2.84014,-1260.2184,1121.9228)"
       id="g8711">
      <path
         id="path8713"
         style="fill:none;stroke:#000000;stroke-width:0.25;stroke-linecap:butt;stroke-linejoin:miter;stroke-miterlimit:4;stroke-opacity:1;stroke-dasharray:none"
         d="m 515.18137,150.01204 c 0,4.81783 -3.90562,8.72345 -8.72345,8.72345 -4.81783,0 -8.72345,-3.90562 -8.72345,-8.72345 0,-4.81783 3.90562,-8.72345 8.72345,-8.72345 4.81783,0 8.72345,3.90562 8.72345,8.72345 z"
         inkscape:connector-curvature="0" />
    </g>
    <g
       transform="matrix(2.84014,0,0,-2.84014,-1260.2184,1121.9228)"
       id="g8811">
      <path
         id="path8813"
         style="fill:none;stroke:#00ff00;stroke-width:0.25;stroke-linecap:butt;stroke-linejoin:miter;stroke-miterlimit:4;stroke-opacity:1;stroke-dasharray:none"
         d="m 471.36475,162.41669 0,0 6.13815,4.76834 4.82672,3.64642 3.93756,2.75406 3.47058,2.09123 3.42584,1.65796 3.80341,1.45421 4.60306,1.48001 5.8251,1.73537"
         inkscape:connector-curvature="0" />
    </g>
    <g
       transform="matrix(2.84014,0,0,-2.84014,-1260.2184,1121.9228)"
       id="g8815">
      <path
         id="path8817"
         style="fill:none;stroke:#ff0000;stroke-width:0.25;stroke-linecap:butt;stroke-linejoin:miter;stroke-miterlimit:4;stroke-opacity:1;stroke-dasharray:none"
         d="m 466.34497,168.87854 6.13812,4.76834 c 0.029,0.0225 0.0582,0.0449 0.0875,0.067 l 4.82675,3.64644 c 0.0797,0.0602 0.16058,0.11902 0.24249,0.1763 l 3.93753,2.75408 c 0.1521,0.10638 0.3078,0.20756 0.4668,0.30336 l 3.47055,2.09123 c 0.21396,0.12892 0.43375,0.24798 0.6586,0.35681 l 3.42584,1.65794 c 0.21002,0.10164 0.42432,0.19425 0.64224,0.27758 l 3.80338,1.45422 c 0.13785,0.0527 0.27713,0.10168 0.41763,0.14686 l 4.60309,1.48002 c 0.0559,0.018 0.11209,0.0354 0.16843,0.0522 l 5.82504,1.73535"
         inkscape:connector-curvature="0" />
    </g>
    <g
       transform="matrix(2.84014,0,0,-2.84014,-1260.2184,1121.9228)"
       id="g8819">
      <path
         id="path8821"
         style="fill:none;stroke:#000000;stroke-width:0.25;stroke-linecap:butt;stroke-linejoin:miter;stroke-miterlimit:4;stroke-opacity:1;stroke-dasharray:none"
         d="m 480.25507,158.96159 2.22409,1.72779 4.66317,3.52282 3.58646,2.5085 2.91092,1.754 2.77322,1.34212 3.2695,1.25009 4.30835,1.38525 3.40439,1.01421"
         inkscape:connector-curvature="0" />
    </g>
    <g
       transform="matrix(2.84014,0,0,-2.84014,-1260.2184,1121.9228)"
       id="g8823">
      <path
         id="path8825"
         style="fill:none;stroke:#00ff00;stroke-width:0.25;stroke-linecap:butt;stroke-linejoin:miter;stroke-miterlimit:4;stroke-opacity:1;stroke-dasharray:none"
         d="m 543.4256,162.41669 0,0 -6.13819,4.76834 -4.82672,3.64642 -3.93756,2.75406 -3.47058,2.09123 -3.42584,1.65796 -3.80341,1.45421 -4.60309,1.48001 -5.82504,1.73537"
         inkscape:connector-curvature="0" />
    </g>
    <g
       transform="matrix(2.84014,0,0,-2.84014,-1260.2184,1121.9228)"
       id="g8827">
      <path
         id="path8829"
         style="fill:none;stroke:#ff0000;stroke-width:0.25;stroke-linecap:butt;stroke-linejoin:miter;stroke-miterlimit:4;stroke-opacity:1;stroke-dasharray:none"
         d="m 548.44537,168.87854 -6.13818,4.76834 c -0.029,0.0225 -0.0581,0.0449 -0.0874,0.067 l -4.82678,3.64644 c -0.0798,0.0602 -0.16059,0.11902 -0.2425,0.1763 l -3.9375,2.75408 c -0.1521,0.10638 -0.3078,0.20756 -0.46679,0.30336 l -3.47059,2.09123 c -0.21398,0.12892 -0.43371,0.24798 -0.65856,0.35681 l -3.42591,1.65794 c -0.21002,0.10164 -0.42425,0.19425 -0.64221,0.27758 l -3.80334,1.45422 c -0.13788,0.0527 -0.27717,0.10168 -0.41767,0.14686 l -4.60309,1.48002 c -0.056,0.018 -0.11206,0.0354 -0.16839,0.0522 l -5.82508,1.73535"
         inkscape:connector-curvature="0" />
    </g>
    <g
       transform="matrix(2.84014,0,0,-2.84014,-1260.2184,1121.9228)"
       id="g8831">
      <path
         id="path8833"
         style="fill:none;stroke:#000000;stroke-width:0.25;stroke-linecap:butt;stroke-linejoin:miter;stroke-miterlimit:4;stroke-opacity:1;stroke-dasharray:none"
         d="m 534.53528,158.96159 -2.22412,1.72779 -4.66315,3.52282 -3.58649,2.5085 -2.91089,1.754 -2.77325,1.34212 -3.26947,1.25009 -4.30835,1.38525 -3.40439,1.01421"
         inkscape:connector-curvature="0" />
    </g>
    <g
       transform="matrix(2.84014,0,0,-2.84014,-1260.2184,1121.9228)"
       id="g8835">
      <path
         id="path8837"
         style="fill:none;stroke:#ff0000;stroke-width:0.25;stroke-linecap:butt;stroke-linejoin:miter;stroke-miterlimit:4;stroke-opacity:1;stroke-dasharray:none"
         d="m 472.21982,31.653374 0.93347,6.667747 0.92752,7.740879 0.80612,7.92714 0.68482,8.050586 0.56341,8.111229 0.44208,8.109062 0.32074,8.044091 0.19937,7.916305 0.0722,7.758937 -0.0838,7.70478 -0.27447,7.78708 -0.49988,8.00583 -0.75992,8.36102 -1.05465,8.85264 -1.38404,9.48073 -1.74807,10.24526"
         inkscape:connector-curvature="0" />
    </g>
    <g
       transform="matrix(2.84014,0,0,-2.84014,-1260.2184,1121.9228)"
       id="g8839">
      <path
         id="path8841"
         style="fill:none;stroke:#000000;stroke-width:0.25;stroke-linecap:butt;stroke-linejoin:miter;stroke-miterlimit:4;stroke-opacity:1;stroke-dasharray:none"
         d="m 480.48215,31.653374 0.77466,5.533249 c 0.008,0.05361 0.0145,0.107288 0.0209,0.161033 l 0.92749,7.740883 c 0.006,0.04848 0.0112,0.09702 0.0161,0.145607 l 0.80616,7.927139 c 0.005,0.04474 0.009,0.08952 0.0125,0.134339 l 0.68478,8.05059 c 0.004,0.04214 0.007,0.0843 0.01,0.126492 l 0.56344,8.111225 c 0.003,0.04051 0.005,0.08105 0.008,0.121597 l 0.44208,8.109062 c 0.002,0.03979 0.004,0.07961 0.006,0.119439 l 0.32068,8.044098 c 0.002,0.03998 0.003,0.07997 0.004,0.119972 l 0.1994,7.916305 c 10e-4,0.04327 0.002,0.08656 0.002,0.129837 l 0.0723,7.758929 c 5.1e-4,0.055 4.8e-4,0.11011 -1.3e-4,0.16516 l -0.0838,7.70478 c -7e-4,0.0664 -0.002,0.13287 -0.005,0.19927 l -0.27451,7.7871 c -0.003,0.0739 -0.006,0.14782 -0.0109,0.22164 l -0.49982,8.00583 c -0.005,0.077 -0.0107,0.15391 -0.0177,0.23074 l -0.75995,8.36101 c -0.007,0.0759 -0.0148,0.15166 -0.0238,0.22732 l -1.05466,8.85266 c -0.009,0.0715 -0.018,0.14282 -0.0284,0.21403 l -1.38404,9.48071 c -0.009,0.0649 -0.0197,0.12964 -0.0308,0.19428 l -0.92373,5.41389"
         inkscape:connector-curvature="0" />
    </g>
    <g
       transform="matrix(2.84014,0,0,-2.84014,-1260.2184,1121.9228)"
       id="g8843">
      <path
         id="path8845"
         style="fill:none;stroke:#000000;stroke-width:0.25;stroke-linecap:butt;stroke-linejoin:miter;stroke-miterlimit:4;stroke-opacity:1;stroke-dasharray:none"
         d="m 534.30817,31.653374 -0.77466,5.533249 c -0.008,0.05361 -0.0145,0.107288 -0.0209,0.161033 l -0.92749,7.740883 c -0.006,0.04848 -0.0112,0.09702 -0.0162,0.145607 l -0.80609,7.927139 c -0.005,0.04474 -0.009,0.08952 -0.0126,0.134339 l -0.68482,8.05059 c -0.004,0.04214 -0.007,0.0843 -0.01,0.126492 l -0.56342,8.111225 c -0.003,0.04051 -0.005,0.08105 -0.008,0.121597 l -0.44208,8.109062 c -0.002,0.03979 -0.004,0.07961 -0.006,0.119439 l -0.32074,8.044098 c -0.002,0.03998 -0.003,0.07997 -0.004,0.119972 l -0.1994,7.916305 c -10e-4,0.04327 -0.002,0.08656 -0.002,0.129837 l -0.0723,7.758929 c -4.9e-4,0.055 -4.9e-4,0.11011 1.2e-4,0.16516 l 0.0839,7.70478 c 7.3e-4,0.0664 0.002,0.13287 0.005,0.19927 l 0.27447,7.7871 c 0.003,0.0739 0.006,0.14782 0.0108,0.22164 l 0.49988,8.00583 c 0.005,0.077 0.0107,0.15391 0.0177,0.23074 l 0.75988,8.36101 c 0.007,0.0759 0.0148,0.15166 0.0239,0.22732 l 1.05469,8.85266 c 0.008,0.0715 0.0179,0.14282 0.0283,0.21403 l 1.38403,9.48071 c 0.009,0.0649 0.0197,0.12964 0.0308,0.19428 l 0.92377,5.41389"
         inkscape:connector-curvature="0" />
    </g>
    <g
       transform="matrix(2.84014,0,0,-2.84014,-1260.2184,1121.9228)"
       id="g8847">
      <path
         id="path8849"
         style="fill:none;stroke:#ff0000;stroke-width:0.25;stroke-linecap:butt;stroke-linejoin:miter;stroke-miterlimit:4;stroke-opacity:1;stroke-dasharray:none"
         d="m 542.5705,31.653374 -0.93342,6.667747 -0.92755,7.740879 -0.80615,7.92714 -0.68481,8.050586 -0.56342,8.111229 -0.44208,8.109062 -0.32074,8.044091 -0.19934,7.916305 -0.0723,7.758937 0.0838,7.70478 0.27447,7.78708 0.49988,8.00583 0.75989,8.36102 1.05469,8.85264 1.38403,9.48073 1.74811,10.24526"
         inkscape:connector-curvature="0" />
    </g>
  </g>
</svg>
