999
DXF created by Inkscape
  0
SECTION
  2
HEADER
  9
$ACADVER
  1
AC1014
  9
$HANDSEED
  5
FFFF
  9
$MEASUREMENT
 70
     1
  0
ENDSEC
  0
SECTION
  2
TABLES
  0
TABLE
  2
VPORT
  5
8
330
0
100
AcDbSymbolTable
 70
     4
  0
VPORT
  5
2E
330
8
100
AcDbSymbolTableRecord
100
AcDbViewportTableRecord
  2
*ACTIVE
 70
     0
 10
0.0
 20
0.0
 11
1.0
 21
1.0
 12
210.0
 22
148.5
 13
0.0
 23
0.0
 14
10.0
 24
10.0
 15
10.0
 25
10.0
 16
0.0
 26
0.0
 36
1.0
 17
0.0
 27
0.0
 37
0.0
 40
341.0
 41
1.24
 42
50.0
 43
0.0
 44
0.0
 50
0.0
 51
0.0
 71
     0
 72
   100
 73
     1
 74
     3
 75
     0
 76
     0
 77
     0
 78
     0
  0
ENDTAB
  0
TABLE
  2
LTYPE
  5
5
330
0
100
AcDbSymbolTable
 70
     1
  0
LTYPE
  5
14
330
5
100
AcDbSymbolTableRecord
100
AcDbLinetypeTableRecord
  2
BYBLOCK
 70
     0
  3

 72
    65
 73
     0
 40
0.0
  0
LTYPE
  5
15
330
5
100
AcDbSymbolTableRecord
100
AcDbLinetypeTableRecord
  2
BYLAYER
 70
     0
  3

 72
    65
 73
     0
 40
0.0
  0
LTYPE
  5
16
330
5
100
AcDbSymbolTableRecord
100
AcDbLinetypeTableRecord
  2
CONTINUOUS
 70
     0
  3
Solid line
 72
    65
 73
     0
 40
0.0
  0
ENDTAB
  0
TABLE
  2
LAYER
  5
2
100
AcDbSymbolTable
 70
2
  0
LAYER
  5
50
100
AcDbSymbolTableRecord
100
AcDbLayerTableRecord
  2
0
 70
0
  6
CONTINUOUS
  0
LAYER
  5
51
100
AcDbSymbolTableRecord
100
AcDbLayerTableRecord
  2
Layer_1
 70
0
  6
CONTINUOUS
  0
ENDTAB
  0
TABLE
  2
STYLE
  5
3
330
0
100
AcDbSymbolTable
 70
     1
  0
STYLE
  5
11
330
3
100
AcDbSymbolTableRecord
100
AcDbTextStyleTableRecord
  2
STANDARD
 70
     0
 40
0.0
 41
1.0
 50
0.0
 71
     0
 42
2.5
  3
txt
  4

  0
ENDTAB
  0
TABLE
  2
VIEW
  5
6
330
0
100
AcDbSymbolTable
 70
     0
  0
ENDTAB
  0
TABLE
  2
UCS
  5
7
330
0
100
AcDbSymbolTable
 70
     0
  0
ENDTAB
  0
TABLE
  2
APPID
  5
9
330
0
100
AcDbSymbolTable
 70
     2
  0
APPID
  5
12
330
9
100
AcDbSymbolTableRecord
100
AcDbRegAppTableRecord
  2
ACAD
 70
     0
  0
ENDTAB
  0
TABLE
  2
DIMSTYLE
  5
A
330
0
100
AcDbSymbolTable
 70
     1
  0
DIMSTYLE
105
27
330
A
100
AcDbSymbolTableRecord
100
AcDbDimStyleTableRecord
  2
ISO-25
 70
     0
  3

  4

  5

  6

  7

 40
1.0
 41
2.5
 42
0.625
 43
3.75
 44
1.25
 45
0.0
 46
0.0
 47
0.0
 48
0.0
140
2.5
141
2.5
142
0.0
143
0.03937007874016
144
1.0
145
0.0
146
1.0
147
0.625
 71
     0
 72
     0
 73
     0
 74
     0
 75
     0
 76
     0
 77
     1
 78
     8
170
     0
171
     3
172
     1
173
     0
174
     0
175
     0
176
     0
177
     0
178
     0
270
     2
271
     2
272
     2
273
     2
274
     3
340
11
275
     0
280
     0
281
     0
282
     0
283
     0
284
     8
285
     0
286
     0
287
     3
288
     0
  0
ENDTAB
  0
TABLE
  2
BLOCK_RECORD
  5
1
330
0
100
AcDbSymbolTable
 70
     1
  0
BLOCK_RECORD
  5
1F
330
1
100
AcDbSymbolTableRecord
100
AcDbBlockTableRecord
  2
*MODEL_SPACE
  0
BLOCK_RECORD
  5
1B
330
1
100
AcDbSymbolTableRecord
100
AcDbBlockTableRecord
  2
*PAPER_SPACE
  0
ENDTAB
  0
ENDSEC
  0
SECTION
  2
BLOCKS
  0
BLOCK
  5
20
330
1F
100
AcDbEntity
  8
0
100
AcDbBlockBegin
  2
*MODEL_SPACE
 70
     0
 10
0.0
 20
0.0
 30
0.0
  3
*MODEL_SPACE
  1

  0
ENDBLK
  5
21
330
1F
100
AcDbEntity
  8
0
100
AcDbBlockEnd
  0
BLOCK
  5
1C
330
1B
100
AcDbEntity
 67
     1
  8
0
100
AcDbBlockBegin
  2
*PAPER_SPACE
  1

  0
ENDBLK
  5
1D
330
1B
100
AcDbEntity
 67
     1
  8
0
100
AcDbBlockEnd
  0
ENDSEC
  0
SECTION
  2
ENTITIES
  0
LWPOLYLINE
  5
100
100
AcDbEntity
  8
Layer_1
 62
1
100
AcDbPolyline
 90
6
 70
0
 10
133.305489
 20
57.875024
 30
0.0
 10
133.305489
 20
184.676894
 30
0.0
 10
54.054314
 20
184.676894
 30
0.0
 10
54.054314
 20
57.875024
 30
0.0
 10
133.305489
 20
57.875024
 30
0.0
 10
133.305489
 20
57.875024
 30
0.0
  0
LWPOLYLINE
  5
101
100
AcDbEntity
  8
Layer_1
 62
7
100
AcDbPolyline
 90
2
 70
0
 10
93.679901
 20
168.910380
 30
0.0
 10
93.679901
 20
57.875024
 30
0.0
  0
LWPOLYLINE
  5
102
100
AcDbEntity
  8
Layer_1
 62
7
100
AcDbPolyline
 90
2
 70
0
 10
65.050462
 20
168.910380
 30
0.0
 10
122.309364
 20
168.910380
 30
0.0
  0
LWPOLYLINE
  5
103
100
AcDbEntity
  8
Layer_1
 62
3
100
AcDbPolyline
 90
2
 70
0
 10
61.429190
 20
138.370536
 30
0.0
 10
125.930620
 20
138.370536
 30
0.0
  0
LWPOLYLINE
  5
104
100
AcDbEntity
  8
Layer_1
 62
3
100
AcDbPolyline
 90
2
 70
0
 10
61.138838
 20
99.775034
 30
0.0
 10
126.221012
 20
99.775034
 30
0.0
  0
LWPOLYLINE
  5
105
100
AcDbEntity
  8
Layer_1
 62
3
100
AcDbPolyline
 90
2
 70
0
 10
61.904436
 20
146.026104
 30
0.0
 10
125.455398
 20
146.026104
 30
0.0
  0
LWPOLYLINE
  5
106
100
AcDbEntity
  8
Layer_1
 62
3
100
AcDbPolyline
 90
2
 70
0
 10
61.437607
 20
92.119458
 30
0.0
 10
125.922227
 20
92.119458
 30
0.0
  0
LWPOLYLINE
  5
107
100
AcDbEntity
  8
Layer_1
 62
3
100
AcDbPolyline
 90
2
 70
0
 10
125.455398
 20
146.026104
 30
0.0
 10
61.429190
 20
138.370536
 30
0.0
  0
LWPOLYLINE
  5
108
100
AcDbEntity
  8
Layer_1
 62
3
100
AcDbPolyline
 90
2
 70
0
 10
61.904436
 20
146.026104
 30
0.0
 10
125.930620
 20
138.370536
 30
0.0
  0
LWPOLYLINE
  5
109
100
AcDbEntity
  8
Layer_1
 62
3
100
AcDbPolyline
 90
2
 70
0
 10
61.437607
 20
92.119458
 30
0.0
 10
126.221012
 20
99.775034
 30
0.0
  0
LWPOLYLINE
  5
10a
100
AcDbEntity
  8
Layer_1
 62
3
100
AcDbPolyline
 90
2
 70
0
 10
125.922227
 20
92.119458
 30
0.0
 10
61.138838
 20
99.775034
 30
0.0
  0
LWPOLYLINE
  5
10b
100
AcDbEntity
  8
Layer_1
 62
3
100
AcDbPolyline
 90
4
 70
0
 10
95.656148
 20
128.331599
 30
0.0
 10
101.542767
 20
128.331599
 30
0.0
 10
101.542767
 20
106.337659
 30
0.0
 10
95.475027
 20
106.337659
 30
0.0
  0
LWPOLYLINE
  5
10c
100
AcDbEntity
  8
Layer_1
 62
3
100
AcDbPolyline
 90
4
 70
0
 10
95.656148
 20
126.158072
 30
0.0
 10
99.369232
 20
126.158072
 30
0.0
 10
99.369232
 20
108.511184
 30
0.0
 10
95.475027
 20
108.511184
 30
0.0
  0
LWPOLYLINE
  5
10d
100
AcDbEntity
  8
Layer_1
 62
3
100
AcDbPolyline
 90
2
 70
0
 10
95.656148
 20
128.331599
 30
0.0
 10
95.656148
 20
126.158072
 30
0.0
  0
LWPOLYLINE
  5
10e
100
AcDbEntity
  8
Layer_1
 62
3
100
AcDbPolyline
 90
2
 70
0
 10
95.475027
 20
108.511184
 30
0.0
 10
95.475027
 20
106.337659
 30
0.0
  0
LWPOLYLINE
  5
10f
100
AcDbEntity
  8
Layer_1
 62
3
100
AcDbPolyline
 90
4
 70
0
 10
91.703678
 20
128.331599
 30
0.0
 10
85.817059
 20
128.331599
 30
0.0
 10
85.817059
 20
106.337659
 30
0.0
 10
91.884830
 20
106.337659
 30
0.0
  0
LWPOLYLINE
  5
110
100
AcDbEntity
  8
Layer_1
 62
3
100
AcDbPolyline
 90
4
 70
0
 10
91.703678
 20
126.158072
 30
0.0
 10
87.990594
 20
126.158072
 30
0.0
 10
87.990594
 20
108.511184
 30
0.0
 10
91.884830
 20
108.511184
 30
0.0
  0
LWPOLYLINE
  5
111
100
AcDbEntity
  8
Layer_1
 62
3
100
AcDbPolyline
 90
2
 70
0
 10
91.703678
 20
128.331599
 30
0.0
 10
91.703678
 20
126.158072
 30
0.0
  0
LWPOLYLINE
  5
112
100
AcDbEntity
  8
Layer_1
 62
3
100
AcDbPolyline
 90
2
 70
0
 10
91.884830
 20
108.511184
 30
0.0
 10
91.884830
 20
106.337659
 30
0.0
  0
LWPOLYLINE
  5
113
100
AcDbEntity
  8
Layer_1
 62
7
100
AcDbPolyline
 90
23
 70
0
 10
65.050462
 20
168.910380
 30
0.0
 10
64.727101
 20
167.224621
 30
0.0
 10
63.991159
 20
163.064370
 30
0.0
 10
63.414337
 20
159.452505
 30
0.0
 10
62.964753
 20
156.264825
 30
0.0
 10
62.610580
 20
153.375216
 30
0.0
 10
62.320283
 20
150.658058
 30
0.0
 10
62.067979
 20
148.002185
 30
0.0
 10
61.846606
 20
145.327362
 30
0.0
 10
61.653336
 20
142.554887
 30
0.0
 10
61.485253
 20
139.604675
 30
0.0
 10
61.339629
 20
136.397324
 30
0.0
 10
61.213770
 20
132.854115
 30
0.0
 10
61.105029
 20
128.897033
 30
0.0
 10
61.010752
 20
124.449893
 30
0.0
 10
60.934829
 20
119.433285
 30
0.0
 10
60.906854
 20
113.733850
 30
0.0
 10
60.962805
 20
107.223806
 30
0.0
 10
61.138822
 20
99.775034
 30
0.0
 10
61.471106
 20
91.260533
 30
0.0
 10
61.995963
 20
81.554148
 30
0.0
 10
62.749729
 20
70.530279
 30
0.0
 10
63.769802
 20
58.050535
 30
0.0
  0
LWPOLYLINE
  5
114
100
AcDbEntity
  8
Layer_1
 62
7
100
AcDbPolyline
 90
23
 70
0
 10
122.309364
 20
168.910380
 30
0.0
 10
122.632725
 20
167.224621
 30
0.0
 10
123.368667
 20
163.064370
 30
0.0
 10
123.945521
 20
159.452505
 30
0.0
 10
124.395081
 20
156.264825
 30
0.0
 10
124.749278
 20
153.375216
 30
0.0
 10
125.039551
 20
150.658058
 30
0.0
 10
125.291879
 20
148.002185
 30
0.0
 10
125.513220
 20
145.327362
 30
0.0
 10
125.706514
 20
142.554887
 30
0.0
 10
125.874581
 20
139.604675
 30
0.0
 10
126.020221
 20
136.397324
 30
0.0
 10
126.146088
 20
132.854115
 30
0.0
 10
126.254821
 20
128.897033
 30
0.0
 10
126.349098
 20
124.449893
 30
0.0
 10
126.425021
 20
119.433285
 30
0.0
 10
126.452996
 20
113.733850
 30
0.0
 10
126.397045
 20
107.223806
 30
0.0
 10
126.221044
 20
99.775034
 30
0.0
 10
125.888736
 20
91.260533
 30
0.0
 10
125.363887
 20
81.554148
 30
0.0
 10
124.610121
 20
70.530279
 30
0.0
 10
123.590047
 20
58.050535
 30
0.0
  0
ENDSEC
  0
SECTION
  2
OBJECTS
  0
DICTIONARY
  5
C
330
0
100
AcDbDictionary
  3
ACAD_GROUP
350
D
  3
ACAD_MLINESTYLE
350
17
  0
DICTIONARY
  5
D
330
C
100
AcDbDictionary
  0
DICTIONARY
  5
1A
330
C
100
AcDbDictionary
  0
DICTIONARY
  5
17
330
C
100
AcDbDictionary
  3
STANDARD
350
18
  0
DICTIONARY
  5
19
330
C
100
AcDbDictionary
  0
ENDSEC
  0
EOF
