<?xml version="1.0" encoding="UTF-8" standalone="no"?>
<!-- Created with Inkscape (http://www.inkscape.org/) -->

<svg
   xmlns:dc="http://purl.org/dc/elements/1.1/"
   xmlns:cc="http://creativecommons.org/ns#"
   xmlns:rdf="http://www.w3.org/1999/02/22-rdf-syntax-ns#"
   xmlns:svg="http://www.w3.org/2000/svg"
   xmlns="http://www.w3.org/2000/svg"
   xmlns:sodipodi="http://sodipodi.sourceforge.net/DTD/sodipodi-0.dtd"
   xmlns:inkscape="http://www.inkscape.org/namespaces/inkscape"
   width="744.09448819"
   height="1052.3622047"
   id="svg2"
   version="1.1"
   inkscape:version="0.48.2 r9819"
   sodipodi:docname="barrel.svg">
  <defs
     id="defs4" />
  <sodipodi:namedview
     id="base"
     pagecolor="#ffffff"
     bordercolor="#666666"
     borderopacity="1.0"
     inkscape:pageopacity="0.0"
     inkscape:pageshadow="2"
     inkscape:zoom="0.35"
     inkscape:cx="375"
     inkscape:cy="520"
     inkscape:document-units="px"
     inkscape:current-layer="layer1"
     showgrid="false"
     inkscape:window-width="1680"
     inkscape:window-height="998"
     inkscape:window-x="-8"
     inkscape:window-y="-8"
     inkscape:window-maximized="1" />
  <metadata
     id="metadata7">
    <rdf:RDF>
      <cc:Work
         rdf:about="">
        <dc:format>image/svg+xml</dc:format>
        <dc:type
           rdf:resource="http://purl.org/dc/dcmitype/StillImage" />
        <dc:title />
      </cc:Work>
    </rdf:RDF>
  </metadata>
  <g
     inkscape:label="Layer 1"
     inkscape:groupmode="layer"
     id="layer1">
    <g
       transform="matrix(2.8081125,0,0,-2.8081125,-745.28599,942.82954)"
       id="g8351">
      <path
         id="path8353"
         style="fill:none;stroke:#ff0000;stroke-width:0.25;stroke-linecap:butt;stroke-linejoin:miter;stroke-miterlimit:4;stroke-opacity:1;stroke-dasharray:none"
         d="m 433.61093,34.021542 0,159.999988 -100,0 0,-159.999988 100,0 z"
         inkscape:connector-curvature="0" />
    </g>
    <g
       transform="matrix(2.8081125,0,0,-2.8081125,-745.28599,942.82954)"
       id="g8355">
      <path
         id="path8357"
         style="fill:none;stroke:#000000;stroke-width:0.25;stroke-linecap:butt;stroke-linejoin:miter;stroke-miterlimit:4;stroke-opacity:1;stroke-dasharray:none"
         d="m 383.61093,174.12717 0,-140.105628"
         inkscape:connector-curvature="0" />
    </g>
    <g
       transform="matrix(2.8081125,0,0,-2.8081125,-745.28599,942.82954)"
       id="g8591">
      <path
         id="path8593"
         style="fill:none;stroke:#000000;stroke-width:0.25;stroke-linecap:butt;stroke-linejoin:miter;stroke-miterlimit:4;stroke-opacity:1;stroke-dasharray:none"
         d="m 347.48599,174.12717 72.24991,0"
         inkscape:connector-curvature="0" />
    </g>
    <g
       transform="matrix(2.8081125,0,0,-2.8081125,-745.28599,942.82954)"
       id="g8595">
      <path
         id="path8597"
         style="fill:none;stroke:#00ff00;stroke-width:0.25;stroke-linecap:butt;stroke-linejoin:miter;stroke-miterlimit:4;stroke-opacity:1;stroke-dasharray:none"
         d="m 342.91663,135.59166 81.38861,0"
         inkscape:connector-curvature="0" />
    </g>
    <g
       transform="matrix(2.8081125,0,0,-2.8081125,-745.28599,942.82954)"
       id="g8599">
      <path
         id="path8601"
         style="fill:none;stroke:#00ff00;stroke-width:0.25;stroke-linecap:butt;stroke-linejoin:miter;stroke-miterlimit:4;stroke-opacity:1;stroke-dasharray:none"
         d="m 342.55026,86.891434 82.1214,0"
         inkscape:connector-curvature="0" />
    </g>
    <g
       transform="matrix(2.8081125,0,0,-2.8081125,-745.28599,942.82954)"
       id="g8603">
      <path
         id="path8605"
         style="fill:none;stroke:#00ff00;stroke-width:0.25;stroke-linecap:butt;stroke-linejoin:miter;stroke-miterlimit:4;stroke-opacity:1;stroke-dasharray:none"
         d="m 343.5163,145.25154 80.1893,0"
         inkscape:connector-curvature="0" />
    </g>
    <g
       transform="matrix(2.8081125,0,0,-2.8081125,-745.28599,942.82954)"
       id="g8607">
      <path
         id="path8609"
         style="fill:none;stroke:#00ff00;stroke-width:0.25;stroke-linecap:butt;stroke-linejoin:miter;stroke-miterlimit:4;stroke-opacity:1;stroke-dasharray:none"
         d="m 342.92725,77.231544 81.3674,0"
         inkscape:connector-curvature="0" />
    </g>
    <g
       transform="matrix(2.8081125,0,0,-2.8081125,-745.28599,942.82954)"
       id="g8611">
      <path
         id="path8613"
         style="fill:none;stroke:#00ff00;stroke-width:0.25;stroke-linecap:butt;stroke-linejoin:miter;stroke-miterlimit:4;stroke-opacity:1;stroke-dasharray:none"
         d="m 423.7056,145.25154 -80.78897,-9.65988"
         inkscape:connector-curvature="0" />
    </g>
    <g
       transform="matrix(2.8081125,0,0,-2.8081125,-745.28599,942.82954)"
       id="g8615">
      <path
         id="path8617"
         style="fill:none;stroke:#00ff00;stroke-width:0.25;stroke-linecap:butt;stroke-linejoin:miter;stroke-miterlimit:4;stroke-opacity:1;stroke-dasharray:none"
         d="m 343.5163,145.25154 80.78894,-9.65988"
         inkscape:connector-curvature="0" />
    </g>
    <g
       transform="matrix(2.8081125,0,0,-2.8081125,-745.28599,942.82954)"
       id="g8619">
      <path
         id="path8621"
         style="fill:none;stroke:#00ff00;stroke-width:0.25;stroke-linecap:butt;stroke-linejoin:miter;stroke-miterlimit:4;stroke-opacity:1;stroke-dasharray:none"
         d="m 342.92725,77.231544 81.74441,9.65989"
         inkscape:connector-curvature="0" />
    </g>
    <g
       transform="matrix(2.8081125,0,0,-2.8081125,-745.28599,942.82954)"
       id="g8623">
      <path
         id="path8625"
         style="fill:none;stroke:#00ff00;stroke-width:0.25;stroke-linecap:butt;stroke-linejoin:miter;stroke-miterlimit:4;stroke-opacity:1;stroke-dasharray:none"
         d="m 424.29465,77.231544 -81.74439,9.65989"
         inkscape:connector-curvature="0" />
    </g>
    <g
       transform="matrix(2.8081125,0,0,-2.8081125,-745.28599,942.82954)"
       id="g8627">
      <path
         id="path8629"
         style="fill:none;stroke:#00ff00;stroke-width:0.25;stroke-linecap:butt;stroke-linejoin:miter;stroke-miterlimit:4;stroke-opacity:1;stroke-dasharray:none"
         d="m 386.10458,122.92442 7.4278,0 0,-27.752194 -7.65634,0"
         inkscape:connector-curvature="0" />
    </g>
    <g
       transform="matrix(2.8081125,0,0,-2.8081125,-745.28599,942.82954)"
       id="g8631">
      <path
         id="path8633"
         style="fill:none;stroke:#00ff00;stroke-width:0.25;stroke-linecap:butt;stroke-linejoin:miter;stroke-miterlimit:4;stroke-opacity:1;stroke-dasharray:none"
         d="m 386.10458,120.18184 4.68521,0 0,-22.267037 -4.91375,0"
         inkscape:connector-curvature="0" />
    </g>
    <g
       transform="matrix(2.8081125,0,0,-2.8081125,-745.28599,942.82954)"
       id="g8635">
      <path
         id="path8637"
         style="fill:none;stroke:#00ff00;stroke-width:0.25;stroke-linecap:butt;stroke-linejoin:miter;stroke-miterlimit:4;stroke-opacity:1;stroke-dasharray:none"
         d="m 386.10458,122.92442 0,-2.74258"
         inkscape:connector-curvature="0" />
    </g>
    <g
       transform="matrix(2.8081125,0,0,-2.8081125,-745.28599,942.82954)"
       id="g8639">
      <path
         id="path8641"
         style="fill:none;stroke:#00ff00;stroke-width:0.25;stroke-linecap:butt;stroke-linejoin:miter;stroke-miterlimit:4;stroke-opacity:1;stroke-dasharray:none"
         d="m 385.87604,97.914803 0,-2.742577"
         inkscape:connector-curvature="0" />
    </g>
    <g
       transform="matrix(2.8081125,0,0,-2.8081125,-745.28599,942.82954)"
       id="g8643">
      <path
         id="path8645"
         style="fill:none;stroke:#00ff00;stroke-width:0.25;stroke-linecap:butt;stroke-linejoin:miter;stroke-miterlimit:4;stroke-opacity:1;stroke-dasharray:none"
         d="m 381.11731,122.92442 -7.4278,0 0,-27.752194 7.65638,0"
         inkscape:connector-curvature="0" />
    </g>
    <g
       transform="matrix(2.8081125,0,0,-2.8081125,-745.28599,942.82954)"
       id="g8647">
      <path
         id="path8649"
         style="fill:none;stroke:#00ff00;stroke-width:0.25;stroke-linecap:butt;stroke-linejoin:miter;stroke-miterlimit:4;stroke-opacity:1;stroke-dasharray:none"
         d="m 381.11731,120.18184 -4.68521,0 0,-22.267037 4.91379,0"
         inkscape:connector-curvature="0" />
    </g>
    <g
       transform="matrix(2.8081125,0,0,-2.8081125,-745.28599,942.82954)"
       id="g8651">
      <path
         id="path8653"
         style="fill:none;stroke:#00ff00;stroke-width:0.25;stroke-linecap:butt;stroke-linejoin:miter;stroke-miterlimit:4;stroke-opacity:1;stroke-dasharray:none"
         d="m 381.11731,122.92442 0,-2.74258"
         inkscape:connector-curvature="0" />
    </g>
    <g
       transform="matrix(2.8081125,0,0,-2.8081125,-745.28599,942.82954)"
       id="g8655">
      <path
         id="path8657"
         style="fill:none;stroke:#00ff00;stroke-width:0.25;stroke-linecap:butt;stroke-linejoin:miter;stroke-miterlimit:4;stroke-opacity:1;stroke-dasharray:none"
         d="m 381.34589,97.914803 0,-2.742577"
         inkscape:connector-curvature="0" />
    </g>
    <g
       transform="matrix(2.8081125,0,0,-2.8081125,-745.28599,942.82954)"
       id="g8787">
      <path
         id="path8789"
         style="fill:none;stroke:#000000;stroke-width:0.25;stroke-linecap:butt;stroke-linejoin:miter;stroke-miterlimit:4;stroke-opacity:1;stroke-dasharray:none"
         d="m 347.48599,174.12717 -0.40802,-2.12711 -0.92862,-5.24945 -0.72784,-4.55749 -0.56729,-4.02225 -0.4469,-3.64614 -0.3663,-3.42854 -0.31836,-3.35121 -0.27933,-3.37512 -0.24387,-3.49834 -0.21209,-3.72261 -0.18375,-4.04707 -0.15881,-4.47086 -0.13721,-4.99309 -0.11896,-5.61145 -0.0958,-6.33001 -0.0353,-7.19161 0.0706,-8.214445 0.2221,-9.398941 0.41928,-10.743691 0.66227,-12.247623 0.95111,-13.910038 1.28714,-15.747078"
         inkscape:connector-curvature="0" />
    </g>
    <g
       transform="matrix(2.8081125,0,0,-2.8081125,-745.28599,942.82954)"
       id="g8791">
      <path
         id="path8793"
         style="fill:none;stroke:#000000;stroke-width:0.25;stroke-linecap:butt;stroke-linejoin:miter;stroke-miterlimit:4;stroke-opacity:1;stroke-dasharray:none"
         d="m 419.7359,174.12717 0.40802,-2.12711 0.92862,-5.24945 0.72788,-4.55749 0.56726,-4.02225 0.44693,-3.64614 0.36627,-3.42854 0.31839,-3.35121 0.27929,-3.37512 0.2439,-3.49834 0.21207,-3.72261 0.18377,-4.04707 0.15882,-4.47086 0.1372,-4.99309 0.11896,-5.61145 0.0958,-6.33001 0.0353,-7.19161 -0.0706,-8.214445 -0.22208,-9.398941 -0.41931,-10.743691 -0.66226,-12.247623 -0.95111,-13.910038 -1.28714,-15.747078"
         inkscape:connector-curvature="0" />
    </g>
  </g>
</svg>
