<?xml version="1.0" encoding="UTF-8" standalone="no"?>
<!-- Created with Inkscape (http://www.inkscape.org/) -->

<svg
   xmlns:dc="http://purl.org/dc/elements/1.1/"
   xmlns:cc="http://creativecommons.org/ns#"
   xmlns:rdf="http://www.w3.org/1999/02/22-rdf-syntax-ns#"
   xmlns:svg="http://www.w3.org/2000/svg"
   xmlns="http://www.w3.org/2000/svg"
   xmlns:sodipodi="http://sodipodi.sourceforge.net/DTD/sodipodi-0.dtd"
   xmlns:inkscape="http://www.inkscape.org/namespaces/inkscape"
   width="744.09448819"
   height="1052.3622047"
   id="svg4221"
   version="1.1"
   inkscape:version="0.48.2 r9819"
   sodipodi:docname="brickOutline.svg">
  <defs
     id="defs4223" />
  <sodipodi:namedview
     id="base"
     pagecolor="#ffffff"
     bordercolor="#666666"
     borderopacity="1.0"
     inkscape:pageopacity="0.0"
     inkscape:pageshadow="2"
     inkscape:zoom="0.35"
     inkscape:cx="375"
     inkscape:cy="520"
     inkscape:document-units="px"
     inkscape:current-layer="layer1"
     showgrid="false"
     inkscape:window-width="1680"
     inkscape:window-height="998"
     inkscape:window-x="-8"
     inkscape:window-y="-8"
     inkscape:window-maximized="1" />
  <metadata
     id="metadata4226">
    <rdf:RDF>
      <cc:Work
         rdf:about="">
        <dc:format>image/svg+xml</dc:format>
        <dc:type
           rdf:resource="http://purl.org/dc/dcmitype/StillImage" />
        <dc:title />
      </cc:Work>
    </rdf:RDF>
  </metadata>
  <g
     inkscape:label="Layer 1"
     inkscape:groupmode="layer"
     id="layer1">
    <g
       transform="matrix(0.18668303,-2.8019003,-2.8019003,-0.18668303,513.81235,1580.9428)"
       id="g8263">
      <path
         id="path8265"
         style="fill:none;stroke:#00ff00;stroke-width:0.25;stroke-linecap:butt;stroke-linejoin:miter;stroke-miterlimit:4;stroke-opacity:1;stroke-dasharray:none"
         d="m 278.43414,110.1063 c 0,1.37244 -3.03345,2.48503 -6.77541,2.48503 -3.74195,0 -6.7754,-1.11259 -6.7754,-2.48503 0,-1.37244 3.03345,-2.48503 6.7754,-2.48503 3.74196,0 6.77541,1.11259 6.77541,2.48503 z"
         inkscape:connector-curvature="0" />
    </g>
    <g
       transform="matrix(2.8081125,0,0,-2.8081125,-506.82873,1108.4182)"
       id="g8323">
      <path
         id="path8325"
         style="fill:none;stroke:#ff0000;stroke-width:0.25;stroke-linecap:butt;stroke-linejoin:miter;stroke-miterlimit:4;stroke-opacity:1;stroke-dasharray:none"
         d="m 290.52094,34.021542 0,159.999988 -100,0 0,-159.999988 100,0 z"
         inkscape:connector-curvature="0" />
    </g>
    <g
       transform="matrix(2.8081125,0,0,-2.8081125,-506.82873,1108.4182)"
       id="g8363">
      <path
         id="path8365"
         style="fill:none;stroke:#00ff00;stroke-width:0.25;stroke-linecap:butt;stroke-linejoin:miter;stroke-miterlimit:4;stroke-opacity:1;stroke-dasharray:none"
         d="m 202.71875,191.46796 -7.66129,0.71042 -1.73761,-2.21023 -0.23693,-4.18357 1.42167,-2.99956 3.55422,-0.55255 5.21283,2.84169 0.39491,3.39422 -0.9478,2.99958 z"
         inkscape:connector-curvature="0" />
    </g>
    <g
       transform="matrix(2.8081125,0,0,-2.8081125,-506.82873,1108.4182)"
       id="g8367">
      <path
         id="path8369"
         style="fill:none;stroke:#00ff00;stroke-width:0.25;stroke-linecap:butt;stroke-linejoin:miter;stroke-miterlimit:4;stroke-opacity:1;stroke-dasharray:none"
         d="m 207.69464,191.46796 -1.73761,-2.05234 0.23695,-1.89446 4.34403,-1.02616 2.36946,0.63148 1.18474,2.76276 -1.7376,1.65763 -3.6332,-0.55253 -1.02677,0.47362 z"
         inkscape:connector-curvature="0" />
    </g>
    <g
       transform="matrix(2.8081125,0,0,-2.8081125,-506.82873,1108.4182)"
       id="g8371">
      <path
         id="path8373"
         style="fill:none;stroke:#00ff00;stroke-width:0.25;stroke-linecap:butt;stroke-linejoin:miter;stroke-miterlimit:4;stroke-opacity:1;stroke-dasharray:none"
         d="m 221.3586,192.80986 -3.79116,-4.34148 -0.15797,-2.76275 4.02809,-0.55254 2.84338,0.55254 1.65864,2.52595 0,0.94724 -1.57966,1.5787 -0.71084,0.39469 -0.78983,1.49977 -1.50065,0.15788 z"
         inkscape:connector-curvature="0" />
    </g>
    <g
       transform="matrix(2.8081125,0,0,-2.8081125,-506.82873,1108.4182)"
       id="g8375">
      <path
         id="path8377"
         style="fill:none;stroke:#00ff00;stroke-width:0.25;stroke-linecap:butt;stroke-linejoin:miter;stroke-miterlimit:4;stroke-opacity:1;stroke-dasharray:none"
         d="m 216.30371,186.02138 -1.10574,1.81552 -0.78983,-1.10509 -2.68539,-2.447 -0.23696,-1.73661 0.94779,-1.3419 3.31727,-0.31574 1.34269,1.81553 0.23695,1.18402 -1.02678,2.13127 z"
         inkscape:connector-curvature="0" />
    </g>
    <g
       transform="matrix(2.8081125,0,0,-2.8081125,-506.82873,1108.4182)"
       id="g8379">
      <path
         id="path8381"
         style="fill:none;stroke:#00ff00;stroke-width:0.25;stroke-linecap:butt;stroke-linejoin:miter;stroke-miterlimit:4;stroke-opacity:1;stroke-dasharray:none"
         d="m 236.33742,189.92305 -4.2647,2.25645 -3.13582,-1.00286 -0.37629,-2.63253 0.37629,-3.63539 2.13236,-0.50142 3.13582,2.13109 2.50865,1.5043 -0.37631,1.88036 z"
         inkscape:connector-curvature="0" />
    </g>
    <g
       transform="matrix(2.8081125,0,0,-2.8081125,-506.82873,1108.4182)"
       id="g8383">
      <path
         id="path8385"
         style="fill:none;stroke:#00ff00;stroke-width:0.25;stroke-linecap:butt;stroke-linejoin:miter;stroke-miterlimit:4;stroke-opacity:1;stroke-dasharray:none"
         d="m 236.83916,192.43022 -1.25432,0 0.16934,-0.6723 0.61778,-0.61742 0.74134,-0.80264 0.3089,-0.8644 0.12355,-0.98786 1.11201,-0.37044 0.61778,0 0.67957,1.85225 -0.49423,2.71664 -2.62172,-0.25383 z"
         inkscape:connector-curvature="0" />
    </g>
    <g
       transform="matrix(2.8081125,0,0,-2.8081125,-506.82873,1108.4182)"
       id="g8387">
      <path
         id="path8389"
         style="fill:none;stroke:#00ff00;stroke-width:0.25;stroke-linecap:butt;stroke-linejoin:miter;stroke-miterlimit:4;stroke-opacity:1;stroke-dasharray:none"
         d="m 226.79633,186.32465 -1.66802,-1.17311 -0.92668,-1.35833 -0.3089,-1.79051 1.05025,-0.86438 3.21246,1.72876 -0.0618,1.54356 -1.29733,1.91401 z"
         inkscape:connector-curvature="0" />
    </g>
    <g
       transform="matrix(2.8081125,0,0,-2.8081125,-506.82873,1108.4182)"
       id="g8391">
      <path
         id="path8393"
         style="fill:none;stroke:#00ff00;stroke-width:0.25;stroke-linecap:butt;stroke-linejoin:miter;stroke-miterlimit:4;stroke-opacity:1;stroke-dasharray:none"
         d="m 223.08961,184.41064 -2.34756,-0.74092 -1.35912,-0.3087 -1.11203,-0.49394 -0.61776,-1.54353 -0.8649,-0.98787 -1.05023,-1.35832 -0.37069,-1.29657 -0.0618,-0.80266 1.97691,-0.43219 2.59468,1.42006 1.54445,0.55568 1.23557,1.42007 0.0618,1.42006 -0.0618,0.92613 0.43244,2.2227 z"
         inkscape:connector-curvature="0" />
    </g>
    <g
       transform="matrix(2.8081125,0,0,-2.8081125,-506.82873,1108.4182)"
       id="g8395">
      <path
         id="path8397"
         style="fill:none;stroke:#00ff00;stroke-width:0.25;stroke-linecap:butt;stroke-linejoin:miter;stroke-miterlimit:4;stroke-opacity:1;stroke-dasharray:none"
         d="m 208.69926,181.82143 1.04877,2.18362 -0.78657,1.31018 -2.18492,-0.17468 -1.66054,-0.9608 -1.57315,-2.27098 -1.74794,-1.04814 1.13617,-1.83426 0.87396,-2.00894 1.31096,-0.69877 4.36984,0.69877 -0.0874,2.35833 -0.69918,2.44567 z"
         inkscape:connector-curvature="0" />
    </g>
    <g
       transform="matrix(2.8081125,0,0,-2.8081125,-506.82873,1108.4182)"
       id="g8399">
      <path
         id="path8401"
         style="fill:none;stroke:#00ff00;stroke-width:0.25;stroke-linecap:butt;stroke-linejoin:miter;stroke-miterlimit:4;stroke-opacity:1;stroke-dasharray:none"
         d="m 211.40857,179.81248 -0.43698,-2.62036 0,-0.9608 0.87396,-1.22282 1.48575,-2.0963 1.13615,0 1.66056,2.27098 -1.22356,0.43672 -0.78658,0.43674 -0.0874,1.13548 0.61177,1.39753 -0.78658,1.31018 -2.44711,-0.0874 z"
         inkscape:connector-curvature="0" />
    </g>
    <g
       transform="matrix(2.8081125,0,0,-2.8081125,-506.82873,1108.4182)"
       id="g8403">
      <path
         id="path8405"
         style="fill:none;stroke:#00ff00;stroke-width:0.25;stroke-linecap:butt;stroke-linejoin:miter;stroke-miterlimit:4;stroke-opacity:1;stroke-dasharray:none"
         d="m 199.34779,180.59859 -3.32107,-0.43674 -1.48577,-1.65955 -0.34957,-1.65956 0.34957,-2.88238 2.62194,-1.65958 0.96135,1.22284 0.96136,3.40646 1.31096,1.31018 -1.04877,2.35833 z"
         inkscape:connector-curvature="0" />
    </g>
    <g
       transform="matrix(2.8081125,0,0,-2.8081125,-506.82873,1108.4182)"
       id="g8407">
      <path
         id="path8409"
         style="fill:none;stroke:#00ff00;stroke-width:0.25;stroke-linecap:butt;stroke-linejoin:miter;stroke-miterlimit:4;stroke-opacity:1;stroke-dasharray:none"
         d="m 201.62012,177.19212 -2.35971,-2.44568 -0.2622,-0.96078 -0.26219,-2.00894 0.43698,-1.22284 2.70931,-1.31018 1.74792,2.35832 0.78658,2.18364 -0.96135,1.83424 -0.61179,0.78612 -1.22355,0.7861 z"
         inkscape:connector-curvature="0" />
    </g>
    <g
       transform="matrix(2.8081125,0,0,-2.8081125,-506.82873,1108.4182)"
       id="g8411">
      <path
         id="path8413"
         style="fill:none;stroke:#00ff00;stroke-width:0.25;stroke-linecap:butt;stroke-linejoin:miter;stroke-miterlimit:4;stroke-opacity:1;stroke-dasharray:none"
         d="m 207.21352,175.44522 -1.57315,-1.1355 -0.17478,-1.39752 -0.78659,-2.79504 -0.52438,-1.48487 0.26219,-2.35832 1.83536,-0.52408 1.13614,0.61142 1.57315,2.88239 1.31096,1.13548 1.22355,1.22284 -0.52438,1.7469 -0.78658,0.87346 -0.34959,0.34938 -0.61177,0.9608 -2.01013,-0.0873 z"
         inkscape:connector-curvature="0" />
    </g>
    <g
       transform="matrix(2.8081125,0,0,-2.8081125,-506.82873,1108.4182)"
       id="g8415">
      <path
         id="path8417"
         style="fill:none;stroke:#00ff00;stroke-width:0.25;stroke-linecap:butt;stroke-linejoin:miter;stroke-miterlimit:4;stroke-opacity:1;stroke-dasharray:none"
         d="m 191.68489,181.61075 0,-3.08203 0.11014,-1.87123 0,-0.77051 1.10136,-0.22014 0.33043,1.98129 0.11014,1.65109 0,1.32088 0.44055,0.99065 -2.09262,0 z"
         inkscape:connector-curvature="0" />
    </g>
    <g
       transform="matrix(2.8081125,0,0,-2.8081125,-506.82873,1108.4182)"
       id="g8419">
      <path
         id="path8421"
         style="fill:none;stroke:#00ff00;stroke-width:0.25;stroke-linecap:butt;stroke-linejoin:miter;stroke-miterlimit:4;stroke-opacity:1;stroke-dasharray:none"
         d="m 192.6463,172.50208 6.4771,-5.01008 2.73367,-2.29495 0.10936,-1.2021 -0.54675,-2.73209 -0.76543,-3.1692 -1.6402,-1.96709 -1.53088,0.21857 -1.96826,2.18567 -1.20281,2.07635 -0.76544,2.07639 -0.32803,1.74853 -0.10936,2.18564 -0.76543,2.51352 0.30246,3.37084 z"
         inkscape:connector-curvature="0" />
    </g>
    <g
       transform="matrix(2.8081125,0,0,-2.8081125,-506.82873,1108.4182)"
       id="g8423">
      <path
         id="path8425"
         style="fill:none;stroke:#00ff00;stroke-width:0.25;stroke-linecap:butt;stroke-linejoin:miter;stroke-miterlimit:4;stroke-opacity:1;stroke-dasharray:none"
         d="m 192.99992,157.87511 -1.20282,-3.71564 0,-2.29494 0.21869,-2.07637 0.32805,-1.8578 1.53087,-0.43715 0.87477,0.87427 1.85892,1.52997 0.76543,1.31138 0.65609,1.9671 -0.10936,1.74854 -3.17108,1.2021 -0.54672,1.09282 -1.20284,0.65572 z"
         inkscape:connector-curvature="0" />
    </g>
    <g
       transform="matrix(2.8081125,0,0,-2.8081125,-506.82873,1108.4182)"
       id="g8427">
      <path
         id="path8429"
         style="fill:none;stroke:#00ff00;stroke-width:0.25;stroke-linecap:butt;stroke-linejoin:miter;stroke-miterlimit:4;stroke-opacity:1;stroke-dasharray:none"
         d="m 196.06166,146.07254 -0.87479,-6.11986 -3.17108,-0.65568 -0.32803,1.63923 0.43738,3.05992 3.93652,2.07639 z"
         inkscape:connector-curvature="0" />
    </g>
    <g
       transform="matrix(2.8081125,0,0,-2.8081125,-506.82873,1108.4182)"
       id="g8431">
      <path
         id="path8433"
         style="fill:none;stroke:#00ff00;stroke-width:0.25;stroke-linecap:butt;stroke-linejoin:miter;stroke-miterlimit:4;stroke-opacity:1;stroke-dasharray:none"
         d="m 197.48317,141.91977 -1.20282,-2.07636 -0.98413,-1.63925 -0.43739,-1.20212 -0.32805,-1.42066 -0.10935,-1.20212 0.6561,0.10928 1.20282,0.6557 0.87479,1.74852 0.21869,1.63925 0.10934,3.38776 z"
         inkscape:connector-curvature="0" />
    </g>
    <g
       transform="matrix(2.8081125,0,0,-2.8081125,-506.82873,1108.4182)"
       id="g8435">
      <path
         id="path8437"
         style="fill:none;stroke:#00ff00;stroke-width:0.25;stroke-linecap:butt;stroke-linejoin:miter;stroke-miterlimit:4;stroke-opacity:1;stroke-dasharray:none"
         d="m 192.67189,138.09488 -1.20283,-2.29494 -0.10935,-1.63925 0,-1.52997 1.64021,-0.43712 0.21871,2.40422 0.10934,2.18567 -0.65608,1.31139 z"
         inkscape:connector-curvature="0" />
    </g>
    <g
       transform="matrix(2.8081125,0,0,-2.8081125,-506.82873,1108.4182)"
       id="g8439">
      <path
         id="path8441"
         style="fill:none;stroke:#00ff00;stroke-width:0.25;stroke-linecap:butt;stroke-linejoin:miter;stroke-miterlimit:4;stroke-opacity:1;stroke-dasharray:none"
         d="m 197.37383,134.59782 -2.515,-2.40422 -1.31217,-2.40422 -1.64021,-1.20211 -0.43739,-3.05993 0,-3.49706 0.54673,-1.63924 1.42153,0.10928 1.64021,1.74853 1.20282,2.95064 0.87479,2.51351 0.10934,3.49705 0.10935,3.38777 z"
         inkscape:connector-curvature="0" />
    </g>
    <g
       transform="matrix(2.8081125,0,0,-2.8081125,-506.82873,1108.4182)"
       id="g8443">
      <path
         id="path8445"
         style="fill:none;stroke:#00ff00;stroke-width:0.25;stroke-linecap:butt;stroke-linejoin:miter;stroke-miterlimit:4;stroke-opacity:1;stroke-dasharray:none"
         d="m 192.01888,117.63509 3.40324,1.54601 1.08284,0.9276 0.77345,-2.93742 1.70162,-4.94724 0.92816,-3.86502 -0.46408,-2.31901 -1.39225,-1.85522 -2.47506,-2.00982 -1.39223,0.92761 -1.39223,2.16442 -0.15469,2.00982 0,4.01962 -0.77347,3.71043 0.1547,2.62822 z"
         inkscape:connector-curvature="0" />
    </g>
    <g
       transform="matrix(2.8081125,0,0,-2.8081125,-506.82873,1108.4182)"
       id="g8447">
      <path
         id="path8449"
         style="fill:none;stroke:#00ff00;stroke-width:0.25;stroke-linecap:butt;stroke-linejoin:miter;stroke-miterlimit:4;stroke-opacity:1;stroke-dasharray:none"
         d="m 191.86418,102.63879 1.54692,-2.31902 1.39224,-1.39141 1.54691,-2.473618 1.23756,-2.009811 0.15468,-2.009819 -1.08284,-2.62822 -1.85631,-2.628219 -1.85632,-2.319016 -1.39223,3.24662 0.46409,3.40123 0.30938,1.85521 0.15468,2.164413 -0.30937,1.700615 -0.46408,0.927612 0.15469,4.483433 z"
         inkscape:connector-curvature="0" />
    </g>
    <g
       transform="matrix(2.8081125,0,0,-2.8081125,-506.82873,1108.4182)"
       id="g8451">
      <path
         id="path8453"
         style="fill:none;stroke:#00ff00;stroke-width:0.25;stroke-linecap:butt;stroke-linejoin:miter;stroke-miterlimit:4;stroke-opacity:1;stroke-dasharray:none"
         d="m 201.45512,103.56639 -2.01101,-2.00981 -2.011,-2.62822 1.08284,-2.62822 1.23756,-1.855209 1.39221,-3.710426 0.46408,-2.473625 1.08286,-2.937417 0.77345,1.391411 -1.23753,5.874832 -0.92816,3.865036 0,2.782814 0.1547,4.328834 z"
         inkscape:connector-curvature="0" />
    </g>
    <g
       transform="matrix(2.8081125,0,0,-2.8081125,-506.82873,1108.4182)"
       id="g8455">
      <path
         id="path8457"
         style="fill:none;stroke:#00ff00;stroke-width:0.25;stroke-linecap:butt;stroke-linejoin:miter;stroke-miterlimit:4;stroke-opacity:1;stroke-dasharray:none"
         d="m 198.98003,89.03389 -2.32038,-1.700615 -1.39222,-2.62822 -1.85633,-2.937423 0.1547,-3.092019 3.24853,-3.555824 2.32039,-1.391403 3.40323,-0.77301 1.70163,4.638031 -1.70163,4.01963 -2.32037,2.164414 -0.92815,2.937423 -0.3094,2.319016 z"
         inkscape:connector-curvature="0" />
    </g>
    <g
       transform="matrix(2.8081125,0,0,-2.8081125,-506.82873,1108.4182)"
       id="g8459">
      <path
         id="path8461"
         style="fill:none;stroke:#00ff00;stroke-width:0.25;stroke-linecap:butt;stroke-linejoin:miter;stroke-miterlimit:4;stroke-opacity:1;stroke-dasharray:none"
         d="m 191.4001,75.583595 1.70163,-1.700615 1.08284,-1.39141 2.47508,-1.236802 2.47507,-1.546013 3.24855,0.154595 1.54692,0.463806 1.23753,-0.463806 0.46409,-1.236801 -0.15468,-3.246628 -0.77349,-2.628216 -0.46406,-3.710426 -0.92816,-2.628216 -2.32038,-0.309204 -3.86731,-0.309204 -2.01101,-0.618401 -1.23754,0 -0.46408,2.937424 0.1547,3.246616 2.32038,2.628216 0.1547,2.937424 -0.46408,0.463806 -0.92816,0.927605 -1.23754,0.309204 -0.77345,0.618408 -0.30939,1.236801 -0.61877,1.546013 -0.61878,1.700615 0.30939,1.855209 z"
         inkscape:connector-curvature="0" />
    </g>
    <g
       transform="matrix(2.8081125,0,0,-2.8081125,-506.82873,1108.4182)"
       id="g8463">
      <path
         id="path8465"
         style="fill:none;stroke:#00ff00;stroke-width:0.25;stroke-linecap:butt;stroke-linejoin:miter;stroke-miterlimit:4;stroke-opacity:1;stroke-dasharray:none"
         d="m 193.10173,67.544342 -1.23755,-0.77301 0,-1.85521 -0.15469,-1.08221 1.23753,-0.154598 0.77347,1.391403 0.46408,0.927612 -0.15469,1.391411 -0.92815,0.154602 z"
         inkscape:connector-curvature="0" />
    </g>
    <g
       transform="matrix(2.8081125,0,0,-2.8081125,-506.82873,1108.4182)"
       id="g8467">
      <path
         id="path8469"
         style="fill:none;stroke:#00ff00;stroke-width:0.25;stroke-linecap:butt;stroke-linejoin:miter;stroke-miterlimit:4;stroke-opacity:1;stroke-dasharray:none"
         d="m 192.01888,53.321041 8.81745,-0.3092 3.71264,1.082207 1.08284,0.309204 -1.08284,-4.792637 -1.70162,-1.546009 -1.70163,-1.700611 -0.61876,-2.473622 0.15468,-0.6184 -2.01099,-1.082211 -2.3204,-1.236809 0,-2.164413 -0.46407,-0.773003 -2.47508,-0.927608 -2.16569,2.164413 1.08285,5.874844 0.15468,2.009811 -1.08284,3.092022 0.46408,2.164414 0.1547,0.927608 z"
         inkscape:connector-curvature="0" />
    </g>
    <g
       transform="matrix(2.8081125,0,0,-2.8081125,-506.82873,1108.4182)"
       id="g8471">
      <path
         id="path8473"
         style="fill:none;stroke:#00ff00;stroke-width:0.25;stroke-linecap:butt;stroke-linejoin:miter;stroke-miterlimit:4;stroke-opacity:1;stroke-dasharray:none"
         d="m 202.38327,42.808166 -3.24855,-2.009815 -1.39223,-0.773002 -0.77347,-1.391411 0.15471,-0.773003 0,-1.391411 1.8563,-1.08221 1.08285,1.391411 0.92816,1.855213 0.92815,1.08221 1.54692,3.401223 -1.08284,-0.309205 z"
         inkscape:connector-curvature="0" />
    </g>
    <g
       transform="matrix(2.8081125,0,0,-2.8081125,-506.82873,1108.4182)"
       id="g8475">
      <path
         id="path8477"
         style="fill:none;stroke:#00ff00;stroke-width:0.25;stroke-linecap:butt;stroke-linejoin:miter;stroke-miterlimit:4;stroke-opacity:1;stroke-dasharray:none"
         d="m 278.32309,191.46796 7.66132,0.71042 1.73761,-2.21023 0.23696,-4.18357 -1.42169,-2.99956 -3.55423,-0.55255 -5.21283,2.84169 -0.39489,3.39422 0.94775,2.99958 z"
         inkscape:connector-curvature="0" />
    </g>
    <g
       transform="matrix(2.8081125,0,0,-2.8081125,-506.82873,1108.4182)"
       id="g8479">
      <path
         id="path8481"
         style="fill:none;stroke:#00ff00;stroke-width:0.25;stroke-linecap:butt;stroke-linejoin:miter;stroke-miterlimit:4;stroke-opacity:1;stroke-dasharray:none"
         d="m 273.34723,191.46796 1.73761,-2.05234 -0.23694,-1.89446 -4.34402,-1.02616 -2.36948,0.63148 -1.18472,2.76276 1.73758,1.65763 3.63317,-0.55253 1.0268,0.47362 z"
         inkscape:connector-curvature="0" />
    </g>
    <g
       transform="matrix(2.8081125,0,0,-2.8081125,-506.82873,1108.4182)"
       id="g8483">
      <path
         id="path8485"
         style="fill:none;stroke:#00ff00;stroke-width:0.25;stroke-linecap:butt;stroke-linejoin:miter;stroke-miterlimit:4;stroke-opacity:1;stroke-dasharray:none"
         d="m 259.68329,192.80986 3.79114,-4.34148 0.15796,-2.76275 -4.02808,-0.55254 -2.84338,0.55254 -1.65862,2.52595 0,0.94724 1.57964,1.5787 0.71084,0.39469 0.78983,1.49977 1.50067,0.15788 z"
         inkscape:connector-curvature="0" />
    </g>
    <g
       transform="matrix(2.8081125,0,0,-2.8081125,-506.82873,1108.4182)"
       id="g8487">
      <path
         id="path8489"
         style="fill:none;stroke:#00ff00;stroke-width:0.25;stroke-linecap:butt;stroke-linejoin:miter;stroke-miterlimit:4;stroke-opacity:1;stroke-dasharray:none"
         d="m 264.73816,186.02138 1.10574,1.81552 0.78983,-1.10509 2.68539,-2.447 0.23694,-1.73661 -0.94778,-1.3419 -3.31726,-0.31574 -1.34269,1.81553 -0.23697,1.18402 1.0268,2.13127 z"
         inkscape:connector-curvature="0" />
    </g>
    <g
       transform="matrix(2.8081125,0,0,-2.8081125,-506.82873,1108.4182)"
       id="g8491">
      <path
         id="path8493"
         style="fill:none;stroke:#00ff00;stroke-width:0.25;stroke-linecap:butt;stroke-linejoin:miter;stroke-miterlimit:4;stroke-opacity:1;stroke-dasharray:none"
         d="m 244.70445,189.92305 4.2647,2.25645 3.13582,-1.00286 0.37629,-2.63253 -0.37629,-3.63539 -2.13236,-0.50142 -3.1358,2.13109 -2.50865,1.5043 0.37629,1.88036 z"
         inkscape:connector-curvature="0" />
    </g>
    <g
       transform="matrix(2.8081125,0,0,-2.8081125,-506.82873,1108.4182)"
       id="g8495">
      <path
         id="path8497"
         style="fill:none;stroke:#00ff00;stroke-width:0.25;stroke-linecap:butt;stroke-linejoin:miter;stroke-miterlimit:4;stroke-opacity:1;stroke-dasharray:none"
         d="m 244.20271,192.43022 1.25434,0 -0.16936,-0.6723 -0.61778,-0.61742 -0.74134,-0.80264 -0.3089,-0.8644 -0.12355,-0.98786 -1.11201,-0.37044 -0.61777,0 -0.67958,1.85225 0.49423,2.71664 2.62172,-0.25383 z"
         inkscape:connector-curvature="0" />
    </g>
    <g
       transform="matrix(2.8081125,0,0,-2.8081125,-506.82873,1108.4182)"
       id="g8499">
      <path
         id="path8501"
         style="fill:none;stroke:#00ff00;stroke-width:0.25;stroke-linecap:butt;stroke-linejoin:miter;stroke-miterlimit:4;stroke-opacity:1;stroke-dasharray:none"
         d="m 254.24554,186.32465 1.66803,-1.17311 0.92667,-1.35833 0.3089,-1.79051 -1.05023,-0.86438 -3.21248,1.72876 0.0618,1.54356 1.29733,1.91401 z"
         inkscape:connector-curvature="0" />
    </g>
    <g
       transform="matrix(2.8081125,0,0,-2.8081125,-506.82873,1108.4182)"
       id="g8503">
      <path
         id="path8505"
         style="fill:none;stroke:#00ff00;stroke-width:0.25;stroke-linecap:butt;stroke-linejoin:miter;stroke-miterlimit:4;stroke-opacity:1;stroke-dasharray:none"
         d="m 257.95227,184.41064 2.34757,-0.74092 1.3591,-0.3087 1.11203,-0.49394 0.61776,-1.54353 0.8649,-0.98787 1.05023,-1.35832 0.37067,-1.29657 0.0618,-0.80266 -1.97693,-0.43219 -2.59467,1.42006 -1.54446,0.55568 -1.23557,1.42007 -0.0618,1.42006 0.0618,0.92613 -0.43243,2.2227 z"
         inkscape:connector-curvature="0" />
    </g>
    <g
       transform="matrix(2.8081125,0,0,-2.8081125,-506.82873,1108.4182)"
       id="g8507">
      <path
         id="path8509"
         style="fill:none;stroke:#00ff00;stroke-width:0.25;stroke-linecap:butt;stroke-linejoin:miter;stroke-miterlimit:4;stroke-opacity:1;stroke-dasharray:none"
         d="m 272.34259,181.82143 -1.04874,2.18362 0.78656,1.31018 2.18494,-0.17468 1.66052,-0.9608 1.57312,-2.27098 1.74799,-1.04814 -1.13617,-1.83426 -0.87396,-2.00894 -1.31098,-0.69877 -4.36984,0.69877 0.0874,2.35833 0.69916,2.44567 z"
         inkscape:connector-curvature="0" />
    </g>
    <g
       transform="matrix(2.8081125,0,0,-2.8081125,-506.82873,1108.4182)"
       id="g8511">
      <path
         id="path8513"
         style="fill:none;stroke:#00ff00;stroke-width:0.25;stroke-linecap:butt;stroke-linejoin:miter;stroke-miterlimit:4;stroke-opacity:1;stroke-dasharray:none"
         d="m 269.6333,179.81248 0.43698,-2.62036 0,-0.9608 -0.87396,-1.22282 -1.48575,-2.0963 -1.13617,0 -1.66052,2.27098 1.22354,0.43672 0.78659,0.43674 0.0874,1.13548 -0.61175,1.39753 0.78656,1.31018 2.44711,-0.0874 z"
         inkscape:connector-curvature="0" />
    </g>
    <g
       transform="matrix(2.8081125,0,0,-2.8081125,-506.82873,1108.4182)"
       id="g8515">
      <path
         id="path8517"
         style="fill:none;stroke:#00ff00;stroke-width:0.25;stroke-linecap:butt;stroke-linejoin:miter;stroke-miterlimit:4;stroke-opacity:1;stroke-dasharray:none"
         d="m 281.69409,180.59859 3.32108,-0.43674 1.48572,-1.65955 0.3496,-1.65956 -0.3496,-2.88238 -2.62189,-1.65958 -0.96137,1.22284 -0.96136,3.40646 -1.31095,1.31018 1.04877,2.35833 z"
         inkscape:connector-curvature="0" />
    </g>
    <g
       transform="matrix(2.8081125,0,0,-2.8081125,-506.82873,1108.4182)"
       id="g8519">
      <path
         id="path8521"
         style="fill:none;stroke:#00ff00;stroke-width:0.25;stroke-linecap:butt;stroke-linejoin:miter;stroke-miterlimit:4;stroke-opacity:1;stroke-dasharray:none"
         d="m 279.42175,177.19212 2.35971,-2.44568 0.26218,-0.96078 0.26221,-2.00894 -0.43698,-1.22284 -2.70932,-1.31018 -1.74793,2.35832 -0.78656,2.18364 0.96137,1.83424 0.61178,0.78612 1.22354,0.7861 z"
         inkscape:connector-curvature="0" />
    </g>
    <g
       transform="matrix(2.8081125,0,0,-2.8081125,-506.82873,1108.4182)"
       id="g8523">
      <path
         id="path8525"
         style="fill:none;stroke:#00ff00;stroke-width:0.25;stroke-linecap:butt;stroke-linejoin:miter;stroke-miterlimit:4;stroke-opacity:1;stroke-dasharray:none"
         d="m 273.82834,175.44522 1.57315,-1.1355 0.1748,-1.39752 0.78659,-2.79504 0.52436,-1.48487 -0.26218,-2.35832 -1.83533,-0.52408 -1.13617,0.61142 -1.57315,2.88239 -1.31094,1.13548 -1.22354,1.22284 0.52435,1.7469 0.78659,0.87346 0.34955,0.34938 0.61182,0.9608 2.0101,-0.0873 z"
         inkscape:connector-curvature="0" />
    </g>
    <g
       transform="matrix(2.8081125,0,0,-2.8081125,-506.82873,1108.4182)"
       id="g8527">
      <path
         id="path8529"
         style="fill:none;stroke:#00ff00;stroke-width:0.25;stroke-linecap:butt;stroke-linejoin:miter;stroke-miterlimit:4;stroke-opacity:1;stroke-dasharray:none"
         d="m 289.35699,181.61075 0,-3.08203 -0.11013,-1.87123 0,-0.77051 -1.10138,-0.22014 -0.33045,1.98129 -0.1101,1.65109 0,1.32088 -0.44059,0.99065 2.09265,0 z"
         inkscape:connector-curvature="0" />
    </g>
    <g
       transform="matrix(2.8081125,0,0,-2.8081125,-506.82873,1108.4182)"
       id="g8531">
      <path
         id="path8533"
         style="fill:none;stroke:#00ff00;stroke-width:0.25;stroke-linecap:butt;stroke-linejoin:miter;stroke-miterlimit:4;stroke-opacity:1;stroke-dasharray:none"
         d="m 288.39557,172.50208 -6.47708,-5.01008 -2.73368,-2.29495 -0.10934,-1.2021 0.54669,-2.73209 0.76544,-3.1692 1.64023,-1.96709 1.53086,0.21857 1.96826,2.18567 1.20285,2.07635 0.76541,2.07639 0.32806,1.74853 0.10935,2.18564 0.76544,2.51352 -0.30249,3.37084 z"
         inkscape:connector-curvature="0" />
    </g>
    <g
       transform="matrix(2.8081125,0,0,-2.8081125,-506.82873,1108.4182)"
       id="g8535">
      <path
         id="path8537"
         style="fill:none;stroke:#00ff00;stroke-width:0.25;stroke-linecap:butt;stroke-linejoin:miter;stroke-miterlimit:4;stroke-opacity:1;stroke-dasharray:none"
         d="m 288.04196,157.87511 1.20282,-3.71564 0,-2.29494 -0.21869,-2.07637 -0.32803,-1.8578 -1.53088,-0.43715 -0.87479,0.87427 -1.85892,1.52997 -0.76544,1.31138 -0.65607,1.9671 0.10935,1.74854 3.17108,1.2021 0.54675,1.09282 1.20282,0.65572 z"
         inkscape:connector-curvature="0" />
    </g>
    <g
       transform="matrix(2.8081125,0,0,-2.8081125,-506.82873,1108.4182)"
       id="g8539">
      <path
         id="path8541"
         style="fill:none;stroke:#00ff00;stroke-width:0.25;stroke-linecap:butt;stroke-linejoin:miter;stroke-miterlimit:4;stroke-opacity:1;stroke-dasharray:none"
         d="m 284.98022,146.07254 0.87479,-6.11986 3.17108,-0.65568 0.32804,1.63923 -0.43738,3.05992 -3.93653,2.07639 z"
         inkscape:connector-curvature="0" />
    </g>
    <g
       transform="matrix(2.8081125,0,0,-2.8081125,-506.82873,1108.4182)"
       id="g8543">
      <path
         id="path8545"
         style="fill:none;stroke:#00ff00;stroke-width:0.25;stroke-linecap:butt;stroke-linejoin:miter;stroke-miterlimit:4;stroke-opacity:1;stroke-dasharray:none"
         d="m 283.55869,141.91977 1.20285,-2.07636 0.98413,-1.63925 0.43737,-1.20212 0.32804,-1.42066 0.10934,-1.20212 -0.65606,0.10928 -1.20282,0.6557 -0.87479,1.74852 -0.21872,1.63925 -0.10934,3.38776 z"
         inkscape:connector-curvature="0" />
    </g>
    <g
       transform="matrix(2.8081125,0,0,-2.8081125,-506.82873,1108.4182)"
       id="g8547">
      <path
         id="path8549"
         style="fill:none;stroke:#00ff00;stroke-width:0.25;stroke-linecap:butt;stroke-linejoin:miter;stroke-miterlimit:4;stroke-opacity:1;stroke-dasharray:none"
         d="m 288.37,138.09488 1.20281,-2.29494 0.10938,-1.63925 0,-1.52997 -1.64023,-0.43712 -0.21869,2.40422 -0.10934,2.18567 0.65607,1.31139 z"
         inkscape:connector-curvature="0" />
    </g>
    <g
       transform="matrix(2.8081125,0,0,-2.8081125,-506.82873,1108.4182)"
       id="g8551">
      <path
         id="path8553"
         style="fill:none;stroke:#00ff00;stroke-width:0.25;stroke-linecap:butt;stroke-linejoin:miter;stroke-miterlimit:4;stroke-opacity:1;stroke-dasharray:none"
         d="m 283.66803,134.59782 2.51501,-2.40422 1.31217,-2.40422 1.64023,-1.20211 0.43737,-3.05993 0,-3.49706 -0.54672,-1.63924 -1.42154,0.10928 -1.64019,1.74853 -1.20282,2.95064 -0.87479,2.51351 -0.10935,3.49705 -0.10937,3.38777 z"
         inkscape:connector-curvature="0" />
    </g>
    <g
       transform="matrix(2.8081125,0,0,-2.8081125,-506.82873,1108.4182)"
       id="g8555">
      <path
         id="path8557"
         style="fill:none;stroke:#00ff00;stroke-width:0.25;stroke-linecap:butt;stroke-linejoin:miter;stroke-miterlimit:4;stroke-opacity:1;stroke-dasharray:none"
         d="m 289.02301,117.63509 -3.40323,1.54601 -1.08285,0.9276 -0.77347,-2.93742 -1.70163,-4.94724 -0.92813,-3.86502 0.46405,-2.31901 1.39224,-1.85522 2.4751,-2.00982 1.39221,0.92761 1.39224,2.16442 0.1547,2.00982 0,4.01962 0.77346,3.71043 -0.15469,2.62822 z"
         inkscape:connector-curvature="0" />
    </g>
    <g
       transform="matrix(2.8081125,0,0,-2.8081125,-506.82873,1108.4182)"
       id="g8559">
      <path
         id="path8561"
         style="fill:none;stroke:#00ff00;stroke-width:0.25;stroke-linecap:butt;stroke-linejoin:miter;stroke-miterlimit:4;stroke-opacity:1;stroke-dasharray:none"
         d="m 289.1777,102.63879 -1.54696,-2.31902 -1.39221,-1.39141 -1.54691,-2.473618 -1.23755,-2.009811 -0.15469,-2.009819 1.08282,-2.62822 1.85633,-2.628219 1.85632,-2.319016 1.39221,3.24662 -0.46405,3.40123 -0.30942,1.85521 -0.15469,2.164413 0.30939,1.700615 0.46411,0.927612 -0.1547,4.483433 z"
         inkscape:connector-curvature="0" />
    </g>
    <g
       transform="matrix(2.8081125,0,0,-2.8081125,-506.82873,1108.4182)"
       id="g8563">
      <path
         id="path8565"
         style="fill:none;stroke:#00ff00;stroke-width:0.25;stroke-linecap:butt;stroke-linejoin:miter;stroke-miterlimit:4;stroke-opacity:1;stroke-dasharray:none"
         d="m 279.58676,103.56639 2.01099,-2.00981 2.01101,-2.62822 -1.08285,-2.62822 -1.23752,-1.855209 -1.39227,-3.710426 -0.46405,-2.473625 -1.08286,-2.937417 -0.77347,1.391411 1.23758,5.874832 0.92814,3.865036 0,2.782814 -0.1547,4.328834 z"
         inkscape:connector-curvature="0" />
    </g>
    <g
       transform="matrix(2.8081125,0,0,-2.8081125,-506.82873,1108.4182)"
       id="g8567">
      <path
         id="path8569"
         style="fill:none;stroke:#00ff00;stroke-width:0.25;stroke-linecap:butt;stroke-linejoin:miter;stroke-miterlimit:4;stroke-opacity:1;stroke-dasharray:none"
         d="m 282.06183,89.03389 2.32037,-1.700615 1.39228,-2.62822 1.85626,-2.937423 -0.15467,-3.092019 -3.24856,-3.555824 -2.32037,-1.391403 -3.40323,-0.77301 -1.7016,4.638031 1.7016,4.01963 2.32037,2.164414 0.92816,2.937423 0.30939,2.319016 z"
         inkscape:connector-curvature="0" />
    </g>
    <g
       transform="matrix(2.8081125,0,0,-2.8081125,-506.82873,1108.4182)"
       id="g8571">
      <path
         id="path8573"
         style="fill:none;stroke:#00ff00;stroke-width:0.25;stroke-linecap:butt;stroke-linejoin:miter;stroke-miterlimit:4;stroke-opacity:1;stroke-dasharray:none"
         d="m 289.64175,75.583595 -1.70159,-1.700615 -1.08286,-1.39141 -2.4751,-1.236802 -2.47506,-1.546013 -3.24854,0.154595 -1.54691,0.463806 -1.23754,-0.463806 -0.46412,-1.236801 0.15473,-3.246628 0.77344,-2.628216 0.46411,-3.710426 0.92816,-2.628216 2.32037,-0.309204 3.86731,-0.309204 2.01099,-0.618401 1.23755,0 0.46405,2.937424 -0.15467,3.246616 -2.3204,2.628216 -0.15466,2.937424 0.46408,0.463806 0.92813,0.927605 1.23752,0.309204 0.7735,0.618408 0.30935,1.236801 0.61881,1.546013 0.61877,1.700615 -0.30942,1.855209 z"
         inkscape:connector-curvature="0" />
    </g>
    <g
       transform="matrix(2.8081125,0,0,-2.8081125,-506.82873,1108.4182)"
       id="g8575">
      <path
         id="path8577"
         style="fill:none;stroke:#00ff00;stroke-width:0.25;stroke-linecap:butt;stroke-linejoin:miter;stroke-miterlimit:4;stroke-opacity:1;stroke-dasharray:none"
         d="m 287.94016,67.544342 1.23754,-0.77301 0,-1.85521 0.1547,-1.08221 -1.23755,-0.154598 -0.77347,1.391403 -0.46408,0.927612 0.15469,1.391411 0.92817,0.154602 z"
         inkscape:connector-curvature="0" />
    </g>
    <g
       transform="matrix(2.8081125,0,0,-2.8081125,-506.82873,1108.4182)"
       id="g8579">
      <path
         id="path8581"
         style="fill:none;stroke:#00ff00;stroke-width:0.25;stroke-linecap:butt;stroke-linejoin:miter;stroke-miterlimit:4;stroke-opacity:1;stroke-dasharray:none"
         d="m 289.02301,53.321041 -8.81747,-0.3092 -3.71265,1.082207 -1.08286,0.309204 1.08286,-4.792637 1.70163,-1.546009 1.7016,-1.700611 0.6188,-2.473622 -0.15469,-0.6184 2.01102,-1.082211 2.32037,-1.236809 0,-2.164413 0.46405,-0.773003 2.47507,-0.927608 2.16571,2.164413 -1.08286,5.874844 -0.15469,2.009811 1.08285,3.092022 -0.46405,2.164414 -0.15469,0.927608 z"
         inkscape:connector-curvature="0" />
    </g>
    <g
       transform="matrix(2.8081125,0,0,-2.8081125,-506.82873,1108.4182)"
       id="g8583">
      <path
         id="path8585"
         style="fill:none;stroke:#00ff00;stroke-width:0.25;stroke-linecap:butt;stroke-linejoin:miter;stroke-miterlimit:4;stroke-opacity:1;stroke-dasharray:none"
         d="m 278.6586,42.808166 3.24854,-2.009815 1.39224,-0.773002 0.77347,-1.391411 -0.1547,-0.773003 0,-1.391411 -1.85632,-1.08221 -1.08283,1.391411 -0.92816,1.855213 -0.92816,1.08221 -1.54694,3.401223 1.08286,-0.309205 z"
         inkscape:connector-curvature="0" />
    </g>
    <g
       transform="matrix(2.8081125,0,0,-2.8081125,-506.82873,1108.4182)"
       id="g8587">
      <path
         id="path8589"
         style="fill:none;stroke:#00ff00;stroke-width:0.25;stroke-linecap:butt;stroke-linejoin:miter;stroke-miterlimit:4;stroke-opacity:1;stroke-dasharray:none"
         d="m 257.93893,124.4417 0.11115,0.81963 0.22784,2.03646 0.15476,1.82214 0.0916,1.65871 0.037,1.55513 -0.0126,1.51788 -0.0613,1.54888 -0.11148,1.62373 -0.15821,1.64403 -0.20263,1.57547 -0.24979,1.49231 -0.30102,1.4169 -0.35669,1.35208 -0.41846,1.30124 -0.48938,1.26782 -0.53391,1.16759 -0.43411,0.79478 -0.37834,0.5495 -0.76781,0.87596 -1.70973,1.57218 -3.07759,2.3651 -4.72551,3.14323 -4.05189,2.40344 -4.0519,-2.40344 -4.72551,-3.14323 -3.07759,-2.3651 -1.70973,-1.57218 -0.76781,-0.87596 -0.37836,-0.5495 -0.43409,-0.79478 -0.53392,-1.16759 -0.48937,-1.26782 -0.41847,-1.30124 -0.35669,-1.35208 -0.30101,-1.4169 -0.24979,-1.49231 -0.20263,-1.57547 -0.15821,-1.64403 -0.11148,-1.62373 -0.0613,-1.54888 -0.0126,-1.51788 0.037,-1.55513 0.0916,-1.65871 0.15472,-1.82214 0.22786,-2.03646 0.11113,-0.81963 34.83601,0 z"
         inkscape:connector-curvature="0" />
    </g>
    <g
       transform="matrix(2.8081125,0,0,-2.8081125,-506.82873,1108.4182)"
       id="g8779">
      <path
         id="path8781"
         style="fill:none;stroke:#000000;stroke-width:0.25;stroke-linecap:butt;stroke-linejoin:miter;stroke-miterlimit:4;stroke-opacity:1;stroke-dasharray:none"
         d="m 201.50871,34.021542 0,0 1.81461,3.978626 1.49559,3.701752 1.2064,3.45327 0.94698,3.233177 0.71738,3.041477 0.51756,2.878155 0.34756,2.743225 0.20739,2.636688 0.0942,2.553764 -0.003,2.475418 -0.0875,2.396882 -0.15881,2.318161 -0.21711,2.239234 -0.26231,2.160126 -0.29452,2.080818 -0.31371,2.00132 -0.32301,1.928749 -0.33518,1.891556 -0.35339,1.896828 -0.37766,1.944588 -0.40794,2.034828 -0.44428,2.167564 -0.48664,2.342766 -0.53508,2.560463 -0.58554,2.803863 -0.62211,3.00584 -0.64076,3.14963 -0.64152,3.23522 -0.62441,3.26263 -0.58937,3.23184 -0.53645,3.14285 -0.46564,2.99566 -0.3804,2.80555 -0.29465,2.63343 -0.21184,2.49456 -0.13198,2.38899 -0.0551,2.31663 0.0188,2.27758 0.0898,2.27174 0.15787,2.2992 0.22644,2.35331 0.3097,2.40778 0.41111,2.45602 0.53068,2.49802 0.66843,2.53378 0.82434,2.56333 0.99841,2.58664 1.19066,2.60371 1.4362,2.62955 1.87566,2.72413 2.54408,2.9025 3.44152,3.1646 4.56802,3.51046 5.92346,3.9401 7.50798,4.45346 9.32151,5.05061"
         inkscape:connector-curvature="0" />
    </g>
    <g
       transform="matrix(2.8081125,0,0,-2.8081125,-506.82873,1108.4182)"
       id="g8783">
      <path
         id="path8785"
         style="fill:none;stroke:#000000;stroke-width:0.25;stroke-linecap:butt;stroke-linejoin:miter;stroke-miterlimit:4;stroke-opacity:1;stroke-dasharray:none"
         d="m 279.53314,34.021542 0,0 -1.81457,3.978626 -1.49564,3.701752 -1.20636,3.45327 -0.94696,3.233177 -0.71741,3.041477 -0.51757,2.878155 -0.34757,2.743225 -0.20734,2.636688 -0.0942,2.553764 0.003,2.475418 0.0875,2.396882 0.15881,2.318161 0.2171,2.239234 0.26233,2.160126 0.29452,2.080818 0.3137,2.00132 0.32302,1.928749 0.33521,1.891556 0.35336,1.896828 0.37766,1.944588 0.40796,2.034828 0.44427,2.167564 0.48666,2.342766 0.53507,2.560463 0.58554,2.803863 0.62207,3.00584 0.64078,3.14963 0.64154,3.23522 0.62439,3.26263 0.58935,3.23184 0.53647,3.14285 0.46564,2.99566 0.3804,2.80555 0.29465,2.63343 0.21185,2.49456 0.13199,2.38899 0.0551,2.31663 -0.0189,2.27758 -0.0898,2.27174 -0.15787,2.2992 -0.22644,2.35331 -0.30972,2.40778 -0.4111,2.45602 -0.53067,2.49802 -0.66843,2.53378 -0.82431,2.56333 -0.99844,2.58664 -1.19065,2.60371 -1.43625,2.62955 -1.87561,2.72413 -2.54409,2.9025 -3.44153,3.1646 -4.56799,3.51046 -5.9235,3.9401 -7.50796,4.45346 -9.3215,5.05061"
         inkscape:connector-curvature="0" />
    </g>
  </g>
</svg>
