999
DXF created by Inkscape
  0
SECTION
  2
HEADER
  9
$ACADVER
  1
AC1014
  9
$HANDSEED
  5
FFFF
  9
$MEASUREMENT
 70
     1
  0
ENDSEC
  0
SECTION
  2
TABLES
  0
TABLE
  2
VPORT
  5
8
330
0
100
AcDbSymbolTable
 70
     4
  0
VPORT
  5
2E
330
8
100
AcDbSymbolTableRecord
100
AcDbViewportTableRecord
  2
*ACTIVE
 70
     0
 10
0.0
 20
0.0
 11
1.0
 21
1.0
 12
210.0
 22
148.5
 13
0.0
 23
0.0
 14
10.0
 24
10.0
 15
10.0
 25
10.0
 16
0.0
 26
0.0
 36
1.0
 17
0.0
 27
0.0
 37
0.0
 40
341.0
 41
1.24
 42
50.0
 43
0.0
 44
0.0
 50
0.0
 51
0.0
 71
     0
 72
   100
 73
     1
 74
     3
 75
     0
 76
     0
 77
     0
 78
     0
  0
ENDTAB
  0
TABLE
  2
LTYPE
  5
5
330
0
100
AcDbSymbolTable
 70
     1
  0
LTYPE
  5
14
330
5
100
AcDbSymbolTableRecord
100
AcDbLinetypeTableRecord
  2
BYBLOCK
 70
     0
  3

 72
    65
 73
     0
 40
0.0
  0
LTYPE
  5
15
330
5
100
AcDbSymbolTableRecord
100
AcDbLinetypeTableRecord
  2
BYLAYER
 70
     0
  3

 72
    65
 73
     0
 40
0.0
  0
LTYPE
  5
16
330
5
100
AcDbSymbolTableRecord
100
AcDbLinetypeTableRecord
  2
CONTINUOUS
 70
     0
  3
Solid line
 72
    65
 73
     0
 40
0.0
  0
ENDTAB
  0
TABLE
  2
LAYER
  5
2
100
AcDbSymbolTable
 70
2
  0
LAYER
  5
50
100
AcDbSymbolTableRecord
100
AcDbLayerTableRecord
  2
0
 70
0
  6
CONTINUOUS
  0
LAYER
  5
51
100
AcDbSymbolTableRecord
100
AcDbLayerTableRecord
  2
Layer_1
 70
0
  6
CONTINUOUS
  0
ENDTAB
  0
TABLE
  2
STYLE
  5
3
330
0
100
AcDbSymbolTable
 70
     1
  0
STYLE
  5
11
330
3
100
AcDbSymbolTableRecord
100
AcDbTextStyleTableRecord
  2
STANDARD
 70
     0
 40
0.0
 41
1.0
 50
0.0
 71
     0
 42
2.5
  3
txt
  4

  0
ENDTAB
  0
TABLE
  2
VIEW
  5
6
330
0
100
AcDbSymbolTable
 70
     0
  0
ENDTAB
  0
TABLE
  2
UCS
  5
7
330
0
100
AcDbSymbolTable
 70
     0
  0
ENDTAB
  0
TABLE
  2
APPID
  5
9
330
0
100
AcDbSymbolTable
 70
     2
  0
APPID
  5
12
330
9
100
AcDbSymbolTableRecord
100
AcDbRegAppTableRecord
  2
ACAD
 70
     0
  0
ENDTAB
  0
TABLE
  2
DIMSTYLE
  5
A
330
0
100
AcDbSymbolTable
 70
     1
  0
DIMSTYLE
105
27
330
A
100
AcDbSymbolTableRecord
100
AcDbDimStyleTableRecord
  2
ISO-25
 70
     0
  3

  4

  5

  6

  7

 40
1.0
 41
2.5
 42
0.625
 43
3.75
 44
1.25
 45
0.0
 46
0.0
 47
0.0
 48
0.0
140
2.5
141
2.5
142
0.0
143
0.03937007874016
144
1.0
145
0.0
146
1.0
147
0.625
 71
     0
 72
     0
 73
     0
 74
     0
 75
     0
 76
     0
 77
     1
 78
     8
170
     0
171
     3
172
     1
173
     0
174
     0
175
     0
176
     0
177
     0
178
     0
270
     2
271
     2
272
     2
273
     2
274
     3
340
11
275
     0
280
     0
281
     0
282
     0
283
     0
284
     8
285
     0
286
     0
287
     3
288
     0
  0
ENDTAB
  0
TABLE
  2
BLOCK_RECORD
  5
1
330
0
100
AcDbSymbolTable
 70
     1
  0
BLOCK_RECORD
  5
1F
330
1
100
AcDbSymbolTableRecord
100
AcDbBlockTableRecord
  2
*MODEL_SPACE
  0
BLOCK_RECORD
  5
1B
330
1
100
AcDbSymbolTableRecord
100
AcDbBlockTableRecord
  2
*PAPER_SPACE
  0
ENDTAB
  0
ENDSEC
  0
SECTION
  2
BLOCKS
  0
BLOCK
  5
20
330
1F
100
AcDbEntity
  8
0
100
AcDbBlockBegin
  2
*MODEL_SPACE
 70
     0
 10
0.0
 20
0.0
 30
0.0
  3
*MODEL_SPACE
  1

  0
ENDBLK
  5
21
330
1F
100
AcDbEntity
  8
0
100
AcDbBlockEnd
  0
BLOCK
  5
1C
330
1B
100
AcDbEntity
 67
     1
  8
0
100
AcDbBlockBegin
  2
*PAPER_SPACE
  1

  0
ENDBLK
  5
1D
330
1B
100
AcDbEntity
 67
     1
  8
0
100
AcDbBlockEnd
  0
ENDSEC
  0
SECTION
  2
ENTITIES
  0
SPLINE
  5
100
100
AcDbEntity
  8
Layer_1
 62
3
100
AcDbSpline
 70
8
 71
3
 72
8
 73
4
 74
0
 40
0
 40
0
 40
0
 40
0
 40
1
 40
1
 40
1
 40
1
 10
72.611376
 20
76.798052
 30
0.0
 10
71.526108
 20
76.870361
 30
0.0
 10
70.486497
 20
74.530252
 30
0.0
 10
70.289348
 20
71.571266
 30
0.0
  0
SPLINE
  5
101
100
AcDbEntity
  8
Layer_1
 62
3
100
AcDbSpline
 70
8
 71
3
 72
8
 73
4
 74
0
 40
0
 40
0
 40
0
 40
0
 40
1
 40
1
 40
1
 40
1
 10
70.289348
 20
71.571266
 30
0.0
 10
70.092199
 20
68.612287
 30
0.0
 10
70.812168
 20
66.154942
 30
0.0
 10
71.897437
 20
66.082634
 30
0.0
  0
SPLINE
  5
102
100
AcDbEntity
  8
Layer_1
 62
3
100
AcDbSpline
 70
8
 71
3
 72
8
 73
4
 74
0
 40
0
 40
0
 40
0
 40
0
 40
1
 40
1
 40
1
 40
1
 10
71.897437
 20
66.082634
 30
0.0
 10
72.982706
 20
66.010325
 30
0.0
 10
74.022316
 20
68.350434
 30
0.0
 10
74.219465
 20
71.309412
 30
0.0
  0
SPLINE
  5
103
100
AcDbEntity
  8
Layer_1
 62
3
100
AcDbSpline
 70
8
 71
3
 72
8
 73
4
 74
0
 40
0
 40
0
 40
0
 40
0
 40
1
 40
1
 40
1
 40
1
 10
74.219465
 20
71.309412
 30
0.0
 10
74.416614
 20
74.268399
 30
0.0
 10
73.696645
 20
76.725744
 30
0.0
 10
72.611376
 20
76.798052
 30
0.0
  0
LWPOLYLINE
  5
104
100
AcDbEntity
  8
Layer_1
 62
3
100
AcDbPolyline
 90
2
 70
0
 10
72.611376
 20
76.798052
 30
0.0
 10
72.611376
 20
76.798052
 30
0.0
  0
LWPOLYLINE
  5
105
100
AcDbEntity
  8
Layer_1
 62
1
100
AcDbPolyline
 90
6
 70
0
 10
87.202928
 20
11.142224
 30
0.0
 10
87.202928
 20
137.944095
 30
0.0
 10
7.951753
 20
137.944095
 30
0.0
 10
7.951753
 20
11.142224
 30
0.0
 10
87.202928
 20
11.142224
 30
0.0
 10
87.202928
 20
11.142224
 30
0.0
  0
LWPOLYLINE
  5
106
100
AcDbEntity
  8
Layer_1
 62
3
100
AcDbPolyline
 90
10
 70
0
 10
17.618661
 20
135.920360
 30
0.0
 10
11.546999
 20
136.483377
 30
0.0
 10
10.169922
 20
134.731743
 30
0.0
 10
9.982152
 20
131.416215
 30
0.0
 10
11.108843
 20
129.039029
 30
0.0
 10
13.925604
 20
128.601126
 30
0.0
 10
18.056833
 20
130.853199
 30
0.0
 10
18.369803
 20
133.543158
 30
0.0
 10
17.618661
 20
135.920360
 30
0.0
 10
17.618661
 20
135.920360
 30
0.0
  0
LWPOLYLINE
  5
107
100
AcDbEntity
  8
Layer_1
 62
3
100
AcDbPolyline
 90
10
 70
0
 10
21.562112
 20
135.920360
 30
0.0
 10
20.185036
 20
134.293857
 30
0.0
 10
20.372821
 20
132.792475
 30
0.0
 10
23.815516
 20
131.979231
 30
0.0
 10
25.693341
 20
132.479687
 30
0.0
 10
26.632262
 20
134.669206
 30
0.0
 10
25.255193
 20
135.982898
 30
0.0
 10
22.375839
 20
135.545011
 30
0.0
 10
21.562112
 20
135.920360
 30
0.0
 10
21.562112
 20
135.920360
 30
0.0
  0
LWPOLYLINE
  5
108
100
AcDbEntity
  8
Layer_1
 62
3
100
AcDbPolyline
 90
12
 70
0
 10
32.390961
 20
136.983832
 30
0.0
 10
29.386422
 20
133.543158
 30
0.0
 10
29.261229
 20
131.353646
 30
0.0
 10
32.453538
 20
130.915752
 30
0.0
 10
34.706950
 20
131.353646
 30
0.0
 10
36.021441
 20
133.355491
 30
0.0
 10
36.021441
 20
134.106190
 30
0.0
 10
34.769542
 20
135.357328
 30
0.0
 10
34.206193
 20
135.670125
 30
0.0
 10
33.580244
 20
136.858710
 30
0.0
 10
32.390961
 20
136.983832
 30
0.0
 10
32.390961
 20
136.983832
 30
0.0
  0
LWPOLYLINE
  5
109
100
AcDbEntity
  8
Layer_1
 62
3
100
AcDbPolyline
 90
11
 70
0
 10
28.384901
 20
131.603882
 30
0.0
 10
27.508589
 20
133.042703
 30
0.0
 10
26.882640
 20
132.166906
 30
0.0
 10
24.754437
 20
130.227630
 30
0.0
 10
24.566643
 20
128.851346
 30
0.0
 10
25.317778
 20
127.787874
 30
0.0
 10
27.946753
 20
127.537647
 30
0.0
 10
29.010851
 20
128.976476
 30
0.0
 10
29.198636
 20
129.914825
 30
0.0
 10
28.384901
 20
131.603882
 30
0.0
 10
28.384901
 20
131.603882
 30
0.0
  0
LWPOLYLINE
  5
10a
100
AcDbEntity
  8
Layer_1
 62
3
100
AcDbPolyline
 90
10
 70
0
 10
44.261852
 20
134.696001
 30
0.0
 10
40.882027
 20
136.484264
 30
0.0
 10
38.396853
 20
135.689486
 30
0.0
 10
38.098639
 20
133.603175
 30
0.0
 10
38.396853
 20
130.722086
 30
0.0
 10
40.086773
 20
130.324704
 30
0.0
 10
42.571947
 20
132.013618
 30
0.0
 10
44.560082
 20
133.205794
 30
0.0
 10
44.261852
 20
134.696001
 30
0.0
 10
44.261852
 20
134.696001
 30
0.0
  0
LWPOLYLINE
  5
10b
100
AcDbEntity
  8
Layer_1
 62
3
100
AcDbPolyline
 90
13
 70
0
 10
44.659487
 20
136.682963
 30
0.0
 10
43.665423
 20
136.682963
 30
0.0
 10
43.799627
 20
136.150157
 30
0.0
 10
44.289225
 20
135.660845
 30
0.0
 10
44.876746
 20
135.024743
 30
0.0
 10
45.121553
 20
134.339696
 30
0.0
 10
45.219468
 20
133.556805
 30
0.0
 10
46.100749
 20
133.263227
 30
0.0
 10
46.590346
 20
133.263227
 30
0.0
 10
47.128914
 20
134.731157
 30
0.0
 10
46.737231
 20
136.884126
 30
0.0
 10
44.659487
 20
136.682963
 30
0.0
 10
44.659487
 20
136.682963
 30
0.0
  0
LWPOLYLINE
  5
10c
100
AcDbEntity
  8
Layer_1
 62
3
100
AcDbPolyline
 90
9
 70
0
 10
36.700426
 20
131.844227
 30
0.0
 10
35.378500
 20
130.914523
 30
0.0
 10
34.644096
 20
129.838031
 30
0.0
 10
34.399289
 20
128.419031
 30
0.0
 10
35.231624
 20
127.733999
 30
0.0
 10
37.777537
 20
129.104062
 30
0.0
 10
37.728559
 20
130.327351
 30
0.0
 10
36.700410
 20
131.844227
 30
0.0
 10
36.700426
 20
131.844227
 30
0.0
  0
LWPOLYLINE
  5
10d
100
AcDbEntity
  8
Layer_1
 62
3
100
AcDbPolyline
 90
17
 70
0
 10
33.762807
 20
130.327351
 30
0.0
 10
31.902338
 20
129.740164
 30
0.0
 10
30.825219
 20
129.495515
 30
0.0
 10
29.943922
 20
129.104062
 30
0.0
 10
29.454340
 20
127.880796
 30
0.0
 10
28.768897
 20
127.097898
 30
0.0
 10
27.936577
 20
126.021413
 30
0.0
 10
27.642801
 20
124.993866
 30
0.0
 10
27.593824
 20
124.357749
 30
0.0
 10
29.160548
 20
124.015233
 30
0.0
 10
31.216863
 20
125.140647
 30
0.0
 10
32.440858
 20
125.581030
 30
0.0
 10
33.420061
 20
126.706452
 30
0.0
 10
33.469039
 20
127.831867
 30
0.0
 10
33.420061
 20
128.565836
 30
0.0
 10
33.762775
 20
130.327351
 30
0.0
 10
33.762807
 20
130.327351
 30
0.0
  0
LWPOLYLINE
  5
10e
100
AcDbEntity
  8
Layer_1
 62
3
100
AcDbPolyline
 90
14
 70
0
 10
22.358285
 20
128.275372
 30
0.0
 10
23.189448
 20
130.005917
 30
0.0
 10
22.566082
 20
131.044250
 30
0.0
 10
20.834507
 20
130.905814
 30
0.0
 10
19.518510
 20
130.144368
 30
0.0
 10
18.271770
 20
128.344590
 30
0.0
 10
16.886507
 20
127.513927
 30
0.0
 10
17.786935
 20
126.060254
 30
0.0
 10
18.479558
 20
124.468146
 30
0.0
 10
19.518510
 20
123.914362
 30
0.0
 10
22.981659
 20
124.468146
 30
0.0
 10
22.912394
 20
126.337150
 30
0.0
 10
22.358285
 20
128.275372
 30
0.0
 10
22.358285
 20
128.275372
 30
0.0
  0
LWPOLYLINE
  5
10f
100
AcDbEntity
  8
Layer_1
 62
3
100
AcDbPolyline
 90
14
 70
0
 10
24.505445
 20
126.683256
 30
0.0
 10
24.159134
 20
124.606590
 30
0.0
 10
24.159134
 20
123.845144
 30
0.0
 10
24.851757
 20
122.876045
 30
0.0
 10
26.029231
 20
121.214703
 30
0.0
 10
26.929644
 20
121.214703
 30
0.0
 10
28.245657
 20
123.014481
 30
0.0
 10
27.275971
 20
123.360587
 30
0.0
 10
26.652597
 20
123.706708
 30
0.0
 10
26.583332
 20
124.606590
 30
0.0
 10
27.068167
 20
125.714148
 30
0.0
 10
26.444793
 20
126.752482
 30
0.0
 10
24.505429
 20
126.683216
 30
0.0
 10
24.505445
 20
126.683256
 30
0.0
  0
LWPOLYLINE
  5
110
100
AcDbEntity
  8
Layer_1
 62
3
100
AcDbPolyline
 90
11
 70
0
 10
14.947135
 20
127.306257
 30
0.0
 10
12.315148
 20
126.960135
 30
0.0
 10
11.137658
 20
125.644923
 30
0.0
 10
10.860620
 20
124.329702
 30
0.0
 10
11.137658
 20
122.045382
 30
0.0
 10
13.215577
 20
120.730145
 30
0.0
 10
13.977458
 20
121.699260
 30
0.0
 10
14.739347
 20
124.398920
 30
0.0
 10
15.778298
 20
125.437253
 30
0.0
 10
14.947135
 20
127.306257
 30
0.0
 10
14.947135
 20
127.306257
 30
0.0
  0
LWPOLYLINE
  5
111
100
AcDbEntity
  8
Layer_1
 62
3
100
AcDbPolyline
 90
12
 70
0
 10
16.747984
 20
124.606590
 30
0.0
 10
14.877886
 20
122.668359
 30
0.0
 10
14.670089
 20
121.906930
 30
0.0
 10
14.462301
 20
120.314821
 30
0.0
 10
14.808612
 20
119.345706
 30
0.0
 10
16.955772
 20
118.307373
 30
0.0
 10
18.341019
 20
120.176370
 30
0.0
 10
18.964393
 20
121.906930
 30
0.0
 10
18.202512
 20
123.360587
 30
0.0
 10
17.717661
 20
123.983596
 30
0.0
 10
16.747984
 20
124.606590
 30
0.0
 10
16.747984
 20
124.606590
 30
0.0
  0
LWPOLYLINE
  5
112
100
AcDbEntity
  8
Layer_1
 62
3
100
AcDbPolyline
 90
17
 70
0
 10
21.180819
 20
123.222151
 30
0.0
 10
19.934079
 20
122.322254
 30
0.0
 10
19.795564
 20
121.214703
 30
0.0
 10
19.172182
 20
118.999601
 30
0.0
 10
18.756605
 20
117.822824
 30
0.0
 10
18.964393
 20
115.953827
 30
0.0
 10
20.418938
 20
115.538488
 30
0.0
 10
21.319342
 20
116.023045
 30
0.0
 10
22.566082
 20
118.307373
 30
0.0
 10
23.605033
 20
119.207255
 30
0.0
 10
24.574711
 20
120.176370
 30
0.0
 10
24.159134
 20
121.560808
 30
0.0
 10
23.535760
 20
122.253036
 30
0.0
 10
23.258705
 20
122.529923
 30
0.0
 10
22.773871
 20
123.291369
 30
0.0
 10
21.180819
 20
123.222182
 30
0.0
 10
21.180819
 20
123.222151
 30
0.0
  0
LWPOLYLINE
  5
113
100
AcDbEntity
  8
Layer_1
 62
3
100
AcDbPolyline
 90
11
 70
0
 10
8.874197
 20
128.108406
 30
0.0
 10
8.874197
 20
125.665861
 30
0.0
 10
8.961484
 20
124.182889
 30
0.0
 10
8.961484
 20
123.572251
 30
0.0
 10
9.834325
 20
123.397787
 30
0.0
 10
10.096195
 20
124.967983
 30
0.0
 10
10.183482
 20
126.276491
 30
0.0
 10
10.183482
 20
127.323304
 30
0.0
 10
10.532623
 20
128.108406
 30
0.0
 10
8.874197
 20
128.108406
 30
0.0
 10
8.874197
 20
128.108406
 30
0.0
  0
LWPOLYLINE
  5
114
100
AcDbEntity
  8
Layer_1
 62
3
100
AcDbPolyline
 90
16
 70
0
 10
9.636126
 20
120.889678
 30
0.0
 10
14.769304
 20
116.919130
 30
0.0
 10
16.935769
 20
115.100356
 30
0.0
 10
17.022438
 20
114.147677
 30
0.0
 10
16.589133
 20
111.982464
 30
0.0
 10
15.982520
 20
109.470836
 30
0.0
 10
14.682643
 20
107.911894
 30
0.0
 10
13.469402
 20
108.085113
 30
0.0
 10
11.909533
 20
109.817282
 30
0.0
 10
10.956292
 20
111.462814
 30
0.0
 10
10.349672
 20
113.108377
 30
0.0
 10
10.089704
 20
114.494108
 30
0.0
 10
10.003035
 20
116.226253
 30
0.0
 10
9.396423
 20
118.218247
 30
0.0
 10
9.636126
 20
120.889678
 30
0.0
 10
9.636126
 20
120.889678
 30
0.0
  0
LWPOLYLINE
  5
115
100
AcDbEntity
  8
Layer_1
 62
3
100
AcDbPolyline
 90
15
 70
0
 10
9.916374
 20
109.297632
 30
0.0
 10
8.963125
 20
106.352944
 30
0.0
 10
8.963125
 20
104.534177
 30
0.0
 10
9.136439
 20
102.888629
 30
0.0
 10
9.396423
 20
101.416301
 30
0.0
 10
10.609655
 20
101.069854
 30
0.0
 10
11.302921
 20
101.762724
 30
0.0
 10
12.776137
 20
102.975243
 30
0.0
 10
13.382749
 20
104.014527
 30
0.0
 10
13.902708
 20
105.573477
 30
0.0
 10
13.816039
 20
106.959215
 30
0.0
 10
11.302921
 20
107.911894
 30
0.0
 10
10.869639
 20
108.777966
 30
0.0
 10
9.916374
 20
109.297632
 30
0.0
 10
9.916374
 20
109.297632
 30
0.0
  0
LWPOLYLINE
  5
116
100
AcDbEntity
  8
Layer_1
 62
3
100
AcDbPolyline
 90
7
 70
0
 10
12.342839
 20
99.943957
 30
0.0
 10
11.649557
 20
95.093896
 30
0.0
 10
9.136439
 20
94.574262
 30
0.0
 10
8.876472
 20
95.873371
 30
0.0
 10
9.223100
 20
98.298393
 30
0.0
 10
12.342839
 20
99.943957
 30
0.0
 10
12.342839
 20
99.943957
 30
0.0
  0
LWPOLYLINE
  5
117
100
AcDbEntity
  8
Layer_1
 62
3
100
AcDbPolyline
 90
12
 70
0
 10
13.469402
 20
96.652838
 30
0.0
 10
12.516153
 20
95.007298
 30
0.0
 10
11.736219
 20
93.708173
 30
0.0
 10
11.389582
 20
92.755479
 30
0.0
 10
11.129598
 20
91.629589
 30
0.0
 10
11.042937
 20
90.676895
 30
0.0
 10
11.562904
 20
90.763501
 30
0.0
 10
12.516153
 20
91.283151
 30
0.0
 10
13.209435
 20
92.668873
 30
0.0
 10
13.382749
 20
93.967998
 30
0.0
 10
13.469402
 20
96.652838
 30
0.0
 10
13.469402
 20
96.652838
 30
0.0
  0
LWPOLYLINE
  5
118
100
AcDbEntity
  8
Layer_1
 62
3
100
AcDbPolyline
 90
9
 70
0
 10
9.656406
 20
93.621567
 30
0.0
 10
8.703149
 20
91.802801
 30
0.0
 10
8.616488
 20
90.503676
 30
0.0
 10
8.616488
 20
89.291156
 30
0.0
 10
9.916374
 20
88.944734
 30
0.0
 10
10.089704
 20
90.850106
 30
0.0
 10
10.176357
 20
92.582275
 30
0.0
 10
9.656406
 20
93.621567
 30
0.0
 10
9.656406
 20
93.621567
 30
0.0
  0
LWPOLYLINE
  5
119
100
AcDbEntity
  8
Layer_1
 62
3
100
AcDbPolyline
 90
14
 70
0
 10
13.382749
 20
90.850106
 30
0.0
 10
11.389582
 20
88.944734
 30
0.0
 10
10.349672
 20
87.039361
 30
0.0
 10
9.049786
 20
86.086675
 30
0.0
 10
8.703149
 20
83.661644
 30
0.0
 10
8.703149
 20
80.890183
 30
0.0
 10
9.136439
 20
79.591066
 30
0.0
 10
10.263019
 20
79.677672
 30
0.0
 10
11.562904
 20
81.063402
 30
0.0
 10
12.516153
 20
83.401819
 30
0.0
 10
13.209435
 20
85.393806
 30
0.0
 10
13.296088
 20
88.165259
 30
0.0
 10
13.382749
 20
90.850106
 30
0.0
 10
13.382749
 20
90.850106
 30
0.0
  0
LWPOLYLINE
  5
11a
100
AcDbEntity
  8
Layer_1
 62
3
100
AcDbPolyline
 90
16
 70
0
 10
9.138888
 20
77.406943
 30
0.0
 10
11.835996
 20
78.632175
 30
0.0
 10
12.694159
 20
79.367308
 30
0.0
 10
13.307127
 20
77.039369
 30
0.0
 10
14.655681
 20
73.118623
 30
0.0
 10
15.391259
 20
70.055549
 30
0.0
 10
15.023470
 20
68.217706
 30
0.0
 10
13.920096
 20
66.747423
 30
0.0
 10
11.958582
 20
65.154617
 30
0.0
 10
10.855223
 20
65.889759
 30
0.0
 10
9.751864
 20
67.605087
 30
0.0
 10
9.629271
 20
69.197893
 30
0.0
 10
9.629271
 20
72.383489
 30
0.0
 10
9.016287
 20
75.324048
 30
0.0
 10
9.138888
 20
77.406943
 30
0.0
 10
9.138888
 20
77.406943
 30
0.0
  0
LWPOLYLINE
  5
11b
100
AcDbEntity
  8
Layer_1
 62
3
100
AcDbPolyline
 90
17
 70
0
 10
9.016287
 20
65.522200
 30
0.0
 10
10.242239
 20
63.684349
 30
0.0
 10
11.345605
 20
62.581640
 30
0.0
 10
12.571550
 20
60.621269
 30
0.0
 10
13.552331
 20
59.028470
 30
0.0
 10
13.674916
 20
57.435665
 30
0.0
 10
12.816753
 20
55.352770
 30
0.0
 10
11.345605
 20
53.269875
 30
0.0
 10
9.874450
 20
51.432028
 30
0.0
 10
8.771091
 20
54.005012
 30
0.0
 10
9.138888
 20
56.700527
 30
0.0
 10
9.384075
 20
58.170803
 30
0.0
 10
9.506661
 20
59.886125
 30
0.0
 10
9.261482
 20
61.233883
 30
0.0
 10
8.893693
 20
61.969026
 30
0.0
 10
9.016287
 20
65.522200
 30
0.0
 10
9.016287
 20
65.522200
 30
0.0
  0
LWPOLYLINE
  5
11c
100
AcDbEntity
  8
Layer_1
 62
3
100
AcDbPolyline
 90
14
 70
0
 10
16.617219
 20
66.257333
 30
0.0
 10
15.023470
 20
64.664535
 30
0.0
 10
13.429729
 20
62.581640
 30
0.0
 10
14.287892
 20
60.498745
 30
0.0
 10
15.268673
 20
59.028470
 30
0.0
 10
16.372016
 20
56.087914
 30
0.0
 10
16.739805
 20
54.127537
 30
0.0
 10
17.597984
 20
51.799599
 30
0.0
 10
18.210952
 20
52.902309
 30
0.0
 10
17.230195
 20
57.558182
 30
0.0
 10
16.494618
 20
60.621269
 30
0.0
 10
16.494618
 20
62.826682
 30
0.0
 10
16.617219
 20
66.257333
 30
0.0
 10
16.617219
 20
66.257333
 30
0.0
  0
LWPOLYLINE
  5
11d
100
AcDbEntity
  8
Layer_1
 62
3
100
AcDbPolyline
 90
14
 70
0
 10
14.655681
 20
54.740156
 30
0.0
 10
12.816753
 20
53.392399
 30
0.0
 10
11.713402
 20
51.309504
 30
0.0
 10
10.242239
 20
48.981562
 30
0.0
 10
10.364840
 20
46.531100
 30
0.0
 10
12.939339
 20
43.713068
 30
0.0
 10
14.778275
 20
42.610365
 30
0.0
 10
17.475375
 20
41.997745
 30
0.0
 10
18.823936
 20
45.673439
 30
0.0
 10
17.475375
 20
48.859043
 30
0.0
 10
15.636454
 20
50.574367
 30
0.0
 10
14.900884
 20
52.902309
 30
0.0
 10
14.655681
 20
54.740156
 30
0.0
 10
14.655681
 20
54.740156
 30
0.0
  0
LWPOLYLINE
  5
11e
100
AcDbEntity
  8
Layer_1
 62
3
100
AcDbPolyline
 90
30
 70
0
 10
8.648498
 20
44.080640
 30
0.0
 10
9.997060
 20
42.732882
 30
0.0
 10
10.855223
 20
41.630173
 30
0.0
 10
12.816753
 20
40.649993
 30
0.0
 10
14.778275
 20
39.424760
 30
0.0
 10
17.352789
 20
39.547278
 30
0.0
 10
18.578741
 20
39.914850
 30
0.0
 10
19.559498
 20
39.547278
 30
0.0
 10
19.927295
 20
38.567099
 30
0.0
 10
19.804709
 20
35.994108
 30
0.0
 10
19.191710
 20
33.911216
 30
0.0
 10
18.823936
 20
30.970660
 30
0.0
 10
18.088359
 20
28.887768
 30
0.0
 10
16.249430
 20
28.642720
 30
0.0
 10
13.184542
 20
28.397672
 30
0.0
 10
11.590793
 20
27.907582
 30
0.0
 10
10.610028
 20
27.907582
 30
0.0
 10
10.242239
 20
30.235525
 30
0.0
 10
10.364840
 20
32.808506
 30
0.0
 10
12.203769
 20
34.891398
 30
0.0
 10
12.326370
 20
37.219342
 30
0.0
 10
11.958582
 20
37.586913
 30
0.0
 10
11.223004
 20
38.322051
 30
0.0
 10
10.242239
 20
38.567099
 30
0.0
 10
9.629271
 20
39.057194
 30
0.0
 10
9.384075
 20
40.037374
 30
0.0
 10
8.893693
 20
41.262607
 30
0.0
 10
8.403303
 20
42.610365
 30
0.0
 10
8.648498
 20
44.080640
 30
0.0
 10
8.648498
 20
44.080640
 30
0.0
  0
LWPOLYLINE
  5
11f
100
AcDbEntity
  8
Layer_1
 62
3
100
AcDbPolyline
 90
10
 70
0
 10
9.997060
 20
37.709437
 30
0.0
 10
9.016287
 20
37.096818
 30
0.0
 10
9.016287
 20
35.626542
 30
0.0
 10
8.893693
 20
34.768878
 30
0.0
 10
9.874450
 20
34.646357
 30
0.0
 10
10.487434
 20
35.749060
 30
0.0
 10
10.855223
 20
36.484204
 30
0.0
 10
10.732629
 20
37.586913
 30
0.0
 10
9.997060
 20
37.709437
 30
0.0
 10
9.997060
 20
37.709437
 30
0.0
  0
LWPOLYLINE
  5
120
100
AcDbEntity
  8
Layer_1
 62
3
100
AcDbPolyline
 90
21
 70
0
 10
9.138888
 20
26.437304
 30
0.0
 10
16.126821
 20
26.192259
 30
0.0
 10
19.069132
 20
27.049921
 30
0.0
 10
19.927295
 20
27.294969
 30
0.0
 10
19.069132
 20
23.496748
 30
0.0
 10
17.720578
 20
22.271517
 30
0.0
 10
16.372016
 20
20.923763
 30
0.0
 10
15.881642
 20
18.963389
 30
0.0
 10
16.004227
 20
18.473299
 30
0.0
 10
14.410494
 20
17.615635
 30
0.0
 10
12.571550
 20
16.635449
 30
0.0
 10
12.571550
 20
14.920126
 30
0.0
 10
12.203769
 20
14.307512
 30
0.0
 10
10.242239
 20
13.572372
 30
0.0
 10
8.525904
 20
15.287695
 30
0.0
 10
9.384075
 20
19.943578
 30
0.0
 10
9.506661
 20
21.536376
 30
0.0
 10
8.648498
 20
23.986840
 30
0.0
 10
9.016287
 20
25.702164
 30
0.0
 10
9.138888
 20
26.437304
 30
0.0
 10
9.138888
 20
26.437304
 30
0.0
  0
LWPOLYLINE
  5
121
100
AcDbEntity
  8
Layer_1
 62
3
100
AcDbPolyline
 90
13
 70
0
 10
17.352789
 20
18.105727
 30
0.0
 10
14.778275
 20
16.512925
 30
0.0
 10
13.674916
 20
15.900312
 30
0.0
 10
13.061932
 20
14.797602
 30
0.0
 10
13.184542
 20
14.184988
 30
0.0
 10
13.184542
 20
13.082279
 30
0.0
 10
14.655681
 20
12.224615
 30
0.0
 10
15.513853
 20
13.327324
 30
0.0
 10
16.249430
 20
14.797602
 30
0.0
 10
16.985000
 20
15.655266
 30
0.0
 10
18.210952
 20
18.350776
 30
0.0
 10
17.352789
 20
18.105727
 30
0.0
 10
17.352789
 20
18.105727
 30
0.0
  0
LWPOLYLINE
  5
122
100
AcDbEntity
  8
Layer_1
 62
3
100
AcDbPolyline
 90
10
 70
0
 10
77.535989
 20
135.920360
 30
0.0
 10
83.607675
 20
136.483377
 30
0.0
 10
84.984751
 20
134.731743
 30
0.0
 10
85.172545
 20
131.416215
 30
0.0
 10
84.045839
 20
129.039029
 30
0.0
 10
81.229070
 20
128.601126
 30
0.0
 10
77.097841
 20
130.853199
 30
0.0
 10
76.784886
 20
133.543158
 30
0.0
 10
77.535989
 20
135.920360
 30
0.0
 10
77.535989
 20
135.920360
 30
0.0
  0
LWPOLYLINE
  5
123
100
AcDbEntity
  8
Layer_1
 62
3
100
AcDbPolyline
 90
10
 70
0
 10
73.592561
 20
135.920360
 30
0.0
 10
74.969637
 20
134.293857
 30
0.0
 10
74.781860
 20
132.792475
 30
0.0
 10
71.339173
 20
131.979231
 30
0.0
 10
69.461332
 20
132.479687
 30
0.0
 10
68.522428
 20
134.669206
 30
0.0
 10
69.899480
 20
135.982898
 30
0.0
 10
72.778810
 20
135.545011
 30
0.0
 10
73.592561
 20
135.920360
 30
0.0
 10
73.592561
 20
135.920360
 30
0.0
  0
LWPOLYLINE
  5
124
100
AcDbEntity
  8
Layer_1
 62
3
100
AcDbPolyline
 90
12
 70
0
 10
62.763728
 20
136.983832
 30
0.0
 10
65.768251
 20
133.543158
 30
0.0
 10
65.893436
 20
131.353646
 30
0.0
 10
62.701136
 20
130.915752
 30
0.0
 10
60.447723
 20
131.353646
 30
0.0
 10
59.133248
 20
133.355491
 30
0.0
 10
59.133248
 20
134.106190
 30
0.0
 10
60.385131
 20
135.357328
 30
0.0
 10
60.948480
 20
135.670125
 30
0.0
 10
61.574430
 20
136.858710
 30
0.0
 10
62.763728
 20
136.983832
 30
0.0
 10
62.763728
 20
136.983832
 30
0.0
  0
LWPOLYLINE
  5
125
100
AcDbEntity
  8
Layer_1
 62
3
100
AcDbPolyline
 90
11
 70
0
 10
66.769772
 20
131.603882
 30
0.0
 10
67.646084
 20
133.042703
 30
0.0
 10
68.272034
 20
132.166906
 30
0.0
 10
70.400237
 20
130.227630
 30
0.0
 10
70.588014
 20
128.851346
 30
0.0
 10
69.836888
 20
127.787874
 30
0.0
 10
67.207920
 20
127.537647
 30
0.0
 10
66.143822
 20
128.976476
 30
0.0
 10
65.956021
 20
129.914825
 30
0.0
 10
66.769772
 20
131.603882
 30
0.0
 10
66.769772
 20
131.603882
 30
0.0
  0
LWPOLYLINE
  5
126
100
AcDbEntity
  8
Layer_1
 62
3
100
AcDbPolyline
 90
10
 70
0
 10
50.892821
 20
134.696001
 30
0.0
 10
54.272646
 20
136.484264
 30
0.0
 10
56.757820
 20
135.689486
 30
0.0
 10
57.056035
 20
133.603175
 30
0.0
 10
56.757820
 20
130.722086
 30
0.0
 10
55.067900
 20
130.324704
 30
0.0
 10
52.582742
 20
132.013618
 30
0.0
 10
50.594607
 20
133.205794
 30
0.0
 10
50.892821
 20
134.696001
 30
0.0
 10
50.892821
 20
134.696001
 30
0.0
  0
LWPOLYLINE
  5
127
100
AcDbEntity
  8
Layer_1
 62
3
100
AcDbPolyline
 90
13
 70
0
 10
50.495187
 20
136.682963
 30
0.0
 10
51.489266
 20
136.682963
 30
0.0
 10
51.355046
 20
136.150157
 30
0.0
 10
50.865448
 20
135.660845
 30
0.0
 10
50.277927
 20
135.024743
 30
0.0
 10
50.033121
 20
134.339696
 30
0.0
 10
49.935206
 20
133.556805
 30
0.0
 10
49.053925
 20
133.263227
 30
0.0
 10
48.564335
 20
133.263227
 30
0.0
 10
48.025760
 20
134.731157
 30
0.0
 10
48.417443
 20
136.884126
 30
0.0
 10
50.495187
 20
136.682963
 30
0.0
 10
50.495187
 20
136.682963
 30
0.0
  0
LWPOLYLINE
  5
128
100
AcDbEntity
  8
Layer_1
 62
3
100
AcDbPolyline
 90
9
 70
0
 10
58.454247
 20
131.844227
 30
0.0
 10
59.776181
 20
130.914523
 30
0.0
 10
60.510578
 20
129.838031
 30
0.0
 10
60.755384
 20
128.419031
 30
0.0
 10
59.923065
 20
127.733999
 30
0.0
 10
57.377137
 20
129.104062
 30
0.0
 10
57.426114
 20
130.327351
 30
0.0
 10
58.454263
 20
131.844227
 30
0.0
 10
58.454247
 20
131.844227
 30
0.0
  0
LWPOLYLINE
  5
129
100
AcDbEntity
  8
Layer_1
 62
3
100
AcDbPolyline
 90
17
 70
0
 10
61.391874
 20
130.327351
 30
0.0
 10
63.252351
 20
129.740164
 30
0.0
 10
64.329454
 20
129.495515
 30
0.0
 10
65.210751
 20
129.104062
 30
0.0
 10
65.700333
 20
127.880796
 30
0.0
 10
66.385776
 20
127.097898
 30
0.0
 10
67.218096
 20
126.021413
 30
0.0
 10
67.511856
 20
124.993866
 30
0.0
 10
67.560833
 20
124.357749
 30
0.0
 10
65.994093
 20
124.015233
 30
0.0
 10
63.937787
 20
125.140647
 30
0.0
 10
62.713784
 20
125.581030
 30
0.0
 10
61.734580
 20
126.706452
 30
0.0
 10
61.685603
 20
127.831867
 30
0.0
 10
61.734580
 20
128.565836
 30
0.0
 10
61.391874
 20
130.327351
 30
0.0
 10
61.391874
 20
130.327351
 30
0.0
  0
LWPOLYLINE
  5
12a
100
AcDbEntity
  8
Layer_1
 62
3
100
AcDbPolyline
 90
14
 70
0
 10
72.796372
 20
128.275372
 30
0.0
 10
71.965233
 20
130.005917
 30
0.0
 10
72.588591
 20
131.044250
 30
0.0
 10
74.320182
 20
130.905814
 30
0.0
 10
75.636164
 20
130.144368
 30
0.0
 10
76.882880
 20
128.344590
 30
0.0
 10
78.268182
 20
127.513927
 30
0.0
 10
77.367754
 20
126.060254
 30
0.0
 10
76.675131
 20
124.468146
 30
0.0
 10
75.636164
 20
123.914362
 30
0.0
 10
72.173014
 20
124.468146
 30
0.0
 10
72.242280
 20
126.337150
 30
0.0
 10
72.796372
 20
128.275372
 30
0.0
 10
72.796372
 20
128.275372
 30
0.0
  0
LWPOLYLINE
  5
12b
100
AcDbEntity
  8
Layer_1
 62
3
100
AcDbPolyline
 90
14
 70
0
 10
70.649228
 20
126.683256
 30
0.0
 10
70.995540
 20
124.606590
 30
0.0
 10
70.995540
 20
123.845144
 30
0.0
 10
70.302916
 20
122.876045
 30
0.0
 10
69.125442
 20
121.214703
 30
0.0
 10
68.225014
 20
121.214703
 30
0.0
 10
66.909032
 20
123.014481
 30
0.0
 10
67.878702
 20
123.360587
 30
0.0
 10
68.502084
 20
123.706708
 30
0.0
 10
68.571349
 20
124.606590
 30
0.0
 10
68.086530
 20
125.714148
 30
0.0
 10
68.709888
 20
126.752482
 30
0.0
 10
70.649252
 20
126.683216
 30
0.0
 10
70.649228
 20
126.683256
 30
0.0
  0
LWPOLYLINE
  5
12c
100
AcDbEntity
  8
Layer_1
 62
3
100
AcDbPolyline
 90
11
 70
0
 10
80.207546
 20
127.306257
 30
0.0
 10
82.839541
 20
126.960135
 30
0.0
 10
84.016991
 20
125.644923
 30
0.0
 10
84.294053
 20
124.329702
 30
0.0
 10
84.016991
 20
122.045382
 30
0.0
 10
81.939113
 20
120.730145
 30
0.0
 10
81.177216
 20
121.699260
 30
0.0
 10
80.415326
 20
124.398920
 30
0.0
 10
79.376383
 20
125.437253
 30
0.0
 10
80.207546
 20
127.306257
 30
0.0
 10
80.207546
 20
127.306257
 30
0.0
  0
LWPOLYLINE
  5
12d
100
AcDbEntity
  8
Layer_1
 62
3
100
AcDbPolyline
 90
12
 70
0
 10
78.406690
 20
124.606590
 30
0.0
 10
80.276788
 20
122.668359
 30
0.0
 10
80.484568
 20
121.906930
 30
0.0
 10
80.692373
 20
120.314821
 30
0.0
 10
80.346061
 20
119.345706
 30
0.0
 10
78.198893
 20
118.307373
 30
0.0
 10
76.813638
 20
120.176370
 30
0.0
 10
76.190280
 20
121.906930
 30
0.0
 10
76.952177
 20
123.360587
 30
0.0
 10
77.437020
 20
123.983596
 30
0.0
 10
78.406690
 20
124.606590
 30
0.0
 10
78.406690
 20
124.606590
 30
0.0
  0
LWPOLYLINE
  5
12e
100
AcDbEntity
  8
Layer_1
 62
3
100
AcDbPolyline
 90
17
 70
0
 10
73.973846
 20
123.222151
 30
0.0
 10
75.220586
 20
122.322254
 30
0.0
 10
75.359117
 20
121.214703
 30
0.0
 10
75.982499
 20
118.999601
 30
0.0
 10
76.398061
 20
117.822824
 30
0.0
 10
76.190280
 20
115.953827
 30
0.0
 10
74.735759
 20
115.538488
 30
0.0
 10
73.835331
 20
116.023045
 30
0.0
 10
72.588591
 20
118.307373
 30
0.0
 10
71.549656
 20
119.207255
 30
0.0
 10
70.579986
 20
120.176370
 30
0.0
 10
70.995540
 20
121.560808
 30
0.0
 10
71.618922
 20
122.253036
 30
0.0
 10
71.895944
 20
122.529923
 30
0.0
 10
72.380819
 20
123.291369
 30
0.0
 10
73.973846
 20
123.222182
 30
0.0
 10
73.973846
 20
123.222151
 30
0.0
  0
LWPOLYLINE
  5
12f
100
AcDbEntity
  8
Layer_1
 62
3
100
AcDbPolyline
 90
11
 70
0
 10
86.280484
 20
128.108406
 30
0.0
 10
86.280484
 20
125.665861
 30
0.0
 10
86.193205
 20
124.182889
 30
0.0
 10
86.193205
 20
123.572251
 30
0.0
 10
85.320348
 20
123.397787
 30
0.0
 10
85.058463
 20
124.967983
 30
0.0
 10
84.971207
 20
126.276491
 30
0.0
 10
84.971207
 20
127.323304
 30
0.0
 10
84.622034
 20
128.108406
 30
0.0
 10
86.280484
 20
128.108406
 30
0.0
 10
86.280484
 20
128.108406
 30
0.0
  0
LWPOLYLINE
  5
130
100
AcDbEntity
  8
Layer_1
 62
3
100
AcDbPolyline
 90
16
 70
0
 10
85.518547
 20
120.889678
 30
0.0
 10
80.385385
 20
116.919130
 30
0.0
 10
78.218912
 20
115.100356
 30
0.0
 10
78.132259
 20
114.147677
 30
0.0
 10
78.565517
 20
111.982464
 30
0.0
 10
79.172137
 20
109.470836
 30
0.0
 10
80.472039
 20
107.911894
 30
0.0
 10
81.685263
 20
108.085113
 30
0.0
 10
83.245132
 20
109.817282
 30
0.0
 10
84.198405
 20
111.462814
 30
0.0
 10
84.805002
 20
113.108377
 30
0.0
 10
85.064993
 20
114.494108
 30
0.0
 10
85.151654
 20
116.226253
 30
0.0
 10
85.758274
 20
118.218247
 30
0.0
 10
85.518547
 20
120.889678
 30
0.0
 10
85.518547
 20
120.889678
 30
0.0
  0
LWPOLYLINE
  5
131
100
AcDbEntity
  8
Layer_1
 62
3
100
AcDbPolyline
 90
15
 70
0
 10
85.238307
 20
109.297632
 30
0.0
 10
86.191556
 20
106.352944
 30
0.0
 10
86.191556
 20
104.534177
 30
0.0
 10
86.018242
 20
102.888629
 30
0.0
 10
85.758274
 20
101.416301
 30
0.0
 10
84.545034
 20
101.069854
 30
0.0
 10
83.851753
 20
101.762724
 30
0.0
 10
82.378537
 20
102.975243
 30
0.0
 10
81.771916
 20
104.014527
 30
0.0
 10
81.251973
 20
105.573477
 30
0.0
 10
81.338634
 20
106.959215
 30
0.0
 10
83.851753
 20
107.911894
 30
0.0
 10
84.285058
 20
108.777966
 30
0.0
 10
85.238307
 20
109.297632
 30
0.0
 10
85.238307
 20
109.297632
 30
0.0
  0
LWPOLYLINE
  5
132
100
AcDbEntity
  8
Layer_1
 62
3
100
AcDbPolyline
 90
7
 70
0
 10
82.811842
 20
99.943957
 30
0.0
 10
83.505124
 20
95.093896
 30
0.0
 10
86.018242
 20
94.574262
 30
0.0
 10
86.278217
 20
95.873371
 30
0.0
 10
85.931589
 20
98.298393
 30
0.0
 10
82.811842
 20
99.943957
 30
0.0
 10
82.811842
 20
99.943957
 30
0.0
  0
LWPOLYLINE
  5
133
100
AcDbEntity
  8
Layer_1
 62
3
100
AcDbPolyline
 90
12
 70
0
 10
81.685263
 20
96.652838
 30
0.0
 10
82.638536
 20
95.007298
 30
0.0
 10
83.418471
 20
93.708173
 30
0.0
 10
83.765091
 20
92.755479
 30
0.0
 10
84.025067
 20
91.629589
 30
0.0
 10
84.111720
 20
90.676895
 30
0.0
 10
83.591785
 20
90.763501
 30
0.0
 10
82.638536
 20
91.283151
 30
0.0
 10
81.945255
 20
92.668873
 30
0.0
 10
81.771916
 20
93.967998
 30
0.0
 10
81.685263
 20
96.652838
 30
0.0
 10
81.685263
 20
96.652838
 30
0.0
  0
LWPOLYLINE
  5
134
100
AcDbEntity
  8
Layer_1
 62
3
100
AcDbPolyline
 90
9
 70
0
 10
85.498283
 20
93.621567
 30
0.0
 10
86.451524
 20
91.802801
 30
0.0
 10
86.538209
 20
90.503676
 30
0.0
 10
86.538209
 20
89.291156
 30
0.0
 10
85.238307
 20
88.944734
 30
0.0
 10
85.064993
 20
90.850106
 30
0.0
 10
84.978340
 20
92.582275
 30
0.0
 10
85.498283
 20
93.621567
 30
0.0
 10
85.498283
 20
93.621567
 30
0.0
  0
LWPOLYLINE
  5
135
100
AcDbEntity
  8
Layer_1
 62
3
100
AcDbPolyline
 90
14
 70
0
 10
81.771916
 20
90.850106
 30
0.0
 10
83.765091
 20
88.944734
 30
0.0
 10
84.805002
 20
87.039361
 30
0.0
 10
86.104903
 20
86.086675
 30
0.0
 10
86.451524
 20
83.661644
 30
0.0
 10
86.451524
 20
80.890183
 30
0.0
 10
86.018242
 20
79.591066
 30
0.0
 10
84.891655
 20
79.677672
 30
0.0
 10
83.591785
 20
81.063402
 30
0.0
 10
82.638536
 20
83.401819
 30
0.0
 10
81.945255
 20
85.393806
 30
0.0
 10
81.858593
 20
88.165259
 30
0.0
 10
81.771916
 20
90.850106
 30
0.0
 10
81.771916
 20
90.850106
 30
0.0
  0
LWPOLYLINE
  5
136
100
AcDbEntity
  8
Layer_1
 62
3
100
AcDbPolyline
 90
16
 70
0
 10
86.015801
 20
77.406943
 30
0.0
 10
83.318701
 20
78.632175
 30
0.0
 10
82.460530
 20
79.367308
 30
0.0
 10
81.847546
 20
77.039369
 30
0.0
 10
80.498984
 20
73.118623
 30
0.0
 10
79.763430
 20
70.055549
 30
0.0
 10
80.131195
 20
68.217706
 30
0.0
 10
81.234562
 20
66.747423
 30
0.0
 10
83.196108
 20
65.154617
 30
0.0
 10
84.299450
 20
65.889759
 30
0.0
 10
85.402817
 20
67.605087
 30
0.0
 10
85.525418
 20
69.197893
 30
0.0
 10
85.525418
 20
72.383489
 30
0.0
 10
86.138395
 20
75.324048
 30
0.0
 10
86.015801
 20
77.406943
 30
0.0
 10
86.015801
 20
77.406943
 30
0.0
  0
LWPOLYLINE
  5
137
100
AcDbEntity
  8
Layer_1
 62
3
100
AcDbPolyline
 90
17
 70
0
 10
86.138395
 20
65.522200
 30
0.0
 10
84.912411
 20
63.684349
 30
0.0
 10
83.809068
 20
62.581640
 30
0.0
 10
82.583124
 20
60.621269
 30
0.0
 10
81.602351
 20
59.028470
 30
0.0
 10
81.479757
 20
57.435665
 30
0.0
 10
82.337905
 20
55.352770
 30
0.0
 10
83.809068
 20
53.269875
 30
0.0
 10
85.280223
 20
51.432028
 30
0.0
 10
86.383566
 20
54.005012
 30
0.0
 10
86.015801
 20
56.700527
 30
0.0
 10
85.770582
 20
58.170803
 30
0.0
 10
85.647988
 20
59.886125
 30
0.0
 10
85.893184
 20
61.233883
 30
0.0
 10
86.260996
 20
61.969026
 30
0.0
 10
86.138395
 20
65.522200
 30
0.0
 10
86.138395
 20
65.522200
 30
0.0
  0
LWPOLYLINE
  5
138
100
AcDbEntity
  8
Layer_1
 62
3
100
AcDbPolyline
 90
14
 70
0
 10
78.537462
 20
66.257333
 30
0.0
 10
80.131195
 20
64.664535
 30
0.0
 10
81.724944
 20
62.581640
 30
0.0
 10
80.866773
 20
60.498745
 30
0.0
 10
79.886024
 20
59.028470
 30
0.0
 10
78.782633
 20
56.087914
 30
0.0
 10
78.414868
 20
54.127537
 30
0.0
 10
77.556689
 20
51.799599
 30
0.0
 10
76.943705
 20
52.902309
 30
0.0
 10
77.924502
 20
57.558182
 30
0.0
 10
78.660064
 20
60.621269
 30
0.0
 10
78.660064
 20
62.826682
 30
0.0
 10
78.537462
 20
66.257333
 30
0.0
 10
78.537462
 20
66.257333
 30
0.0
  0
LWPOLYLINE
  5
139
100
AcDbEntity
  8
Layer_1
 62
3
100
AcDbPolyline
 90
14
 70
0
 10
80.498984
 20
54.740156
 30
0.0
 10
82.337905
 20
53.392399
 30
0.0
 10
83.441303
 20
51.309504
 30
0.0
 10
84.912411
 20
48.981562
 30
0.0
 10
84.789833
 20
46.531100
 30
0.0
 10
82.215311
 20
43.713068
 30
0.0
 10
80.376390
 20
42.610365
 30
0.0
 10
77.679291
 20
41.997745
 30
0.0
 10
76.330753
 20
45.673439
 30
0.0
 10
77.679291
 20
48.859043
 30
0.0
 10
79.518211
 20
50.574367
 30
0.0
 10
80.253789
 20
52.902309
 30
0.0
 10
80.498984
 20
54.740156
 30
0.0
 10
80.498984
 20
54.740156
 30
0.0
  0
LWPOLYLINE
  5
13a
100
AcDbEntity
  8
Layer_1
 62
3
100
AcDbPolyline
 90
30
 70
0
 10
86.506160
 20
44.080640
 30
0.0
 10
85.157630
 20
42.732882
 30
0.0
 10
84.299450
 20
41.630173
 30
0.0
 10
82.337905
 20
40.649993
 30
0.0
 10
80.376390
 20
39.424760
 30
0.0
 10
77.801884
 20
39.547278
 30
0.0
 10
76.575940
 20
39.914850
 30
0.0
 10
75.595175
 20
39.547278
 30
0.0
 10
75.227354
 20
38.567099
 30
0.0
 10
75.349980
 20
35.994108
 30
0.0
 10
75.962940
 20
33.911216
 30
0.0
 10
76.330753
 20
30.970660
 30
0.0
 10
77.066330
 20
28.887768
 30
0.0
 10
78.905251
 20
28.642720
 30
0.0
 10
81.970139
 20
28.397672
 30
0.0
 10
83.563873
 20
27.907582
 30
0.0
 10
84.544646
 20
27.907582
 30
0.0
 10
84.912411
 20
30.235525
 30
0.0
 10
84.789833
 20
32.808506
 30
0.0
 10
82.950889
 20
34.891398
 30
0.0
 10
82.828319
 20
37.219342
 30
0.0
 10
83.196108
 20
37.586913
 30
0.0
 10
83.931662
 20
38.322051
 30
0.0
 10
84.912411
 20
38.567099
 30
0.0
 10
85.525418
 20
39.057194
 30
0.0
 10
85.770582
 20
40.037374
 30
0.0
 10
86.260996
 20
41.262607
 30
0.0
 10
86.751379
 20
42.610365
 30
0.0
 10
86.506160
 20
44.080640
 30
0.0
 10
86.506160
 20
44.080640
 30
0.0
  0
LWPOLYLINE
  5
13b
100
AcDbEntity
  8
Layer_1
 62
3
100
AcDbPolyline
 90
10
 70
0
 10
85.157630
 20
37.709437
 30
0.0
 10
86.138395
 20
37.096818
 30
0.0
 10
86.138395
 20
35.626542
 30
0.0
 10
86.260996
 20
34.768878
 30
0.0
 10
85.280223
 20
34.646357
 30
0.0
 10
84.667239
 20
35.749060
 30
0.0
 10
84.299450
 20
36.484204
 30
0.0
 10
84.422044
 20
37.586913
 30
0.0
 10
85.157630
 20
37.709437
 30
0.0
 10
85.157630
 20
37.709437
 30
0.0
  0
LWPOLYLINE
  5
13c
100
AcDbEntity
  8
Layer_1
 62
3
100
AcDbPolyline
 90
21
 70
0
 10
86.015801
 20
26.437304
 30
0.0
 10
79.027852
 20
26.192259
 30
0.0
 10
76.085534
 20
27.049921
 30
0.0
 10
75.227354
 20
27.294969
 30
0.0
 10
76.085534
 20
23.496748
 30
0.0
 10
77.434095
 20
22.271517
 30
0.0
 10
78.782633
 20
20.923763
 30
0.0
 10
79.273040
 20
18.963389
 30
0.0
 10
79.150446
 20
18.473299
 30
0.0
 10
80.744203
 20
17.615635
 30
0.0
 10
82.583124
 20
16.635449
 30
0.0
 10
82.583124
 20
14.920126
 30
0.0
 10
82.950889
 20
14.307512
 30
0.0
 10
84.912411
 20
13.572372
 30
0.0
 10
86.628761
 20
15.287695
 30
0.0
 10
85.770582
 20
19.943578
 30
0.0
 10
85.647988
 20
21.536376
 30
0.0
 10
86.506160
 20
23.986840
 30
0.0
 10
86.138395
 20
25.702164
 30
0.0
 10
86.015801
 20
26.437304
 30
0.0
 10
86.015801
 20
26.437304
 30
0.0
  0
LWPOLYLINE
  5
13d
100
AcDbEntity
  8
Layer_1
 62
3
100
AcDbPolyline
 90
13
 70
0
 10
77.801884
 20
18.105727
 30
0.0
 10
80.376390
 20
16.512925
 30
0.0
 10
81.479757
 20
15.900312
 30
0.0
 10
82.092741
 20
14.797602
 30
0.0
 10
81.970139
 20
14.184988
 30
0.0
 10
81.970139
 20
13.082279
 30
0.0
 10
80.498984
 20
12.224615
 30
0.0
 10
79.640829
 20
13.327324
 30
0.0
 10
78.905251
 20
14.797602
 30
0.0
 10
78.169673
 20
15.655266
 30
0.0
 10
76.943705
 20
18.350776
 30
0.0
 10
77.801884
 20
18.105727
 30
0.0
 10
77.801884
 20
18.105727
 30
0.0
  0
LWPOLYLINE
  5
13e
100
AcDbEntity
  8
Layer_1
 62
3
100
AcDbPolyline
 90
49
 70
0
 10
61.381302
 20
82.801262
 30
0.0
 10
61.469390
 20
83.450828
 30
0.0
 10
61.649956
 20
85.064747
 30
0.0
 10
61.772605
 20
86.508814
 30
0.0
 10
61.845199
 20
87.823361
 30
0.0
 10
61.874522
 20
89.055820
 30
0.0
 10
61.864536
 20
90.258758
 30
0.0
 10
61.815955
 20
91.486263
 30
0.0
 10
61.727606
 20
92.773089
 30
0.0
 10
61.602223
 20
94.076002
 30
0.0
 10
61.441636
 20
95.324580
 30
0.0
 10
61.243675
 20
96.507253
 30
0.0
 10
61.005113
 20
97.630163
 30
0.0
 10
60.722432
 20
98.701702
 30
0.0
 10
60.390797
 20
99.732950
 30
0.0
 10
60.002958
 20
100.737713
 30
0.0
 10
59.579828
 20
101.663042
 30
0.0
 10
59.235791
 20
102.292914
 30
0.0
 10
58.935952
 20
102.728399
 30
0.0
 10
58.327453
 20
103.422608
 30
0.0
 10
56.972472
 20
104.668579
 30
0.0
 10
54.533446
 20
106.542948
 30
0.0
 10
50.788424
 20
109.033995
 30
0.0
 10
47.577253
 20
110.938750
 30
0.0
 10
44.366075
 20
109.033995
 30
0.0
 10
40.621053
 20
106.542948
 30
0.0
 10
38.182027
 20
104.668579
 30
0.0
 10
36.827046
 20
103.422608
 30
0.0
 10
36.218547
 20
102.728399
 30
0.0
 10
35.918692
 20
102.292914
 30
0.0
 10
35.574671
 20
101.663042
 30
0.0
 10
35.151533
 20
100.737713
 30
0.0
 10
34.763702
 20
99.732950
 30
0.0
 10
34.432059
 20
98.701702
 30
0.0
 10
34.149378
 20
97.630163
 30
0.0
 10
33.910824
 20
96.507253
 30
0.0
 10
33.712863
 20
95.324580
 30
0.0
 10
33.552276
 20
94.076002
 30
0.0
 10
33.426893
 20
92.773089
 30
0.0
 10
33.338544
 20
91.486263
 30
0.0
 10
33.289963
 20
90.258758
 30
0.0
 10
33.279977
 20
89.055820
 30
0.0
 10
33.309300
 20
87.823361
 30
0.0
 10
33.381894
 20
86.508814
 30
0.0
 10
33.504511
 20
85.064747
 30
0.0
 10
33.685093
 20
83.450828
 30
0.0
 10
33.773165
 20
82.801262
 30
0.0
 10
61.381112
 20
82.801262
 30
0.0
 10
61.381302
 20
82.801262
 30
0.0
  0
LWPOLYLINE
  5
13f
100
AcDbEntity
  8
Layer_1
 62
7
100
AcDbPolyline
 90
58
 70
0
 10
16.659690
 20
11.142224
 30
0.0
 10
16.659690
 20
11.142224
 30
0.0
 10
18.097790
 20
14.295332
 30
0.0
 10
19.283062
 20
17.229014
 30
0.0
 10
20.239149
 20
19.965771
 30
0.0
 10
20.989641
 20
22.528102
 30
0.0
 10
21.558173
 20
24.938508
 30
0.0
 10
21.968346
 20
27.219480
 30
0.0
 10
22.243791
 20
29.393518
 30
0.0
 10
22.408150
 20
31.483124
 30
0.0
 10
22.482805
 20
33.507012
 30
0.0
 10
22.480427
 20
35.468810
 30
0.0
 10
22.411082
 20
37.368367
 30
0.0
 10
22.285224
 20
39.205537
 30
0.0
 10
22.113161
 20
40.980156
 30
0.0
 10
21.905278
 20
42.692081
 30
0.0
 10
21.671867
 20
44.341154
 30
0.0
 10
21.423248
 20
45.927224
 30
0.0
 10
21.167259
 20
47.455780
 30
0.0
 10
20.901625
 20
48.954860
 30
0.0
 10
20.621559
 20
50.458119
 30
0.0
 10
20.322259
 20
51.999228
 30
0.0
 10
19.998962
 20
53.611853
 30
0.0
 10
19.646865
 20
55.329673
 30
0.0
 10
19.261197
 20
57.186342
 30
0.0
 10
18.837140
 20
59.215539
 30
0.0
 10
18.373092
 20
61.437634
 30
0.0
 10
17.880063
 20
63.819797
 30
0.0
 10
17.372253
 20
66.315916
 30
0.0
 10
16.863841
 20
68.879866
 30
0.0
 10
16.368989
 20
71.465538
 30
0.0
 10
15.901906
 20
74.026810
 30
0.0
 10
15.476763
 20
76.517555
 30
0.0
 10
15.107738
 20
78.891651
 30
0.0
 10
14.806266
 20
81.115082
 30
0.0
 10
14.572753
 20
83.202106
 30
0.0
 10
14.404867
 20
85.179075
 30
0.0
 10
14.300272
 20
87.072377
 30
0.0
 10
14.256604
 20
88.908334
 30
0.0
 10
14.271503
 20
90.713343
 30
0.0
 10
14.342671
 20
92.513723
 30
0.0
 10
14.467785
 20
94.335866
 30
0.0
 10
14.647241
 20
96.200892
 30
0.0
 10
14.892682
 20
98.109086
 30
0.0
 10
15.218491
 20
100.055511
 30
0.0
 10
15.639062
 20
102.035221
 30
0.0
 10
16.168800
 20
104.043271
 30
0.0
 10
16.822099
 20
106.074740
 30
0.0
 10
17.613351
 20
108.124683
 30
0.0
 10
18.556963
 20
110.188154
 30
0.0
 10
19.695168
 20
112.272103
 30
0.0
 10
21.181651
 20
114.431008
 30
0.0
 10
23.197864
 20
116.731273
 30
0.0
 10
25.925309
 20
119.239256
 30
0.0
 10
29.545519
 20
122.021337
 30
0.0
 10
34.239931
 20
125.143913
 30
0.0
 10
40.190093
 20
128.673332
 30
0.0
 10
47.577499
 20
132.676000
 30
0.0
  0
LWPOLYLINE
  5
140
100
AcDbEntity
  8
Layer_1
 62
7
100
AcDbPolyline
 90
58
 70
0
 10
78.494967
 20
11.142224
 30
0.0
 10
78.494967
 20
11.142224
 30
0.0
 10
77.056899
 20
14.295332
 30
0.0
 10
75.871587
 20
17.229014
 30
0.0
 10
74.915533
 20
19.965771
 30
0.0
 10
74.165056
 20
22.528102
 30
0.0
 10
73.596500
 20
24.938508
 30
0.0
 10
73.186320
 20
27.219480
 30
0.0
 10
72.910866
 20
29.393518
 30
0.0
 10
72.746547
 20
31.483124
 30
0.0
 10
72.671892
 20
33.507012
 30
0.0
 10
72.674270
 20
35.468810
 30
0.0
 10
72.743615
 20
37.368367
 30
0.0
 10
72.869473
 20
39.205537
 30
0.0
 10
73.041528
 20
40.980156
 30
0.0
 10
73.249427
 20
42.692081
 30
0.0
 10
73.482838
 20
44.341154
 30
0.0
 10
73.731449
 20
45.927224
 30
0.0
 10
73.987446
 20
47.455780
 30
0.0
 10
74.253104
 20
48.954860
 30
0.0
 10
74.533146
 20
50.458119
 30
0.0
 10
74.832446
 20
51.999228
 30
0.0
 10
75.155759
 20
53.611853
 30
0.0
 10
75.507848
 20
55.329673
 30
0.0
 10
75.893532
 20
57.186342
 30
0.0
 10
76.317581
 20
59.215539
 30
0.0
 10
76.781628
 20
61.437634
 30
0.0
 10
77.274626
 20
63.819797
 30
0.0
 10
77.782452
 20
66.315916
 30
0.0
 10
78.290880
 20
68.879866
 30
0.0
 10
78.785716
 20
71.465538
 30
0.0
 10
79.252783
 20
74.026810
 30
0.0
 10
79.677942
 20
76.517555
 30
0.0
 10
80.046967
 20
78.891651
 30
0.0
 10
80.348439
 20
81.115082
 30
0.0
 10
80.581952
 20
83.202106
 30
0.0
 10
80.749846
 20
85.179075
 30
0.0
 10
80.854449
 20
87.072377
 30
0.0
 10
80.898117
 20
88.908334
 30
0.0
 10
80.883138
 20
90.713343
 30
0.0
 10
80.811971
 20
92.513723
 30
0.0
 10
80.686857
 20
94.335866
 30
0.0
 10
80.507401
 20
96.200892
 30
0.0
 10
80.261944
 20
98.109086
 30
0.0
 10
79.936142
 20
100.055511
 30
0.0
 10
79.515580
 20
102.035221
 30
0.0
 10
78.985841
 20
104.043271
 30
0.0
 10
78.332566
 20
106.074740
 30
0.0
 10
77.541291
 20
108.124683
 30
0.0
 10
76.597686
 20
110.188154
 30
0.0
 10
75.459441
 20
112.272103
 30
0.0
 10
73.972998
 20
114.431008
 30
0.0
 10
71.956777
 20
116.731273
 30
0.0
 10
69.229324
 20
119.239256
 30
0.0
 10
65.609139
 20
122.021337
 30
0.0
 10
60.914695
 20
125.143913
 30
0.0
 10
54.964549
 20
128.673332
 30
0.0
 10
47.577150
 20
132.676000
 30
0.0
  0
ENDSEC
  0
SECTION
  2
OBJECTS
  0
DICTIONARY
  5
C
330
0
100
AcDbDictionary
  3
ACAD_GROUP
350
D
  3
ACAD_MLINESTYLE
350
17
  0
DICTIONARY
  5
D
330
C
100
AcDbDictionary
  0
DICTIONARY
  5
1A
330
C
100
AcDbDictionary
  0
DICTIONARY
  5
17
330
C
100
AcDbDictionary
  3
STANDARD
350
18
  0
DICTIONARY
  5
19
330
C
100
AcDbDictionary
  0
ENDSEC
  0
EOF
