<?xml version="1.0" encoding="UTF-8" standalone="no"?>
<!-- Created with Inkscape (http://www.inkscape.org/) -->

<svg
   xmlns:dc="http://purl.org/dc/elements/1.1/"
   xmlns:cc="http://creativecommons.org/ns#"
   xmlns:rdf="http://www.w3.org/1999/02/22-rdf-syntax-ns#"
   xmlns:svg="http://www.w3.org/2000/svg"
   xmlns="http://www.w3.org/2000/svg"
   xmlns:sodipodi="http://sodipodi.sourceforge.net/DTD/sodipodi-0.dtd"
   xmlns:inkscape="http://www.inkscape.org/namespaces/inkscape"
   width="744.09448819"
   height="1052.3622047"
   id="svg2"
   version="1.1"
   inkscape:version="0.48.2 r9819"
   sodipodi:docname="curveLeft.svg">
  <defs
     id="defs4" />
  <sodipodi:namedview
     id="base"
     pagecolor="#ffffff"
     bordercolor="#666666"
     borderopacity="1.0"
     inkscape:pageopacity="0.0"
     inkscape:pageshadow="2"
     inkscape:zoom="0.7"
     inkscape:cx="139.09322"
     inkscape:cy="463.23819"
     inkscape:document-units="px"
     inkscape:current-layer="layer1"
     showgrid="false"
     inkscape:window-width="1680"
     inkscape:window-height="998"
     inkscape:window-x="-8"
     inkscape:window-y="-8"
     inkscape:window-maximized="1" />
  <metadata
     id="metadata7">
    <rdf:RDF>
      <cc:Work
         rdf:about="">
        <dc:format>image/svg+xml</dc:format>
        <dc:type
           rdf:resource="http://purl.org/dc/dcmitype/StillImage" />
        <dc:title />
      </cc:Work>
    </rdf:RDF>
  </metadata>
  <g
     inkscape:label="Layer 1"
     inkscape:groupmode="layer"
     id="layer1">
    <g
       transform="matrix(2.8451974,0,0,-2.8451974,-2648.311,1130.7786)"
       id="g8703">
      <path
         id="path8705"
         style="fill:none;stroke:#ff0000;stroke-width:0.25;stroke-linecap:butt;stroke-linejoin:miter;stroke-miterlimit:4;stroke-opacity:1;stroke-dasharray:none"
         d="m 940.42126,34.021542 87.00754,0"
         inkscape:connector-curvature="0" />
    </g>
    <g
       transform="matrix(2.8451974,0,0,-2.8451974,-2648.311,1130.7786)"
       id="g8859">
      <path
         id="path8861"
         style="fill:none;stroke:#000000;stroke-width:0.25;stroke-linecap:butt;stroke-linejoin:miter;stroke-miterlimit:4;stroke-opacity:1;stroke-dasharray:none"
         d="m 956.18817,34.021542 2.13568,6.594936 2.97583,9.489201 2.47595,8.237644 2.03803,7.1697 1.66205,6.285378 1.34808,5.584648 1.09613,5.067543 0.90619,4.734047 0.76703,4.562729 0.63385,4.46785 0.49554,4.427992 0.35212,4.44313 0.20343,4.5133 0.0497,4.63847 -0.10938,4.81866 -0.27349,5.05386 -0.45215,5.33606 -0.68286,5.63325 -0.97492,5.93741 -1.32849,6.24856 -1.74329,6.5667 -2.21948,6.89179 -2.7572,7.22389 -3.3562,7.56296"
         inkscape:connector-curvature="0" />
    </g>
    <g
       transform="matrix(2.8451974,0,0,-2.8451974,-2648.311,1130.7786)"
       id="g8863">
      <path
         id="path8865"
         style="fill:none;stroke:#000000;stroke-width:0.25;stroke-linecap:butt;stroke-linejoin:miter;stroke-miterlimit:4;stroke-opacity:1;stroke-dasharray:none"
         d="m 959.4303,175.51125 7.29626,-0.3149 6.47602,-0.56064 5.75445,-0.81041 5.13172,-1.06421 4.60772,-1.32203 4.18244,-1.5839 3.85595,-1.84977 3.62814,-2.11969 3.479,-2.38608 3.3279,-2.61873 3.1546,-2.81007 2.959,-2.96015 2.7414,-3.06891 2.5015,-3.1364 2.2395,-3.16258 1.9553,-3.14747 1.6572,-3.1045 1.3781,-3.08738 1.1262,-3.10953 0.9014,-3.17098 0.7039,-3.27169 0.5336,-3.41167 0.3905,-3.59095 0.2747,-3.8095 0.1799,-4.05255 0.083,-4.26104 -0.021,-4.42015 -0.1344,-4.529934 -0.2553,-4.590362 -0.3844,-4.601448 -0.5212,-4.563164 -0.6665,-4.475555 -0.8444,-4.408066 -1.1536,-4.63871 -1.6192,-5.236946 -2.241,-6.20279 -3.0191,-7.536243 -3.9532,-9.237293 -4.1322,-9.263317"
         inkscape:connector-curvature="0" />
    </g>
    <g
       transform="matrix(2.8451974,0,0,-2.8451974,-2648.311,1130.7786)"
       id="g8867">
      <path
         id="path8869"
         style="fill:none;stroke:#ff0000;stroke-width:0.25;stroke-linecap:butt;stroke-linejoin:miter;stroke-miterlimit:4;stroke-opacity:1;stroke-dasharray:none"
         d="m 940.42126,34.021542 3.61072,11.149948 2.92829,9.337406 2.41778,8.044128 1.96936,6.92833 1.58521,5.994735 1.268,5.252991 1.02051,4.717621 0.84064,4.391647 0.70709,4.206231 0.57581,4.0587 0.44397,3.966901 0.31274,3.9466 0.18036,4.00095 0.0441,4.13046 -0.0983,4.33303 -0.24847,4.59064 -0.40998,4.83853 -0.6123,5.05081 -0.86695,5.27977 -1.17755,5.53874 -1.54669,5.82649 -1.97784,6.14118 -2.47339,6.4803 -13.00818,29.31279"
         inkscape:connector-curvature="0" />
    </g>
    <g
       transform="matrix(2.8451974,0,0,-2.8451974,-2648.311,1130.7786)"
       id="g8871">
      <path
         id="path8873"
         style="fill:none;stroke:#ff0000;stroke-width:0.25;stroke-linecap:butt;stroke-linejoin:miter;stroke-miterlimit:4;stroke-opacity:1;stroke-dasharray:none"
         d="m 935.90625,191.54047 31.79102,-1.37206 7.19934,-0.62326 6.63202,-0.93397 6.15655,-1.27677 5.74402,-1.64804 5.36053,-2.03009 4.98417,-2.39094 4.625,-2.70212 4.3327,-2.97156 4.074,-3.20586 3.8205,-3.4033 3.5637,-3.56499 3.3008,-3.69525 3.0297,-3.79869 2.7484,-3.8812 2.4536,-3.94938 2.1379,-4.00513 1.815,-4.06624 1.4912,-4.11737 1.1794,-4.14918 0.8961,-4.16518 0.6537,-4.17951 0.458,-4.21128 0.3091,-4.2877 0.1975,-4.44528 0.091,-4.63045 -0.023,-4.78918 -0.1456,-4.909993 -0.2777,-4.992271 -0.4207,-5.036438 -0.5762,-5.043854 -0.7499,-5.035629 -0.9797,-5.114914 -1.354,-5.444107 -1.8473,-5.974693 -2.4479,-6.775257 -3.1799,-7.937794 -4.0669,-9.503326 -1.4529,-3.256672"
         inkscape:connector-curvature="0" />
    </g>
  </g>
</svg>
