999
DXF created by Inkscape
  0
SECTION
  2
HEADER
  9
$ACADVER
  1
AC1014
  9
$HANDSEED
  5
FFFF
  9
$MEASUREMENT
 70
     1
  0
ENDSEC
  0
SECTION
  2
TABLES
  0
TABLE
  2
VPORT
  5
8
330
0
100
AcDbSymbolTable
 70
     4
  0
VPORT
  5
2E
330
8
100
AcDbSymbolTableRecord
100
AcDbViewportTableRecord
  2
*ACTIVE
 70
     0
 10
0.0
 20
0.0
 11
1.0
 21
1.0
 12
210.0
 22
148.5
 13
0.0
 23
0.0
 14
10.0
 24
10.0
 15
10.0
 25
10.0
 16
0.0
 26
0.0
 36
1.0
 17
0.0
 27
0.0
 37
0.0
 40
341.0
 41
1.24
 42
50.0
 43
0.0
 44
0.0
 50
0.0
 51
0.0
 71
     0
 72
   100
 73
     1
 74
     3
 75
     0
 76
     0
 77
     0
 78
     0
  0
ENDTAB
  0
TABLE
  2
LTYPE
  5
5
330
0
100
AcDbSymbolTable
 70
     1
  0
LTYPE
  5
14
330
5
100
AcDbSymbolTableRecord
100
AcDbLinetypeTableRecord
  2
BYBLOCK
 70
     0
  3

 72
    65
 73
     0
 40
0.0
  0
LTYPE
  5
15
330
5
100
AcDbSymbolTableRecord
100
AcDbLinetypeTableRecord
  2
BYLAYER
 70
     0
  3

 72
    65
 73
     0
 40
0.0
  0
LTYPE
  5
16
330
5
100
AcDbSymbolTableRecord
100
AcDbLinetypeTableRecord
  2
CONTINUOUS
 70
     0
  3
Solid line
 72
    65
 73
     0
 40
0.0
  0
ENDTAB
  0
TABLE
  2
LAYER
  5
2
100
AcDbSymbolTable
 70
2
  0
LAYER
  5
50
100
AcDbSymbolTableRecord
100
AcDbLayerTableRecord
  2
0
 70
0
  6
CONTINUOUS
  0
LAYER
  5
51
100
AcDbSymbolTableRecord
100
AcDbLayerTableRecord
  2
Layer_1
 70
0
  6
CONTINUOUS
  0
ENDTAB
  0
TABLE
  2
STYLE
  5
3
330
0
100
AcDbSymbolTable
 70
     1
  0
STYLE
  5
11
330
3
100
AcDbSymbolTableRecord
100
AcDbTextStyleTableRecord
  2
STANDARD
 70
     0
 40
0.0
 41
1.0
 50
0.0
 71
     0
 42
2.5
  3
txt
  4

  0
ENDTAB
  0
TABLE
  2
VIEW
  5
6
330
0
100
AcDbSymbolTable
 70
     0
  0
ENDTAB
  0
TABLE
  2
UCS
  5
7
330
0
100
AcDbSymbolTable
 70
     0
  0
ENDTAB
  0
TABLE
  2
APPID
  5
9
330
0
100
AcDbSymbolTable
 70
     2
  0
APPID
  5
12
330
9
100
AcDbSymbolTableRecord
100
AcDbRegAppTableRecord
  2
ACAD
 70
     0
  0
ENDTAB
  0
TABLE
  2
DIMSTYLE
  5
A
330
0
100
AcDbSymbolTable
 70
     1
  0
DIMSTYLE
105
27
330
A
100
AcDbSymbolTableRecord
100
AcDbDimStyleTableRecord
  2
ISO-25
 70
     0
  3

  4

  5

  6

  7

 40
1.0
 41
2.5
 42
0.625
 43
3.75
 44
1.25
 45
0.0
 46
0.0
 47
0.0
 48
0.0
140
2.5
141
2.5
142
0.0
143
0.03937007874016
144
1.0
145
0.0
146
1.0
147
0.625
 71
     0
 72
     0
 73
     0
 74
     0
 75
     0
 76
     0
 77
     1
 78
     8
170
     0
171
     3
172
     1
173
     0
174
     0
175
     0
176
     0
177
     0
178
     0
270
     2
271
     2
272
     2
273
     2
274
     3
340
11
275
     0
280
     0
281
     0
282
     0
283
     0
284
     8
285
     0
286
     0
287
     3
288
     0
  0
ENDTAB
  0
TABLE
  2
BLOCK_RECORD
  5
1
330
0
100
AcDbSymbolTable
 70
     1
  0
BLOCK_RECORD
  5
1F
330
1
100
AcDbSymbolTableRecord
100
AcDbBlockTableRecord
  2
*MODEL_SPACE
  0
BLOCK_RECORD
  5
1B
330
1
100
AcDbSymbolTableRecord
100
AcDbBlockTableRecord
  2
*PAPER_SPACE
  0
ENDTAB
  0
ENDSEC
  0
SECTION
  2
BLOCKS
  0
BLOCK
  5
20
330
1F
100
AcDbEntity
  8
0
100
AcDbBlockBegin
  2
*MODEL_SPACE
 70
     0
 10
0.0
 20
0.0
 30
0.0
  3
*MODEL_SPACE
  1

  0
ENDBLK
  5
21
330
1F
100
AcDbEntity
  8
0
100
AcDbBlockEnd
  0
BLOCK
  5
1C
330
1B
100
AcDbEntity
 67
     1
  8
0
100
AcDbBlockBegin
  2
*PAPER_SPACE
  1

  0
ENDBLK
  5
1D
330
1B
100
AcDbEntity
 67
     1
  8
0
100
AcDbBlockEnd
  0
ENDSEC
  0
SECTION
  2
ENTITIES
  0
LWPOLYLINE
  5
100
100
AcDbEntity
  8
Layer_1
 62
1
100
AcDbPolyline
 90
2
 70
0
 10
7.725304
 20
5.187698
 30
0.0
 10
77.590438
 20
5.187698
 30
0.0
  0
LWPOLYLINE
  5
101
100
AcDbEntity
  8
Layer_1
 62
7
100
AcDbPolyline
 90
64
 70
0
 10
20.385785
 20
5.187698
 30
0.0
 10
22.100689
 20
10.483286
 30
0.0
 10
24.490214
 20
18.102905
 30
0.0
 10
26.478348
 20
24.717552
 30
0.0
 10
28.114841
 20
30.474662
 30
0.0
 10
29.449430
 20
35.521682
 30
0.0
 10
30.531909
 20
40.006031
 30
0.0
 10
31.412077
 20
44.075157
 30
0.0
 10
32.139727
 20
47.876492
 30
0.0
 10
32.755636
 20
51.540263
 30
0.0
 10
33.264603
 20
55.127848
 30
0.0
 10
33.662511
 20
58.683427
 30
0.0
 10
33.945255
 20
62.251163
 30
0.0
 10
34.108605
 20
65.875243
 30
0.0
 10
34.148513
 20
69.599832
 30
0.0
 10
34.060684
 20
73.469110
 30
0.0
 10
33.841077
 20
77.527248
 30
0.0
 10
33.478011
 20
81.811986
 30
0.0
 10
32.929689
 20
86.335362
 30
0.0
 10
32.146850
 20
91.102971
 30
0.0
 10
31.080102
 20
96.120427
 30
0.0
 10
29.680278
 20
101.393342
 30
0.0
 10
27.898085
 20
106.927297
 30
0.0
 10
25.684114
 20
112.727921
 30
0.0
 10
22.989160
 20
118.800811
 30
0.0
 10
28.847879
 20
118.547954
 30
0.0
 10
34.047980
 20
118.097772
 30
0.0
 10
38.668677
 20
117.447031
 30
0.0
 10
42.789335
 20
116.592494
 30
0.0
 10
46.489232
 20
115.530933
 30
0.0
 10
49.847639
 20
114.259096
 30
0.0
 10
52.943882
 20
112.773771
 30
0.0
 10
55.857198
 20
111.071707
 30
0.0
 10
58.650759
 20
109.155738
 30
0.0
 10
61.322989
 20
107.052955
 30
0.0
 10
63.856063
 20
104.796531
 30
0.0
 10
66.232075
 20
102.419596
 30
0.0
 10
68.433358
 20
99.955329
 30
0.0
 10
70.442008
 20
97.436869
 30
0.0
 10
72.240277
 20
94.897387
 30
0.0
 10
73.810340
 20
92.370038
 30
0.0
 10
75.141035
 20
89.877193
 30
0.0
 10
76.247618
 20
87.398095
 30
0.0
 10
77.151932
 20
84.901211
 30
0.0
 10
77.875737
 20
82.354984
 30
0.0
 10
78.440953
 20
79.727889
 30
0.0
 10
78.869422
 20
76.988393
 30
0.0
 10
79.182985
 20
74.104940
 30
0.0
 10
79.403563
 20
71.045995
 30
0.0
 10
79.548018
 20
67.791887
 30
0.0
 10
79.614666
 20
64.370366
 30
0.0
 10
79.597803
 20
60.821083
 30
0.0
 10
79.489883
 20
57.183646
 30
0.0
 10
79.284882
 20
53.497687
 30
0.0
 10
78.976218
 20
49.802825
 30
0.0
 10
78.557706
 20
46.138705
 30
0.0
 10
78.022521
 20
42.544934
 30
0.0
 10
77.344486
 20
39.005354
 30
0.0
 10
76.418171
 20
35.280572
 30
0.0
 10
75.117989
 20
31.075420
 30
0.0
 10
73.318516
 20
26.094717
 30
0.0
 10
70.894245
 20
20.043280
 30
0.0
 10
67.719913
 20
12.625937
 30
0.0
 10
64.401847
 20
5.187698
 30
0.0
  0
LWPOLYLINE
  5
102
100
AcDbEntity
  8
Layer_1
 62
1
100
AcDbPolyline
 90
64
 70
0
 10
7.725304
 20
5.187698
 30
0.0
 10
10.624632
 20
14.140860
 30
0.0
 10
12.975985
 20
21.638591
 30
0.0
 10
14.917409
 20
28.097849
 30
0.0
 10
16.498761
 20
33.661145
 30
0.0
 10
17.771650
 20
38.474785
 30
0.0
 10
18.789826
 20
42.692820
 30
0.0
 10
19.609273
 20
46.480966
 30
0.0
 10
20.284288
 20
50.007362
 30
0.0
 10
20.852066
 20
53.384872
 30
0.0
 10
21.314429
 20
56.643919
 30
0.0
 10
21.670927
 20
59.829253
 30
0.0
 10
21.922050
 20
62.998286
 30
0.0
 10
22.066875
 20
66.210960
 30
0.0
 10
22.102286
 20
69.527628
 30
0.0
 10
22.023354
 20
73.006956
 30
0.0
 10
21.823838
 20
76.693138
 30
0.0
 10
21.494633
 20
80.578371
 30
0.0
 10
21.002970
 20
84.634060
 30
0.0
 10
20.306828
 20
88.873599
 30
0.0
 10
19.361281
 20
93.321085
 30
0.0
 10
18.119323
 20
97.999628
 30
0.0
 10
16.531161
 20
102.930860
 30
0.0
 10
14.545084
 20
108.134398
 30
0.0
 10
4.099802
 20
131.671921
 30
0.0
 10
29.627338
 20
130.570187
 30
0.0
 10
35.408249
 20
130.069723
 30
0.0
 10
40.733615
 20
129.319766
 30
0.0
 10
45.677189
 20
128.294548
 30
0.0
 10
50.289510
 20
126.971208
 30
0.0
 10
54.593897
 20
125.341091
 30
0.0
 10
58.596076
 20
123.421219
 30
0.0
 10
62.309849
 20
121.251476
 30
0.0
 10
65.788911
 20
118.865379
 30
0.0
 10
69.060243
 20
116.291144
 30
0.0
 10
72.128020
 20
113.558369
 30
0.0
 10
74.989593
 20
110.695761
 30
0.0
 10
77.640062
 20
107.728557
 30
0.0
 10
80.072845
 20
104.678292
 30
0.0
 10
82.279749
 20
101.561774
 30
0.0
 10
84.249936
 20
98.390510
 30
0.0
 10
85.966622
 20
95.174479
 30
0.0
 10
87.424027
 20
91.909378
 30
0.0
 10
88.621428
 20
88.603220
 30
0.0
 10
89.568460
 20
85.271520
 30
0.0
 10
90.288009
 20
81.926973
 30
0.0
 10
90.812915
 20
78.570918
 30
0.0
 10
91.180679
 20
75.189353
 30
0.0
 10
91.428880
 20
71.746425
 30
0.0
 10
91.587468
 20
68.176963
 30
0.0
 10
91.660539
 20
64.458814
 30
0.0
 10
91.642070
 20
60.613208
 30
0.0
 10
91.525157
 20
56.670592
 30
0.0
 10
91.302170
 20
52.661909
 30
0.0
 10
90.964357
 20
48.617760
 30
0.0
 10
90.501681
 20
44.567657
 30
0.0
 10
89.899528
 20
40.524158
 30
0.0
 10
89.112851
 20
36.416995
 30
0.0
 10
88.025618
 20
32.045497
 30
0.0
 10
86.542277
 20
27.247950
 30
0.0
 10
84.576668
 20
21.807568
 30
0.0
 10
82.023278
 20
15.433695
 30
0.0
 10
78.757647
 20
7.802734
 30
0.0
 10
77.591001
 20
5.187698
 30
0.0
  0
ENDSEC
  0
SECTION
  2
OBJECTS
  0
DICTIONARY
  5
C
330
0
100
AcDbDictionary
  3
ACAD_GROUP
350
D
  3
ACAD_MLINESTYLE
350
17
  0
DICTIONARY
  5
D
330
C
100
AcDbDictionary
  0
DICTIONARY
  5
1A
330
C
100
AcDbDictionary
  0
DICTIONARY
  5
17
330
C
100
AcDbDictionary
  3
STANDARD
350
18
  0
DICTIONARY
  5
19
330
C
100
AcDbDictionary
  0
ENDSEC
  0
EOF
