<?xml version="1.0" encoding="UTF-8" standalone="no"?>
<!-- Created with Inkscape (http://www.inkscape.org/) -->

<svg
   xmlns:dc="http://purl.org/dc/elements/1.1/"
   xmlns:cc="http://creativecommons.org/ns#"
   xmlns:rdf="http://www.w3.org/1999/02/22-rdf-syntax-ns#"
   xmlns:svg="http://www.w3.org/2000/svg"
   xmlns="http://www.w3.org/2000/svg"
   xmlns:sodipodi="http://sodipodi.sourceforge.net/DTD/sodipodi-0.dtd"
   xmlns:inkscape="http://www.inkscape.org/namespaces/inkscape"
   width="210mm"
   height="297mm"
   viewBox="0 0 744.09448819 1052.3622047"
   id="svg2"
   version="1.1"
   inkscape:version="0.91pre4 r13712"
   sodipodi:docname="doors_v2.svg">
  <defs
     id="defs4" />
  <sodipodi:namedview
     id="base"
     pagecolor="#ffffff"
     bordercolor="#666666"
     borderopacity="1.0"
     inkscape:pageopacity="0.0"
     inkscape:pageshadow="2"
     inkscape:zoom="0.35355339"
     inkscape:cx="-297.21851"
     inkscape:cy="343.27494"
     inkscape:document-units="px"
     inkscape:current-layer="layer1"
     showgrid="false"
     inkscape:window-width="1920"
     inkscape:window-height="1017"
     inkscape:window-x="-8"
     inkscape:window-y="-8"
     inkscape:window-maximized="1" />
  <metadata
     id="metadata7">
    <rdf:RDF>
      <cc:Work
         rdf:about="">
        <dc:format>image/svg+xml</dc:format>
        <dc:type
           rdf:resource="http://purl.org/dc/dcmitype/StillImage" />
        <dc:title />
      </cc:Work>
    </rdf:RDF>
  </metadata>
  <g
     inkscape:label="Layer 1"
     inkscape:groupmode="layer"
     id="layer1">
    <path
       style="opacity:0.75;fill:#ff0000;stroke:#ff0000;stroke-width:0.12681526"
       d="m 159.26301,49.573312 -0.048,0.2524 -0.043,-0.23055 C 67.854919,86.122822 59.448479,116.81263 36.360709,205.84774 l 0,283.33823 93.324461,0.53873 0,0.31791 27.63633,-0.16018 31.42585,0.182 0,-0.36158 93.32697,-0.53872 0,-283.33824 C 270.35904,108.62991 239.35033,94.411232 159.26302,49.573312 Z"
       id="rect3515"
       inkscape:connector-curvature="0"
       sodipodi:nodetypes="cccccccccccccc" />
    <g
       id="g3511"
       transform="translate(-518.66282,-99.348503)"
       style="fill:#00ffff">
      <path
         sodipodi:nodetypes="cccssccccccccsscc"
         inkscape:connector-curvature="0"
         id="rect3347"
         d="m 678.27734,235.66992 -0.24414,0.0156 c -6.60328,0.48238 -22.5753,9.39434 -28.52929,24.33789 -7.5415,0.17825 -17.63901,3.80948 -20.95508,2.41797 -2.35467,-0.98809 -3.56505,2.52622 -2.94727,4.72461 1.24812,4.44149 0.0566,12.4742 6.67774,23.63281 -0.0777,0.25725 -0.002,0.51217 -0.0586,0.72656 -9.33993,6.39619 -24.26014,15.27697 -22.90429,42.16016 L 608.75,538.48044 c 46.28693,10e-4 92.52398,-0.0156 138.81055,-0.0156 l -0.21286,-204.88135 c 1.35585,-26.8832 -13.91792,-35.67753 -23.25785,-42.07372 -0.057,-0.21439 0.0191,-0.46736 -0.0586,-0.72461 6.62116,-11.15861 5.42766,-19.19133 6.67578,-23.63282 0.61778,-2.19839 -0.59259,-5.71465 -2.94726,-4.72656 -3.31607,1.39151 -13.41358,-2.23776 -20.95508,-2.41601 -5.95399,-14.94355 -21.92407,-23.85747 -28.52734,-24.33985 z"
         style="opacity:0.75;fill:#00ffff;fill-rule:evenodd;stroke:#000000;stroke-width:0.1;stroke-linecap:butt;stroke-linejoin:miter;stroke-opacity:1" />
      <path
         sodipodi:nodetypes="cssscsscsssssscsssssssssssssssscsssssssssscsssssssscssssscsssscscssssssssssssssssssssccsccssssssssssssssssssssssssssssscc"
         inkscape:connector-curvature="0"
         id="path3467"
         d="m 628.2598,369.01817 c 2.63289,0.31165 4.0433,1.7887 6.76419,7.08381 4.06285,7.90667 7.71399,10.09445 17.85364,10.69799 9.73075,0.5792 16.90899,3.47058 21.93801,8.83656 l 3.27512,3.49457 -0.0407,-3.78547 c -0.0224,-2.08201 0.12056,-5.00997 0.31759,-6.50658 0.19703,-1.49661 -0.18154,-5.4982 -0.84229,-8.89237 -1.24138,-6.38126 -4.55607,-11.00936 -8.72759,-12.18576 -3.72582,-1.05071 -10.98489,-6.24974 -12.49291,-8.94754 -1.80143,-3.22272 -1.83589,-6.19294 -0.092,-7.93133 1.00779,-1.00462 1.27387,-0.838 1.32809,0.83166 0.13385,4.12192 3.42619,8.00147 10.23459,12.05997 3.78824,2.2582 7.80268,5.37655 8.92099,6.9297 l 2.03329,2.8239 0.51489,-5.01936 c 0.81843,-7.9784 0.16917,-24.12661 -1.09135,-27.14343 -1.41753,-3.39258 -2.91549,-4.32231 -5.68761,-3.53007 -2.70726,0.77369 -4.04361,-1.08613 -1.7242,-2.39961 2.02695,-1.14785 5.26103,-0.26258 7.25343,1.98544 0.76414,0.86217 1.68684,1.55793 2.05044,1.54612 0.8861,-0.0288 0.51878,-5.09568 -0.51895,-7.15879 -0.4575,-0.90955 -0.34623,-2.62059 0.24873,-3.82465 0.86257,-1.74565 1.36844,-1.95217 2.54463,-1.03883 1.6829,1.30682 2.09583,5.45776 0.63912,6.42476 -0.96289,0.6392 -1.29816,4.54453 -0.3876,4.51496 0.2562,-0.008 1.9904,-0.80386 3.85376,-1.76788 3.68964,-1.90882 6.57894,-1.52044 6.65737,0.89489 0.0553,1.70314 -1.48678,2.11059 -2.45691,0.64918 -0.98662,-1.48624 -5.12683,1.03115 -6.29219,3.82585 -0.61824,1.48264 -0.80809,8.35021 -0.4745,17.16416 0.30584,8.08096 0.79383,14.02519 1.08439,13.20942 0.78309,-2.1986 3.90908,-4.78742 10.36338,-8.58256 6.90112,-4.05786 10.54594,-9.22374 9.61396,-13.62605 -0.81446,-3.84721 -2.95918,-5.85821 -5.22793,-4.90202 -1.4572,0.61415 -1.51844,0.89652 -0.341,1.57242 1.193,0.68484 1.22153,1.09897 0.16905,2.45435 -1.66226,2.14064 -4.04408,0.4213 -3.39228,-2.44875 0.71089,-3.13019 4.30639,-4.52125 7.72787,-2.98983 5.0882,2.27744 6.04826,10.51692 1.88508,16.17845 -1.06752,1.45173 -4.68447,4.09023 -8.03766,5.86333 -11.22073,5.93329 -12.37999,7.87618 -12.93252,21.67463 -0.22694,5.66705 -0.0214,10.71876 0.45668,11.22601 0.5159,0.54732 0.84806,0.26762 0.81702,-0.68799 -0.0688,-2.11889 5.18273,-6.78837 10.5606,-9.3901 2.36204,-1.14273 8.08146,-2.54719 12.70982,-3.12104 7.36407,-0.91304 8.78289,-1.41585 11.3588,-4.02542 1.61897,-1.64013 3.9566,-5.13741 5.19473,-7.77173 2.08894,-4.44458 4.60366,-6.93898 7.07644,-7.01927 1.62968,-0.0529 -4.24717,13.40944 -6.99009,16.01251 -1.36722,1.29752 -4.42987,2.94731 -6.80588,3.6662 l -4.32001,1.30705 3.51069,2.22254 c 4.65857,2.94922 6.16875,5.90934 8.93404,17.51158 1.27674,5.35681 2.90298,10.07354 3.61385,10.48161 0.71087,0.40808 1.00768,1.04588 0.65957,1.41735 -1.23225,1.31497 -2.82461,-0.62889 -4.06754,-4.96544 l -1.25879,-4.39184 -2.81233,4.16014 c -1.54678,2.28807 -4.23157,4.80799 -5.9662,5.59983 -2.35978,1.07723 -15.98421,4.03044 -19.05399,4.13012 -0.19582,0.006 -1.06056,0.7634 -1.92167,1.68231 -0.86111,0.9189 -1.82222,1.4303 -2.13581,1.13645 -1.13251,-1.06128 0.72311,-2.67869 4.54266,-3.95954 l 3.89669,-1.30673 -3.54368,-3.67525 c -6.97309,-7.23201 -6.11833,-16.05026 1.99538,-20.58565 4.20343,-2.34962 8.34494,-2.00805 11.77117,0.97085 4.35595,3.78724 4.76547,8.9333 1.0678,13.41798 -2.07432,2.51581 -2.61784,2.69078 -5.89812,1.89867 -5.9722,-1.44214 -7.82993,-7.3067 -3.31868,-10.47652 2.51893,-1.76992 2.62419,-1.75095 5.07108,0.91368 1.96143,2.13597 2.25895,3.02994 1.38357,4.15724 -1.56755,2.01867 -3.60561,1.85717 -4.90294,-0.38852 -0.86774,-1.50206 -0.73527,-2.14311 0.61807,-2.99123 0.94736,-0.5937 1.2149,-1.07667 0.59453,-1.07325 -2.36753,0.0131 -3.63492,3.00762 -2.36109,5.57877 2.42053,4.88567 10.2275,1.65283 10.03883,-4.15704 -0.0897,-2.76134 -5.65755,-7.52092 -8.68324,-7.42267 -1.54445,0.0502 -4.0205,1.48291 -6.13273,3.5487 -2.99558,2.92969 -3.50049,4.06327 -3.27044,7.34244 0.2998,4.27369 2.85333,8.13551 6.61398,10.00265 3.56163,1.76832 10.98157,0.61218 14.64044,-2.28121 3.73311,-2.95211 6.38189,-9.92995 5.38561,-14.18766 -1.61136,-6.88642 -10.67318,-13.67873 -17.86055,-13.38744 -6.62048,0.26832 -15.39105,7.36994 -18.18045,14.7209 -5.1801,14.29251 -2.21891,15.24166 -2.82742,17.03726 -0.4944,0.3282 -2.50611,0.34891 -4.47048,0.046 l -3.57159,-0.5507 c -2.51278,-3.43038 -0.86116,-15.67502 -6.74962,-23.48555 -5.7703,-5.76654 -15.63596,-7.74368 -22.65397,-4.54001 -6.91835,3.15818 -11.39663,11.90188 -9.73432,19.00599 1.74136,7.44198 9.07968,12.27525 16.90589,11.13482 8.24638,-1.20167 14.12731,-11.59897 9.93519,-17.56513 -5.55414,-7.90459 -17.58455,-5.65177 -17.29585,3.23883 0.18713,5.76283 7.65764,7.97232 10.11825,2.99259 1.10594,-2.23818 1.04522,-2.78364 -0.46763,-4.20133 -1.63012,-1.52759 -1.73425,-1.49637 -1.6694,0.50063 0.0723,2.22634 -1.51156,3.37732 -3.66548,2.66369 -0.69534,-0.23038 -1.29124,-1.24989 -1.32423,-2.2656 -0.0907,-2.79297 6.70131,-4.10938 8.61046,-1.66884 2.00657,2.56508 1.806,4.15437 -0.88699,7.02814 -4.75812,5.0775 -12.48697,2.0048 -12.71624,-5.05551 -0.12655,-3.89723 3.93212,-9.62739 7.07341,-9.98646 6.7194,-0.76806 15.79064,4.87309 15.91382,9.89635 0.11195,4.5661 -3.19443,11.07823 -6.95003,13.68849 -4.25473,2.95719 -4.32347,3.60483 -0.45881,4.32303 1.65455,0.30749 3.29779,0.99521 3.65166,1.52828 0.88442,1.3323 -0.44296,2.57827 -1.35255,1.2696 -0.68912,-0.99148 -5.4213,-2.49626 -15.05643,-4.78776 -4.72026,-1.12262 -10.17208,-5.64788 -11.21942,-9.31264 -0.9032,-3.16041 -2.08758,-3.00138 -3.21665,0.43189 -1.58041,4.80574 -1.22929,0.57126 0.56692,-6.83702 1.94434,-8.01921 4.44232,-12.90239 7.7545,-15.15891 2.22469,-1.51564 2.7726,-1.7543 4.74225,-2.06573 1.89839,-0.30017 0.92031,-2.15601 -1.10166,-2.09035 -3.26111,0.1059 -11.76731,-4.3211 -13.97396,-7.27267 -1.11566,-1.49228 -2.33243,-4.05407 -2.70393,-5.69287 -0.3715,-1.63881 -0.99108,-3.72259 -1.37684,-4.63063 -0.45385,-1.06832 -0.23085,-1.5953 0.63185,-1.49318 z"
         style="fill:#00ff00;stroke:#ff0000;stroke-width:0.1" />
    </g>
  </g>
</svg>
