999
DXF created by Inkscape
  0
SECTION
  2
HEADER
  9
$ACADVER
  1
AC1014
  9
$HANDSEED
  5
FFFF
  9
$MEASUREMENT
 70
     1
  0
ENDSEC
  0
SECTION
  2
TABLES
  0
TABLE
  2
VPORT
  5
8
330
0
100
AcDbSymbolTable
 70
     4
  0
VPORT
  5
2E
330
8
100
AcDbSymbolTableRecord
100
AcDbViewportTableRecord
  2
*ACTIVE
 70
     0
 10
0.0
 20
0.0
 11
1.0
 21
1.0
 12
210.0
 22
148.5
 13
0.0
 23
0.0
 14
10.0
 24
10.0
 15
10.0
 25
10.0
 16
0.0
 26
0.0
 36
1.0
 17
0.0
 27
0.0
 37
0.0
 40
341.0
 41
1.24
 42
50.0
 43
0.0
 44
0.0
 50
0.0
 51
0.0
 71
     0
 72
   100
 73
     1
 74
     3
 75
     0
 76
     0
 77
     0
 78
     0
  0
ENDTAB
  0
TABLE
  2
LTYPE
  5
5
330
0
100
AcDbSymbolTable
 70
     1
  0
LTYPE
  5
14
330
5
100
AcDbSymbolTableRecord
100
AcDbLinetypeTableRecord
  2
BYBLOCK
 70
     0
  3

 72
    65
 73
     0
 40
0.0
  0
LTYPE
  5
15
330
5
100
AcDbSymbolTableRecord
100
AcDbLinetypeTableRecord
  2
BYLAYER
 70
     0
  3

 72
    65
 73
     0
 40
0.0
  0
LTYPE
  5
16
330
5
100
AcDbSymbolTableRecord
100
AcDbLinetypeTableRecord
  2
CONTINUOUS
 70
     0
  3
Solid line
 72
    65
 73
     0
 40
0.0
  0
ENDTAB
  0
TABLE
  2
LAYER
  5
2
100
AcDbSymbolTable
 70
2
  0
LAYER
  5
50
100
AcDbSymbolTableRecord
100
AcDbLayerTableRecord
  2
0
 70
0
  6
CONTINUOUS
  0
LAYER
  5
51
100
AcDbSymbolTableRecord
100
AcDbLayerTableRecord
  2
Layer_1
 70
0
  6
CONTINUOUS
  0
ENDTAB
  0
TABLE
  2
STYLE
  5
3
330
0
100
AcDbSymbolTable
 70
     1
  0
STYLE
  5
11
330
3
100
AcDbSymbolTableRecord
100
AcDbTextStyleTableRecord
  2
STANDARD
 70
     0
 40
0.0
 41
1.0
 50
0.0
 71
     0
 42
2.5
  3
txt
  4

  0
ENDTAB
  0
TABLE
  2
VIEW
  5
6
330
0
100
AcDbSymbolTable
 70
     0
  0
ENDTAB
  0
TABLE
  2
UCS
  5
7
330
0
100
AcDbSymbolTable
 70
     0
  0
ENDTAB
  0
TABLE
  2
APPID
  5
9
330
0
100
AcDbSymbolTable
 70
     2
  0
APPID
  5
12
330
9
100
AcDbSymbolTableRecord
100
AcDbRegAppTableRecord
  2
ACAD
 70
     0
  0
ENDTAB
  0
TABLE
  2
DIMSTYLE
  5
A
330
0
100
AcDbSymbolTable
 70
     1
  0
DIMSTYLE
105
27
330
A
100
AcDbSymbolTableRecord
100
AcDbDimStyleTableRecord
  2
ISO-25
 70
     0
  3

  4

  5

  6

  7

 40
1.0
 41
2.5
 42
0.625
 43
3.75
 44
1.25
 45
0.0
 46
0.0
 47
0.0
 48
0.0
140
2.5
141
2.5
142
0.0
143
0.03937007874016
144
1.0
145
0.0
146
1.0
147
0.625
 71
     0
 72
     0
 73
     0
 74
     0
 75
     0
 76
     0
 77
     1
 78
     8
170
     0
171
     3
172
     1
173
     0
174
     0
175
     0
176
     0
177
     0
178
     0
270
     2
271
     2
272
     2
273
     2
274
     3
340
11
275
     0
280
     0
281
     0
282
     0
283
     0
284
     8
285
     0
286
     0
287
     3
288
     0
  0
ENDTAB
  0
TABLE
  2
BLOCK_RECORD
  5
1
330
0
100
AcDbSymbolTable
 70
     1
  0
BLOCK_RECORD
  5
1F
330
1
100
AcDbSymbolTableRecord
100
AcDbBlockTableRecord
  2
*MODEL_SPACE
  0
BLOCK_RECORD
  5
1B
330
1
100
AcDbSymbolTableRecord
100
AcDbBlockTableRecord
  2
*PAPER_SPACE
  0
ENDTAB
  0
ENDSEC
  0
SECTION
  2
BLOCKS
  0
BLOCK
  5
20
330
1F
100
AcDbEntity
  8
0
100
AcDbBlockBegin
  2
*MODEL_SPACE
 70
     0
 10
0.0
 20
0.0
 30
0.0
  3
*MODEL_SPACE
  1

  0
ENDBLK
  5
21
330
1F
100
AcDbEntity
  8
0
100
AcDbBlockEnd
  0
BLOCK
  5
1C
330
1B
100
AcDbEntity
 67
     1
  8
0
100
AcDbBlockBegin
  2
*PAPER_SPACE
  1

  0
ENDBLK
  5
1D
330
1B
100
AcDbEntity
 67
     1
  8
0
100
AcDbBlockEnd
  0
ENDSEC
  0
SECTION
  2
ENTITIES
  0
LWPOLYLINE
  5
100
100
AcDbEntity
  8
Layer_1
 62
1
100
AcDbPolyline
 90
6
 70
0
 10
87.030300
 20
2.293457
 30
0.0
 10
87.030300
 20
128.785542
 30
0.0
 10
7.972741
 20
128.785542
 30
0.0
 10
7.972741
 20
2.293457
 30
0.0
 10
87.030300
 20
2.293457
 30
0.0
 10
87.030300
 20
2.293457
 30
0.0
  0
LWPOLYLINE
  5
101
100
AcDbEntity
  8
Layer_1
 62
7
100
AcDbPolyline
 90
81
 70
0
 10
43.666620
 20
105.698711
 30
0.0
 10
36.702036
 20
102.132195
 30
0.0
 10
36.224576
 20
101.548632
 30
0.0
 10
35.871900
 20
100.915199
 30
0.0
 10
35.644720
 20
100.225129
 30
0.0
 10
35.543677
 20
99.471687
 30
0.0
 10
35.569371
 20
98.648128
 30
0.0
 10
35.722616
 20
97.747742
 30
0.0
 10
36.003982
 20
96.763760
 30
0.0
 10
36.414227
 20
95.689431
 30
0.0
 10
36.952151
 20
94.525016
 30
0.0
 10
37.609498
 20
93.298572
 30
0.0
 10
38.376048
 20
92.045178
 30
0.0
 10
39.241800
 20
90.799839
 30
0.0
 10
40.196531
 20
89.597682
 30
0.0
 10
41.230256
 20
88.473689
 30
0.0
 10
42.332737
 20
87.462970
 30
0.0
 10
43.493942
 20
86.600563
 30
0.0
 10
44.704464
 20
85.914414
 30
0.0
 10
45.958166
 20
85.404224
 30
0.0
 10
47.249659
 20
85.062561
 30
0.0
 10
48.573477
 20
84.882009
 30
0.0
 10
49.924318
 20
84.855130
 30
0.0
 10
51.296726
 20
84.974562
 30
0.0
 10
52.685301
 20
85.232867
 30
0.0
 10
54.084730
 20
85.622605
 30
0.0
 10
55.487108
 20
86.135499
 30
0.0
 10
56.875391
 20
86.759626
 30
0.0
 10
58.229947
 20
87.482165
 30
0.0
 10
59.531179
 20
88.290315
 30
0.0
 10
60.759607
 20
89.171269
 30
0.0
 10
61.895625
 20
90.112228
 30
0.0
 10
62.919642
 20
91.100361
 30
0.0
 10
63.812130
 20
92.122891
 30
0.0
 10
64.559952
 20
93.168214
 30
0.0
 10
65.175565
 20
94.229728
 30
0.0
 10
65.677825
 20
95.302033
 30
0.0
 10
66.085707
 20
96.379714
 30
0.0
 10
66.418026
 20
97.457403
 30
0.0
 10
66.693652
 20
98.529692
 30
0.0
 10
66.931536
 20
99.591198
 30
0.0
 10
67.150510
 20
100.636521
 30
0.0
 10
67.365040
 20
101.660292
 30
0.0
 10
67.571420
 20
102.657090
 30
0.0
 10
67.761633
 20
103.621521
 30
0.0
 10
67.927574
 20
104.548202
 30
0.0
 10
68.061087
 20
105.431741
 30
0.0
 10
68.154169
 20
106.266755
 30
0.0
 10
68.198679
 20
107.047828
 30
0.0
 10
68.186504
 20
107.769584
 30
0.0
 10
68.108316
 20
108.426386
 30
0.0
 10
67.949125
 20
109.011744
 30
0.0
 10
67.692805
 20
109.518914
 30
0.0
 10
67.323187
 20
109.941129
 30
0.0
 10
66.824010
 20
110.271677
 30
0.0
 10
66.179161
 20
110.503797
 30
0.0
 10
65.372466
 20
110.630764
 30
0.0
 10
64.387677
 20
110.645785
 30
0.0
 10
63.217641
 20
110.546457
 30
0.0
 10
61.891071
 20
110.347374
 30
0.0
 10
60.445796
 20
110.067376
 30
0.0
 10
58.919606
 20
109.725381
 30
0.0
 10
57.350234
 20
109.340244
 30
0.0
 10
55.775447
 20
108.930829
 30
0.0
 10
54.233090
 20
108.516022
 30
0.0
 10
52.760848
 20
108.114702
 30
0.0
 10
51.387863
 20
107.741574
 30
0.0
 10
50.108672
 20
107.394748
 30
0.0
 10
48.909014
 20
107.068122
 30
0.0
 10
47.774830
 20
106.755687
 30
0.0
 10
46.691884
 20
106.451315
 30
0.0
 10
45.646055
 20
106.148975
 30
0.0
 10
44.623137
 20
105.842580
 30
0.0
 10
43.609058
 20
105.526088
 30
0.0
 10
42.594591
 20
105.193873
 30
0.0
 10
41.590877
 20
104.842082
 30
0.0
 10
40.614144
 20
104.467389
 30
0.0
 10
39.680640
 20
104.066401
 30
0.0
 10
38.806493
 20
103.635743
 30
0.0
 10
38.007862
 20
103.172086
 30
0.0
 10
37.300953
 20
102.671992
 30
0.0
  0
LWPOLYLINE
  5
102
100
AcDbEntity
  8
Layer_1
 62
7
100
AcDbPolyline
 90
97
 70
0
 10
23.179162
 20
2.293457
 30
0.0
 10
23.765484
 20
9.573375
 30
0.0
 10
24.421867
 20
18.481097
 30
0.0
 10
24.929148
 20
26.283935
 30
0.0
 10
25.301857
 20
33.149419
 30
0.0
 10
25.554509
 20
39.245057
 30
0.0
 10
25.701580
 20
44.738373
 30
0.0
 10
25.757632
 20
49.796888
 30
0.0
 10
25.737077
 20
54.588117
 30
0.0
 10
25.653062
 20
59.248458
 30
0.0
 10
25.512696
 20
63.789800
 30
0.0
 10
25.321811
 20
68.192967
 30
0.0
 10
25.085951
 20
72.438713
 30
0.0
 10
24.811052
 20
76.507853
 30
0.0
 10
24.502720
 20
80.381160
 30
0.0
 10
24.166780
 20
84.039406
 30
0.0
 10
23.808887
 20
87.463428
 30
0.0
 10
23.438020
 20
90.638404
 30
0.0
 10
23.075928
 20
93.567312
 30
0.0
 10
22.747515
 20
96.257609
 30
0.0
 10
22.477834
 20
98.716671
 30
0.0
 10
22.291820
 20
100.951929
 30
0.0
 10
22.214343
 20
102.970806
 30
0.0
 10
22.270474
 20
104.780686
 30
0.0
 10
22.485052
 20
106.389002
 30
0.0
 10
22.876529
 20
107.805326
 30
0.0
 10
23.436597
 20
109.047731
 30
0.0
 10
24.150455
 20
110.136425
 30
0.0
 10
25.003273
 20
111.091662
 30
0.0
 10
25.980203
 20
111.933625
 30
0.0
 10
27.066422
 20
112.682561
 30
0.0
 10
28.247028
 20
113.358700
 30
0.0
 10
29.507253
 20
113.982259
 30
0.0
 10
30.834353
 20
114.569973
 30
0.0
 10
32.224177
 20
115.124664
 30
0.0
 10
33.674709
 20
115.645646
 30
0.0
 10
35.183965
 20
116.132245
 30
0.0
 10
36.749819
 20
116.583790
 30
0.0
 10
38.370340
 20
116.999609
 30
0.0
 10
40.043467
 20
117.379022
 30
0.0
 10
41.767207
 20
117.721357
 30
0.0
 10
43.539535
 20
118.025848
 30
0.0
 10
45.358333
 20
118.291220
 30
0.0
 10
47.221664
 20
118.516139
 30
0.0
 10
49.127560
 20
118.699284
 30
0.0
 10
51.073839
 20
118.839271
 30
0.0
 10
53.058626
 20
118.934772
 30
0.0
 10
55.079749
 20
118.984420
 30
0.0
 10
57.135364
 20
118.986792
 30
0.0
 10
59.220040
 20
118.941413
 30
0.0
 10
61.315564
 20
118.850181
 30
0.0
 10
63.400233
 20
118.715807
 30
0.0
 10
65.452575
 20
118.540987
 30
0.0
 10
67.450921
 20
118.328409
 30
0.0
 10
69.373751
 20
118.080785
 30
0.0
 10
71.199451
 20
117.800810
 30
0.0
 10
72.906398
 20
117.491158
 30
0.0
 10
74.475335
 20
117.153424
 30
0.0
 10
75.895857
 20
116.784691
 30
0.0
 10
77.159892
 20
116.380897
 30
0.0
 10
78.259378
 20
115.937993
 30
0.0
 10
79.186169
 20
115.451971
 30
0.0
 10
79.932164
 20
114.918735
 30
0.0
 10
80.489291
 20
114.334271
 30
0.0
 10
80.849501
 20
113.694537
 30
0.0
 10
81.010857
 20
112.996482
 30
0.0
 10
80.996074
 20
112.241135
 30
0.0
 10
80.834282
 20
111.430510
 30
0.0
 10
80.554466
 20
110.566640
 30
0.0
 10
80.185623
 20
109.651533
 30
0.0
 10
79.756799
 20
108.687197
 30
0.0
 10
79.296850
 20
107.675687
 30
0.0
 10
78.834972
 20
106.619004
 30
0.0
 10
78.394716
 20
105.515028
 30
0.0
 10
77.978771
 20
104.344992
 30
0.0
 10
77.584400
 20
103.085969
 30
0.0
 10
77.208900
 20
101.715040
 30
0.0
 10
76.849560
 20
100.209286
 30
0.0
 10
76.503825
 20
98.545788
 30
0.0
 10
76.168803
 20
96.701636
 30
0.0
 10
75.841892
 20
94.653895
 30
0.0
 10
75.521828
 20
92.378295
 30
0.0
 10
75.213203
 20
89.845188
 30
0.0
 10
74.922192
 20
87.023576
 30
0.0
 10
74.654724
 20
83.882406
 30
0.0
 10
74.416982
 20
80.390718
 30
0.0
 10
74.214951
 20
76.517467
 30
0.0
 10
74.054749
 20
72.231669
 30
0.0
 10
73.942416
 20
67.502280
 30
0.0
 10
73.888024
 20
62.273611
 30
0.0
 10
73.917196
 20
56.391049
 30
0.0
 10
74.059785
 20
49.675273
 30
0.0
 10
74.345301
 20
41.946979
 30
0.0
 10
74.803558
 20
33.026850
 30
0.0
 10
75.464092
 20
22.735564
 30
0.0
 10
76.356723
 20
10.893810
 30
0.0
 10
77.088235
 20
2.293354
 30
0.0
  0
ENDSEC
  0
SECTION
  2
OBJECTS
  0
DICTIONARY
  5
C
330
0
100
AcDbDictionary
  3
ACAD_GROUP
350
D
  3
ACAD_MLINESTYLE
350
17
  0
DICTIONARY
  5
D
330
C
100
AcDbDictionary
  0
DICTIONARY
  5
1A
330
C
100
AcDbDictionary
  0
DICTIONARY
  5
17
330
C
100
AcDbDictionary
  3
STANDARD
350
18
  0
DICTIONARY
  5
19
330
C
100
AcDbDictionary
  0
ENDSEC
  0
EOF
