<?xml version="1.0" encoding="UTF-8" standalone="no"?>
<!-- Created with Inkscape (http://www.inkscape.org/) -->

<svg
   xmlns:dc="http://purl.org/dc/elements/1.1/"
   xmlns:cc="http://creativecommons.org/ns#"
   xmlns:rdf="http://www.w3.org/1999/02/22-rdf-syntax-ns#"
   xmlns:svg="http://www.w3.org/2000/svg"
   xmlns="http://www.w3.org/2000/svg"
   xmlns:sodipodi="http://sodipodi.sourceforge.net/DTD/sodipodi-0.dtd"
   xmlns:inkscape="http://www.inkscape.org/namespaces/inkscape"
   width="744.09448819"
   height="1052.3622047"
   id="svg3035"
   version="1.1"
   inkscape:version="0.48.2 r9819"
   sodipodi:docname="flintstones.svg">
  <defs
     id="defs3037" />
  <sodipodi:namedview
     id="base"
     pagecolor="#ffffff"
     bordercolor="#666666"
     borderopacity="1.0"
     inkscape:pageopacity="0.0"
     inkscape:pageshadow="2"
     inkscape:zoom="0.35"
     inkscape:cx="375"
     inkscape:cy="520"
     inkscape:document-units="px"
     inkscape:current-layer="layer1"
     showgrid="false"
     inkscape:window-width="1680"
     inkscape:window-height="998"
     inkscape:window-x="-8"
     inkscape:window-y="-8"
     inkscape:window-maximized="1" />
  <metadata
     id="metadata3040">
    <rdf:RDF>
      <cc:Work
         rdf:about="">
        <dc:format>image/svg+xml</dc:format>
        <dc:type
           rdf:resource="http://purl.org/dc/dcmitype/StillImage" />
        <dc:title />
      </cc:Work>
    </rdf:RDF>
  </metadata>
  <g
     inkscape:label="Layer 1"
     inkscape:groupmode="layer"
     id="layer1">
    <g
       transform="matrix(2.8012521,0,0,-2.8012521,-1628.787,1139.5387)"
       id="g8691">
      <path
         id="path8693"
         style="fill:none;stroke:#ff0000;stroke-width:0.25;stroke-linecap:butt;stroke-linejoin:miter;stroke-miterlimit:4;stroke-opacity:1;stroke-dasharray:none"
         d="m 691.53436,34.021542 0,159.999988 -100,0 0,-159.999988 100,0 z"
         inkscape:connector-curvature="0" />
    </g>
    <g
       transform="matrix(2.8012521,0,0,-2.8012521,-1628.787,1139.5387)"
       id="g8851">
      <path
         id="path8853"
         style="fill:none;stroke:#000000;stroke-width:0.25;stroke-linecap:butt;stroke-linejoin:miter;stroke-miterlimit:4;stroke-opacity:1;stroke-dasharray:none"
         d="m 636.68359,164.81897 -8.80951,-4.51129 -0.60394,-0.73815 -0.4461,-0.80123 -0.28736,-0.87287 -0.12781,-0.95303 0.0325,-1.04172 0.19384,-1.1389 0.3559,-1.24464 0.51892,-1.35892 0.68042,-1.47287 0.83148,-1.55133 0.96961,-1.58542 1.09509,-1.57523 1.20764,-1.52061 1.30756,-1.42174 1.39453,-1.27846 1.46881,-1.09086 1.53119,-0.86791 1.58581,-0.64534 1.63361,-0.43217 1.6745,-0.22838 1.70868,-0.034 1.73596,0.15107 1.75641,0.32673 1.77014,0.49298 1.77387,0.64876 1.75604,0.78946 1.71338,0.91394 1.64593,1.02223 1.55384,1.11432 1.43695,1.19022 1.29528,1.24989 1.12891,1.2934 0.94592,1.32223 0.77869,1.34271 0.63531,1.35636 0.51593,1.36316 0.42035,1.36317 0.34864,1.35634 0.3009,1.3427 0.27698,1.32223 0.27136,1.29497 0.26105,1.26085 0.2406,1.21991 0.2099,1.17216 0.16888,1.11759 0.11774,1.05621 0.0563,0.98798 -0.0154,0.91295 -0.0989,0.83079 -0.20136,0.74042 -0.32422,0.64152 -0.46753,0.53406 -0.63141,0.41811 -0.81567,0.29361 -1.02039,0.1606 -1.24566,0.019 -1.47998,-0.12564 -1.67798,-0.25182 -1.82813,-0.35417 -1.93048,-0.43259 -1.9851,-0.48716 -1.99195,-0.51787 -1.95093,-0.52469 -1.86224,-0.50763 -1.73669,-0.47197 -1.61805,-0.4387 -1.51745,-0.41315 -1.43463,-0.3952 -1.36982,-0.385 -1.32287,-0.38243 -1.29389,-0.38756 -1.28271,-0.40033 -1.2832,-0.42022 -1.2696,-0.44498 -1.23547,-0.47395 -1.18079,-0.50721 -1.10571,-0.54474 -1.01019,-0.58648 -0.89417,-0.63257"
         inkscape:connector-curvature="0" />
    </g>
    <g
       transform="matrix(2.8012521,0,0,-2.8012521,-1628.787,1139.5387)"
       id="g8855">
      <path
         id="path8857"
         style="fill:none;stroke:#000000;stroke-width:0.25;stroke-linecap:butt;stroke-linejoin:miter;stroke-miterlimit:4;stroke-opacity:1;stroke-dasharray:none"
         d="m 610.76898,34.021542 0.74164,9.208377 0.83026,11.267388 0.64166,9.869819 0.47144,8.684159 0.31958,7.71038 0.18603,6.948502 0.0709,6.398521 -0.026,6.060432 -0.10627,5.89487 -0.17755,5.74435 -0.24145,5.56957 -0.29834,5.37045 -0.34772,5.14706 -0.39001,4.89935 -0.42493,4.62732 -0.4527,4.33105 -0.46911,4.01603 -0.45801,3.70478 -0.41541,3.40296 -0.34112,3.11047 -0.23529,2.82738 -0.098,2.55368 0.071,2.28932 0.27142,2.03436 0.49518,1.79151 0.70843,1.57152 0.90296,1.37709 1.07873,1.20828 1.23572,1.065 1.37396,0.94733 1.49335,0.85525 1.59406,0.78874 1.67865,0.7434 1.75799,0.70163 1.83478,0.65899 1.90906,0.6155 1.98065,0.57116 2.0498,0.52597 2.11634,0.47992 2.18036,0.43302 2.24182,0.38515 2.3006,0.33567 2.35693,0.2845 2.41077,0.23166 2.46185,0.17707 2.51056,0.1208 2.55652,0.0628 2.60015,0.003 2.63691,-0.0574 2.65063,-0.1154 2.6369,-0.16997 2.59601,-0.22113 2.52771,-0.26889 2.43219,-0.31322 2.30933,-0.35414 2.15912,-0.39168 1.98455,-0.4272 1.79682,-0.46641 1.59888,-0.51076 1.39074,-0.56023 1.1723,-0.61477 0.94361,-0.67449 0.70471,-0.73929 0.45563,-0.8092 0.2041,-0.88297 -0.0187,-0.95544 -0.20465,-1.02536 -0.35394,-1.09271 -0.46655,-1.15752 -0.54242,-1.21979 -0.58179,-1.27946 -0.58423,-1.3366 -0.55688,-1.39642 -0.52613,-1.47998 -0.49884,-1.59254 -0.47497,-1.73409 -0.45453,-1.90463 -0.43732,-2.10416 -0.42377,-2.33267 -0.41351,-2.59019 -0.40485,-2.87841 -0.39038,-3.20413 -0.3681,-3.56906 -0.33832,-3.97327 -0.30072,-4.41664 -0.25555,-4.89928 -0.20264,-5.42111 -0.14209,-5.98221 -0.0688,-6.61375 0.0369,-7.44086 0.18036,-8.494793 0.36115,-9.775528 0.57965,-11.283081 0.83551,-13.01746 1.12909,-14.978649 0.92529,-10.878727"
         inkscape:connector-curvature="0" />
    </g>
  </g>
</svg>
