<?xml version="1.0" encoding="UTF-8" standalone="no"?>
<!-- Created with Inkscape (http://www.inkscape.org/) -->

<svg
   xmlns:dc="http://purl.org/dc/elements/1.1/"
   xmlns:cc="http://creativecommons.org/ns#"
   xmlns:rdf="http://www.w3.org/1999/02/22-rdf-syntax-ns#"
   xmlns:svg="http://www.w3.org/2000/svg"
   xmlns="http://www.w3.org/2000/svg"
   xmlns:sodipodi="http://sodipodi.sourceforge.net/DTD/sodipodi-0.dtd"
   xmlns:inkscape="http://www.inkscape.org/namespaces/inkscape"
   width="744.09448819"
   height="1052.3622047"
   id="svg3074"
   version="1.1"
   inkscape:version="0.48.2 r9819"
   sodipodi:docname="hobbet.svg">
  <defs
     id="defs3076" />
  <sodipodi:namedview
     id="base"
     pagecolor="#ffffff"
     bordercolor="#666666"
     borderopacity="1.0"
     inkscape:pageopacity="0.0"
     inkscape:pageshadow="2"
     inkscape:zoom="0.35"
     inkscape:cx="375"
     inkscape:cy="520"
     inkscape:document-units="px"
     inkscape:current-layer="layer1"
     showgrid="false"
     inkscape:window-width="1680"
     inkscape:window-height="998"
     inkscape:window-x="-8"
     inkscape:window-y="-8"
     inkscape:window-maximized="1" />
  <metadata
     id="metadata3079">
    <rdf:RDF>
      <cc:Work
         rdf:about="">
        <dc:format>image/svg+xml</dc:format>
        <dc:type
           rdf:resource="http://purl.org/dc/dcmitype/StillImage" />
        <dc:title />
      </cc:Work>
    </rdf:RDF>
  </metadata>
  <g
     inkscape:label="Layer 1"
     inkscape:groupmode="layer"
     id="layer1">
    <g
       transform="matrix(2.5997097,0,0,-2.5997097,-816.12803,619.31635)"
       id="g8715">
      <path
         id="path8717"
         style="fill:none;stroke:#ff0000;stroke-width:0.25;stroke-linecap:butt;stroke-linejoin:miter;stroke-miterlimit:4;stroke-opacity:1;stroke-dasharray:none"
         d="m 499.23199,-70.993347 c 0,47.730174 -38.69295,86.423126 -86.42312,86.423126 -47.73018,0 -86.42313,-38.692952 -86.42313,-86.423126 0,-47.730173 38.69295,-86.423123 86.42313,-86.423123 47.73017,0 86.42312,38.69295 86.42312,86.423123 z"
         inkscape:connector-curvature="0" />
    </g>
    <g
       transform="matrix(2.5997097,0,0,-2.5997097,-816.12803,619.31635)"
       id="g8719">
      <path
         id="path8721"
         style="fill:none;stroke:#000000;stroke-width:0.25;stroke-linecap:butt;stroke-linejoin:miter;stroke-miterlimit:4;stroke-opacity:1;stroke-dasharray:none"
         d="m 480.50998,-70.993347 c 0,37.390291 -30.31082,67.7011107 -67.70111,67.7011107 -37.39029,0 -67.70111,-30.3108197 -67.70111,-67.7011107 0,-37.390293 30.31082,-67.701113 67.70111,-67.701113 37.39029,0 67.70111,30.31082 67.70111,67.701113 z"
         inkscape:connector-curvature="0" />
    </g>
    <g
       transform="matrix(2.5997097,0,0,-2.5997097,-816.12803,619.31635)"
       id="g8723">
      <path
         id="path8725"
         style="fill:none;stroke:#000000;stroke-width:0.25;stroke-linecap:butt;stroke-linejoin:miter;stroke-miterlimit:4;stroke-opacity:1;stroke-dasharray:none"
         d="m 470.50997,-70.993351 c 0,31.867441 -25.83366,57.701107 -57.70111,57.701107 -31.86744,0 -57.7011,-25.833666 -57.7011,-57.701107 0,-31.867439 25.83366,-57.701109 57.7011,-57.701109 31.86745,0 57.70111,25.83367 57.70111,57.701109 z"
         inkscape:connector-curvature="0" />
    </g>
    <g
       transform="matrix(2.5997097,0,0,-2.5997097,-816.12803,619.31635)"
       id="g8727">
      <path
         id="path8729"
         style="fill:none;stroke:#000000;stroke-width:0.25;stroke-linecap:butt;stroke-linejoin:miter;stroke-miterlimit:4;stroke-opacity:1;stroke-dasharray:none"
         d="m 383.87943,-16.948665 c 0,1.255486 -1.01777,2.273259 -2.27326,2.273259 -1.25548,0 -2.27325,-1.017773 -2.27325,-2.273259 0,-1.255486 1.01777,-2.273259 2.27325,-2.273259 1.25549,0 2.27326,1.017773 2.27326,2.273259 z"
         inkscape:connector-curvature="0" />
    </g>
    <g
       transform="matrix(2.5997097,0,0,-2.5997097,-816.12803,619.31635)"
       id="g8731">
      <path
         id="path8733"
         style="fill:none;stroke:#000000;stroke-width:0.25;stroke-linecap:butt;stroke-linejoin:miter;stroke-miterlimit:4;stroke-opacity:1;stroke-dasharray:none"
         d="m 446.54066,-125.48107 c 0,1.25548 -1.01777,2.27325 -2.27326,2.27325 -1.25549,0 -2.27326,-1.01777 -2.27326,-2.27325 0,-1.25549 1.01777,-2.27326 2.27326,-2.27326 1.25549,0 2.27326,1.01777 2.27326,2.27326 z"
         inkscape:connector-curvature="0" />
    </g>
    <g
       transform="matrix(2.5997097,0,0,-2.5997097,-816.12803,619.31635)"
       id="g8735">
      <path
         id="path8737"
         style="fill:none;stroke:#000000;stroke-width:0.25;stroke-linecap:butt;stroke-linejoin:miter;stroke-miterlimit:4;stroke-opacity:1;stroke-dasharray:none"
         d="m 415.08213,-8.5879245 c 0,1.2554861 -1.01777,2.2732587 -2.27326,2.2732587 -1.25548,0 -2.27326,-1.0177726 -2.27326,-2.2732587 0,-1.2554861 1.01778,-2.2732585 2.27326,-2.2732585 1.25549,0 2.27326,1.0177724 2.27326,2.2732585 z"
         inkscape:connector-curvature="0" />
    </g>
    <g
       transform="matrix(2.5997097,0,0,-2.5997097,-816.12803,619.31635)"
       id="g8739">
      <path
         id="path8741"
         style="fill:none;stroke:#000000;stroke-width:0.25;stroke-linecap:butt;stroke-linejoin:miter;stroke-miterlimit:4;stroke-opacity:1;stroke-dasharray:none"
         d="m 415.08213,-133.91035 c 0,1.25549 -1.01777,2.27326 -2.27326,2.27326 -1.25548,0 -2.27326,-1.01777 -2.27326,-2.27326 0,-1.25549 1.01778,-2.27326 2.27326,-2.27326 1.25549,0 2.27326,1.01777 2.27326,2.27326 z"
         inkscape:connector-curvature="0" />
    </g>
    <g
       transform="matrix(2.5997097,0,0,-2.5997097,-816.12803,619.31635)"
       id="g8743">
      <path
         id="path8745"
         style="fill:none;stroke:#000000;stroke-width:0.25;stroke-linecap:butt;stroke-linejoin:miter;stroke-miterlimit:4;stroke-opacity:1;stroke-dasharray:none"
         d="m 352.67671,-70.993351 c 0,1.255487 -1.01778,2.273259 -2.27326,2.273259 -1.25549,0 -2.27326,-1.017772 -2.27326,-2.273259 0,-1.255486 1.01777,-2.273258 2.27326,-2.273258 1.25548,0 2.27326,1.017772 2.27326,2.273258 z"
         inkscape:connector-curvature="0" />
    </g>
    <g
       transform="matrix(2.5997097,0,0,-2.5997097,-816.12803,619.31635)"
       id="g8747">
      <path
         id="path8749"
         style="fill:none;stroke:#000000;stroke-width:0.25;stroke-linecap:butt;stroke-linejoin:miter;stroke-miterlimit:4;stroke-opacity:1;stroke-dasharray:none"
         d="m 477.99915,-70.993351 c 0,1.255487 -1.01777,2.273259 -2.27325,2.273259 -1.25549,0 -2.27326,-1.017772 -2.27326,-2.273259 0,-1.255486 1.01777,-2.273258 2.27326,-2.273258 1.25548,0 2.27325,1.017772 2.27325,2.273258 z"
         inkscape:connector-curvature="0" />
    </g>
    <g
       transform="matrix(2.5997097,0,0,-2.5997097,-816.12803,619.31635)"
       id="g8751">
      <path
         id="path8753"
         style="fill:none;stroke:#000000;stroke-width:0.25;stroke-linecap:butt;stroke-linejoin:miter;stroke-miterlimit:4;stroke-opacity:1;stroke-dasharray:none"
         d="m 361.03745,-39.790637 c 0,1.255486 -1.01777,2.273258 -2.27326,2.273258 -1.25548,0 -2.27325,-1.017772 -2.27325,-2.273258 0,-1.255487 1.01777,-2.273259 2.27325,-2.273259 1.25549,0 2.27326,1.017772 2.27326,2.273259 z"
         inkscape:connector-curvature="0" />
    </g>
    <g
       transform="matrix(2.5997097,0,0,-2.5997097,-816.12803,619.31635)"
       id="g8755">
      <path
         id="path8757"
         style="fill:none;stroke:#000000;stroke-width:0.25;stroke-linecap:butt;stroke-linejoin:miter;stroke-miterlimit:4;stroke-opacity:1;stroke-dasharray:none"
         d="m 469.56986,-102.45185 c 0,1.25548 -1.01777,2.27325 -2.27326,2.27325 -1.25548,0 -2.27325,-1.01777 -2.27325,-2.27325 0,-1.25549 1.01777,-2.27326 2.27325,-2.27326 1.25549,0 2.27326,1.01777 2.27326,2.27326 z"
         inkscape:connector-curvature="0" />
    </g>
    <g
       transform="matrix(2.5997097,0,0,-2.5997097,-816.12803,619.31635)"
       id="g8759">
      <path
         id="path8761"
         style="fill:none;stroke:#000000;stroke-width:0.25;stroke-linecap:butt;stroke-linejoin:miter;stroke-miterlimit:4;stroke-opacity:1;stroke-dasharray:none"
         d="m 383.87943,-125.03803 c 0,1.25549 -1.01777,2.27326 -2.27326,2.27326 -1.25548,0 -2.27325,-1.01777 -2.27325,-2.27326 0,-1.25548 1.01777,-2.27326 2.27325,-2.27326 1.25549,0 2.27326,1.01778 2.27326,2.27326 z"
         inkscape:connector-curvature="0" />
    </g>
    <g
       transform="matrix(2.5997097,0,0,-2.5997097,-816.12803,619.31635)"
       id="g8763">
      <path
         id="path8765"
         style="fill:none;stroke:#000000;stroke-width:0.25;stroke-linecap:butt;stroke-linejoin:miter;stroke-miterlimit:4;stroke-opacity:1;stroke-dasharray:none"
         d="m 446.54066,-16.505617 c 0,1.255486 -1.01777,2.273259 -2.27326,2.273259 -1.25549,0 -2.27326,-1.017773 -2.27326,-2.273259 0,-1.255486 1.01777,-2.273258 2.27326,-2.273258 1.25549,0 2.27326,1.017772 2.27326,2.273258 z"
         inkscape:connector-curvature="0" />
    </g>
    <g
       transform="matrix(2.5997097,0,0,-2.5997097,-816.12803,619.31635)"
       id="g8767">
      <path
         id="path8769"
         style="fill:none;stroke:#000000;stroke-width:0.25;stroke-linecap:butt;stroke-linejoin:miter;stroke-miterlimit:4;stroke-opacity:1;stroke-dasharray:none"
         d="m 361.03745,-102.19606 c 0,1.25549 -1.01777,2.273263 -2.27326,2.273263 -1.25548,0 -2.27325,-1.017773 -2.27325,-2.273263 0,-1.25548 1.01777,-2.27325 2.27325,-2.27325 1.25549,0 2.27326,1.01777 2.27326,2.27325 z"
         inkscape:connector-curvature="0" />
    </g>
    <g
       transform="matrix(2.5997097,0,0,-2.5997097,-816.12803,619.31635)"
       id="g8771">
      <path
         id="path8773"
         style="fill:none;stroke:#000000;stroke-width:0.25;stroke-linecap:butt;stroke-linejoin:miter;stroke-miterlimit:4;stroke-opacity:1;stroke-dasharray:none"
         d="m 469.56986,-39.534843 c 0,1.255486 -1.01777,2.273259 -2.27326,2.273259 -1.25548,0 -2.27325,-1.017773 -2.27325,-2.273259 0,-1.255486 1.01777,-2.273259 2.27325,-2.273259 1.25549,0 2.27326,1.017773 2.27326,2.273259 z"
         inkscape:connector-curvature="0" />
    </g>
    <g
       transform="matrix(2.5997097,0,0,-2.5997097,-816.12803,619.31635)"
       id="g8775">
      <path
         id="path8777"
         style="fill:none;stroke:#000000;stroke-width:0.25;stroke-linecap:butt;stroke-linejoin:miter;stroke-miterlimit:4;stroke-opacity:1;stroke-dasharray:none"
         d="m 412.80887,-138.69444 0,135.4021977"
         inkscape:connector-curvature="0" />
    </g>
  </g>
</svg>
